<svg xmlns="http://www.w3.org/2000/svg" version="1.1" xmlns:xlink="http://www.w3.org/1999/xlink" xmlns:svgjs="http://svgjs.com/svgjs" width="500" height="500"><svg viewBox="0 0 500 500" xmlns="http://www.w3.org/2000/svg">
  <g transform="matrix(9.434167, 0, 0, 9.434167, -148.014359, -132.125748)" style="">
    <path class="cls-1" d="M 42.907 36.384 L 29.764 61.844 C 29.294 62.757 28.343 63.333 27.303 63.33 L 18.352 63.33 C 16.606 63.337 15.474 61.513 16.278 59.985 L 29.422 34.526 C 29.891 33.611 30.843 33.036 31.883 33.039 L 40.833 33.039 C 42.579 33.034 43.709 34.856 42.907 36.384 Z" style="fill: rgb(17, 94, 248);"></path>
    <path class="cls-1" d="M 66.797 44.363 L 53.108 17.933 C 52.468 16.689 51.17 15.907 49.756 15.91 L 41.084 15.91 C 39.48 15.913 38.441 17.582 39.167 18.994 L 46.406 33.043 L 46.406 33.043 L 53.828 47.44 C 54.609 48.954 53.491 50.747 51.768 50.747 L 41.187 50.747 C 39.79 50.747 38.659 51.863 38.659 53.238 C 38.657 53.595 38.735 53.947 38.886 54.27 L 42.381 61.85 C 42.794 62.741 43.695 63.312 44.688 63.313 L 55.023 63.313 C 64.899 63.313 71.288 53.03 66.801 44.36 Z" style="fill: rgb(17, 94, 248);"></path>
  </g>
</svg><style>@media (prefers-color-scheme: light) { :root { filter: none; } }
</style></svg>