<?xml version="1.0" ?><svg enable-background="new 0 0 24 24" id="Layer_1" version="1.1" viewBox="0 0 24 24" xml:space="preserve" xmlns="http://www.w3.org/2000/svg" xmlns:xlink="http://www.w3.org/1999/xlink"><g><polygon fill="#E83628" id="XMLID_1587_" points="0,1 10,1 0,23  "/><polygon fill="#E83628" id="XMLID_1585_" points="13.5,23 18,23 12,9 7.5,19 12,19  "/><polygon fill="#E83628" id="XMLID_1577_" points="14,1 24,23 24,1  "/><linearGradient gradientUnits="userSpaceOnUse" id="XMLID_2_" x1="-3.3202136" x2="5.1062756" y1="8.1202211" y2="12.0495567"><stop offset="0" style="stop-color:#FFFFFF;stop-opacity:0.1"/><stop offset="1" style="stop-color:#FFFFFF;stop-opacity:0"/></linearGradient><polygon fill="url(#XMLID_2_)" id="XMLID_1321_" points="0,1 10,1 0,23  "/><linearGradient gradientUnits="userSpaceOnUse" id="XMLID_3_" x1="8.375" x2="18.375" y1="12.625" y2="22.625"><stop offset="0" style="stop-color:#000000;stop-opacity:0"/><stop offset="1" style="stop-color:#000000;stop-opacity:0.1"/></linearGradient><polygon fill="url(#XMLID_3_)" id="XMLID_1316_" points="13.5,23 18,23 12,9 7.5,19 12,19  "/><linearGradient gradientUnits="userSpaceOnUse" id="XMLID_4_" x1="13.5" x2="29.5" y1="1.5" y2="17.5"><stop offset="0" style="stop-color:#000000;stop-opacity:0"/><stop offset="1" style="stop-color:#000000;stop-opacity:0.1"/></linearGradient><polygon fill="url(#XMLID_4_)" id="XMLID_1309_" points="14,1 24,23 24,1  "/><linearGradient gradientUnits="userSpaceOnUse" id="SVGID_1_" x1="-2.0699701" x2="26.0699692" y1="5.439065" y2="18.5609341"><stop offset="0" style="stop-color:#FFFFFF;stop-opacity:0.1"/><stop offset="1" style="stop-color:#FFFFFF;stop-opacity:0"/></linearGradient><path d="M0,1v22L10,1H0z M7.5,19H12l1.5,4H18L12,9L7.5,19z M14,1l10,22V1H14z" fill="url(#SVGID_1_)"/></g><g/><g/><g/><g/><g/><g/><g/><g/><g/><g/><g/><g/><g/><g/><g/></svg>