<svg width="260" height="260" viewBox="0 0 260 260" fill="none" xmlns="http://www.w3.org/2000/svg"><path fill-rule="evenodd" clip-rule="evenodd" d="m96.9891 28 66.0219.0204c5.002 0 9.551 2.8662 11.666 7.349 13.641 28.9174 63.862 135.3666 84.115 178.2926 1.861 3.943 1.556 8.555-.806 12.226-2.366 3.671-6.462 5.896-10.86 5.896h-28.688c-9.576 0-18.712-3.957-25.211-10.908-5.493-5.876-12.027-12.868-16.445-17.599-3.252-3.477-7.821-5.454-12.607-5.454-11.999 0-57.144-.017-69.4038-.017-4.786 0-9.3557 1.977-12.6036 5.454-4.422 4.731-10.9555 11.72-16.4453 17.595-6.4992 6.955-15.6386 10.908-25.214 10.908H12.8739c-4.39802 0-8.49396-2.224-10.85948-5.895-2.362096-3.671-2.667607-8.28-.80677-12.226C21.4605 170.716 71.6825 64.2665 85.3229 35.3491 87.4378 30.8663 91.9868 28 96.9891 28ZM202.603 192.515c-10.169-24.241-48.206-107.2065-64.796-143.2862-1.39-3.0361-4.446-4.9855-7.817-4.9855-3.368 0-6.427 1.9494-7.818 4.9855C105.589 85.3051 67.5659 168.254 57.3966 192.495c-.3571.873-.2506 1.864.2781 2.645.5322.781 1.4213 1.247 2.3724 1.247h12.9537c5.2735 0 10.2518-2.395 13.5065-6.5 5.3147-6.701 13.5547-17.089 18.8697-23.79 3.254-4.102 8.233-6.5 13.506-6.5 5.277 0 16.957.021 22.234.021 5.273 0 10.252 2.394 13.506 6.496 5.315 6.704 13.555 17.093 18.87 23.793 3.254 4.102 8.233 6.5 13.506 6.5h12.954c.951 0 1.84-.469 2.372-1.25.529-.777.636-1.769.278-2.642Z" fill="url(#a)"/><defs><linearGradient id="a" x1="0" y1="231.784" x2="260" y2="231.784" gradientUnits="userSpaceOnUse"><stop stop-color="#2F3CC9"/><stop offset="1" stop-color="#AD52DD"/></linearGradient></defs></svg>