<svg width="200" height="200" viewBox="0 0 200 200" fill="none" xmlns="http://www.w3.org/2000/svg">
<path d="M65.33 175.99C91.9998 175.99 113.62 154.37 113.62 127.7C113.62 101.03 91.9998 79.4097 65.33 79.4097C38.6602 79.4097 17.04 101.03 17.04 127.7C17.04 154.37 38.6602 175.99 65.33 175.99Z" fill="black"/>
<path fill-rule="evenodd" clip-rule="evenodd" d="M77.5467 69.9276C86.1379 68.3192 94.2973 72.8878 100.448 77.3924C101.666 78.2841 102.818 79.1637 103.948 80.0264C105.804 81.443 107.601 82.8141 109.528 84.1185C112.541 86.1576 115.547 87.7901 118.795 88.6633L117.425 93.7566C113.383 92.6697 109.824 90.6873 106.572 88.4864C104.548 87.1167 102.508 85.5619 100.549 84.0685C99.4454 83.2273 98.3673 82.4056 97.332 81.6475C91.3034 77.2324 84.7637 73.9414 78.5157 75.1119L78.5113 75.1127C76.8503 75.421 75.6158 76.0218 74.9323 76.8584L74.9269 76.8649C74.6423 77.211 74.4461 77.6872 74.4037 78.1495C74.3619 78.6045 74.4768 78.8837 74.5888 79.0272L74.5925 79.032C74.7255 79.2032 74.983 79.4118 75.56 79.6309C76.097 79.8348 76.6817 79.9703 77.4503 80.1484C77.564 80.1748 77.6818 80.2021 77.804 80.2307C83.0946 81.4394 88.1346 83.7147 92.5463 86.8765L92.5471 86.8771C94.8385 88.5206 96.9664 90.3961 98.986 92.255C99.6368 92.854 100.27 93.4452 100.894 94.0282C102.247 95.291 103.559 96.5155 104.918 97.6975C108.864 101.129 112.692 103.72 117.199 104.535L116.261 109.725C110.319 108.65 105.601 105.281 101.457 101.677C100.026 100.433 98.6007 99.1023 97.2134 97.8072C96.6054 97.2398 96.0048 96.6791 95.4142 96.1355C93.4351 94.3138 91.4968 92.6143 89.4732 91.1628C85.627 88.4064 81.2297 86.4225 76.6232 85.3709L76.6095 85.3677C76.5116 85.3448 76.4077 85.321 76.2985 85.2959C75.5615 85.1268 74.5889 84.9037 73.6877 84.5615C72.613 84.1534 71.3763 83.4875 70.4296 82.2703C68.2557 79.4828 69.0549 75.7046 70.8507 73.5182C72.6665 71.2979 75.3292 70.3394 77.5467 69.9276Z" fill="black"/>
<path d="M113.48 42.6398C115.093 42.6398 116.4 41.3325 116.4 39.7198C116.4 38.1072 115.093 36.7998 113.48 36.7998C111.867 36.7998 110.56 38.1072 110.56 39.7198C110.56 41.3325 111.867 42.6398 113.48 42.6398Z" fill="black"/>
<path d="M126.2 42.6398C127.812 42.6398 129.12 41.3325 129.12 39.7198C129.12 38.1072 127.812 36.7998 126.2 36.7998C124.587 36.7998 123.28 38.1072 123.28 39.7198C123.28 41.3325 124.587 42.6398 126.2 42.6398Z" fill="black"/>
<path d="M96.65 54.6398C98.2626 54.6398 99.57 53.3325 99.57 51.7198C99.57 50.1072 98.2626 48.7998 96.65 48.7998C95.0373 48.7998 93.73 50.1072 93.73 51.7198C93.73 53.3325 95.0373 54.6398 96.65 54.6398Z" fill="black"/>
<path fill-rule="evenodd" clip-rule="evenodd" d="M134.84 22.6443C138.996 23.7087 143.672 26.3869 147.987 32.4392C153.73 40.4992 166.122 57.9895 170.003 63.7215C170.003 63.7217 170.003 63.7212 170.003 63.7215C175.719 72.1558 179.179 81.0455 181.21 87.7938C182.228 91.1755 182.893 94.0392 183.305 96.0667C183.511 97.0809 183.654 97.8874 183.746 98.4465C183.793 98.726 183.826 98.9439 183.849 99.0951C183.856 99.1475 183.863 99.1919 183.868 99.2281C183.87 99.2441 183.872 99.2585 183.874 99.2713L183.876 99.2828C183.873 99.2668 183.87 99.2507 183.867 99.2347L181.27 99.6901L178.656 100.036L178.651 100.004C178.647 99.9753 178.641 99.93 178.631 99.8683C178.613 99.745 178.584 99.5559 178.543 99.306C178.46 98.8062 178.329 98.0635 178.137 97.1169C177.752 95.2229 177.124 92.5184 176.16 89.3139C174.226 82.8899 170.961 74.535 165.637 66.6795C161.799 61.0117 149.45 43.5813 143.693 35.5011C143.692 35.5008 143.693 35.5013 143.693 35.5011C140.058 30.4033 136.414 28.4916 133.532 27.7535C131.231 27.1641 129.45 27.2715 127.902 27.3648C127.371 27.3968 126.867 27.4272 126.38 27.4272C123.798 27.4272 120.373 27.8846 117.323 28.3562L117.318 28.357C114.398 28.8026 111.895 30.7605 110.884 33.4103C109.734 36.4219 109.752 40.2386 109.905 44.1574L110.007 46.7724L107.393 46.8943C106.532 46.9344 105.658 46.9597 104.745 46.986C102.973 47.0373 101.057 47.0926 98.8167 47.269L98.8144 47.2692C95.8753 47.498 94.1839 48.8275 93.1642 50.338C92.0707 51.9579 91.7037 53.8779 91.7359 55.0689L91.736 55.072C91.8425 59.1981 92.2517 62.6227 95.8256 65.564C98.0337 67.3824 102.244 69.6273 106.492 71.8837C108.542 72.9729 110.573 74.0527 112.213 75.0223C113.034 75.5078 113.8 75.991 114.445 76.457C115.047 76.8919 115.72 77.4357 116.203 78.0667L116.205 78.0694C120.589 83.8084 121.398 91.2564 121.255 99.763C121.191 103.593 120.926 107.78 120.643 112.258C120.609 112.8 120.574 113.346 120.54 113.896C120.219 119.019 119.898 124.559 119.817 130.566C119.71 138.399 121.327 142.902 124.003 145.478C126.352 147.74 129.992 148.975 135.477 149.106C135.409 150.832 135.401 152.632 135.428 154.38C129.24 154.242 124.05 152.844 120.345 149.277C116.108 145.198 114.429 138.881 114.543 130.494C114.626 124.35 114.954 118.702 115.276 113.566C115.311 113.015 115.345 112.471 115.379 111.933C115.664 107.43 115.92 103.374 115.982 99.6747C116.122 91.3156 115.231 85.4844 112.016 81.2735L114.11 79.6701L112.014 81.2708L134.84 22.6443ZM135.912 164.495C135.898 164.316 135.883 164.121 135.868 163.912C135.779 162.712 135.668 161.031 135.578 159.107C135.51 157.651 135.453 156.039 135.428 154.38C136.299 154.399 137.191 154.394 138.101 154.366L137.938 149.094C137.079 149.121 136.259 149.124 135.477 149.106C135.514 148.173 135.568 147.262 135.643 146.393L140.897 146.847C140.583 150.491 140.67 155.096 140.846 158.86C140.934 160.728 141.042 162.36 141.128 163.525C141.17 164.107 141.208 164.571 141.234 164.888C141.248 165.047 141.258 165.169 141.265 165.25L141.273 165.341L141.275 165.363L141.276 165.368L141.426 167.005L140.062 167.837C140.066 167.835 140.069 167.833 140.071 167.831L140.073 167.829C140.073 167.83 140.071 167.831 140.067 167.834L140.051 167.844L140.062 167.837C140.048 167.847 140.021 167.868 139.984 167.898C139.889 167.975 139.741 168.108 139.582 168.297C139.269 168.67 138.928 169.236 138.826 170.043C138.826 170.042 138.826 170.042 138.826 170.042L136.21 169.71L138.826 170.043C138.735 170.76 138.926 171.366 139.395 171.831C139.893 172.324 141.024 172.967 143.382 173.013C144.61 173.038 148.129 172.964 152.678 172.868C153.479 172.851 154.311 172.834 155.169 172.816C160.702 172.701 167.184 172.579 172.531 172.573C172.52 172.609 172.508 172.644 172.496 172.676C172.456 172.784 172.428 172.83 172.423 172.838C172.428 172.832 172.452 172.799 172.505 172.754C172.677 172.609 172.871 172.573 172.93 172.573C172.798 172.573 172.665 172.573 172.531 172.573C172.695 172.05 172.791 171.148 172.759 169.864C172.726 168.556 172.572 167.132 172.412 165.784C172.392 165.611 172.37 165.436 172.349 165.259C172.218 164.173 172.081 163.042 172.073 162.268V162.264C172.071 162.061 172.068 161.796 172.063 161.48C172.047 160.174 172.018 158.003 172.043 155.759C172.072 153.054 172.178 149.932 172.542 148.065C173.149 144.954 174.357 141.657 176.784 135.036C177.239 133.794 177.737 132.435 178.282 130.939C178.281 130.939 178.281 130.94 178.281 130.941L180.76 131.84L178.282 130.938C178.282 130.938 178.282 130.938 178.282 130.939C179.055 128.805 179.725 124.246 179.894 118.459C180.06 112.762 179.731 106.182 178.672 100.146L178.663 100.091L178.656 100.038L135.912 164.495ZM135.912 164.495C135.793 164.619 135.671 164.754 135.547 164.901C134.731 165.87 133.851 167.354 133.594 169.377V169.378C133.325 171.501 133.899 173.809 135.682 175.577C137.436 177.315 140.045 178.223 143.278 178.286C144.624 178.313 148.285 178.236 152.798 178.141C153.601 178.124 154.43 178.106 155.278 178.089C160.954 177.971 167.571 177.847 172.93 177.847C174.032 177.847 175.064 177.495 175.905 176.786C176.698 176.117 177.164 175.264 177.447 174.495C177.991 173.014 178.069 171.244 178.031 169.731C177.991 168.154 177.81 166.514 177.649 165.162C177.626 164.968 177.604 164.783 177.583 164.606C177.445 163.453 177.352 162.675 177.347 162.216C177.345 161.993 177.341 161.712 177.337 161.383C177.32 160.068 177.293 157.987 177.317 155.816C177.347 153.021 177.462 150.388 177.718 149.075C178.239 146.406 179.268 143.596 181.718 136.902C182.174 135.658 182.678 134.279 183.238 132.742L183.239 132.739C184.315 129.772 184.994 124.503 185.166 118.613C185.339 112.648 185.001 105.723 183.876 99.2828L183.881 99.3208L183.883 99.3357L183.884 99.3406V99.3425C183.884 99.3432 183.884 99.3439 181.27 99.6901C178.656 100.036 178.656 100.037 178.656 100.038L135.912 164.495ZM177.347 162.216C177.347 162.214 177.347 162.213 177.347 162.212L174.71 162.24L177.347 162.216ZM177.718 149.075C177.718 149.075 177.718 149.074 177.718 149.075V149.075ZM143.278 178.286C143.277 178.286 143.278 178.286 143.278 178.286V178.286ZM135.912 164.495C136.185 164.209 136.441 163.981 136.655 163.807C136.809 163.682 136.943 163.583 137.049 163.509C137.102 163.472 137.148 163.441 137.186 163.416C137.205 163.404 137.222 163.393 137.237 163.383L137.258 163.37L137.267 163.364L137.274 163.36C137.275 163.36 137.276 163.359 138.65 165.61C136.024 165.851 136.024 165.851 136.024 165.85L136.02 165.813L136.011 165.711C136.004 165.623 135.992 165.494 135.979 165.327C135.96 165.11 135.938 164.83 135.912 164.495ZM112.016 81.2735C112.008 81.2645 111.845 81.0852 111.356 80.732C110.896 80.3996 110.283 80.0087 109.528 79.5617C108.014 78.6664 106.1 77.6473 104.018 76.5415C103.914 76.4862 103.809 76.4306 103.704 76.3748C99.7534 74.2771 95.1254 71.8195 92.4741 69.6363C87.0085 65.1381 86.5772 59.6033 86.4637 55.2096C86.4062 53.0707 87.0044 50.0366 88.7929 47.3872C90.6554 44.6281 93.7633 42.373 98.4029 42.0112C100.663 41.8333 102.764 41.7669 104.559 41.714C104.517 38.4581 104.717 34.7771 105.956 31.5299C107.685 27.0006 111.84 23.8589 116.519 23.1437C119.549 22.6754 123.343 22.1531 126.38 22.1531C126.543 22.1531 126.793 22.1364 127.116 22.1148C128.594 22.0159 131.601 21.8147 134.84 22.6443L112.016 81.2735ZM138.65 165.61C140.024 167.861 140.025 167.86 140.026 167.859L140.024 167.861L138.65 165.61Z" fill="black"/>
<path fill-rule="evenodd" clip-rule="evenodd" d="M152.333 90.0394C152.334 90.0406 152.334 90.0418 154.73 88.94C157.126 87.8383 157.127 87.8396 157.127 87.8409L157.129 87.8438L157.132 87.8503L157.139 87.8664L157.158 87.9107C157.174 87.9457 157.194 87.9916 157.218 88.0487C157.266 88.1628 157.33 88.3213 157.408 88.526C157.564 88.9353 157.776 89.5286 158.02 90.3187C158.509 91.8991 159.13 94.2656 159.71 97.5197C160.87 104.028 161.867 114.083 161.315 128.501L161.313 128.555L161.309 128.608V128.611L161.307 128.637C161.305 128.661 161.302 128.701 161.299 128.755C161.292 128.863 161.282 129.027 161.273 129.239C161.253 129.664 161.233 130.279 161.231 131.023C161.227 132.522 161.3 134.491 161.589 136.456C161.884 138.458 162.377 140.253 163.1 141.527C163.793 142.749 164.523 143.226 165.34 143.32L165.57 143.346L165.768 143.405C165.77 143.406 165.771 143.406 165.773 143.407C165.793 143.412 165.838 143.422 165.904 143.436C166.038 143.462 166.249 143.496 166.512 143.515C167.053 143.553 167.727 143.518 168.389 143.286C169.015 143.067 169.693 142.653 170.299 141.81C170.923 140.943 171.561 139.493 171.852 137.075L171.866 136.96L171.889 136.849L171.89 136.846V136.845L171.895 136.819C171.9 136.794 171.908 136.754 171.919 136.698C171.941 136.585 171.974 136.411 172.014 136.178C172.096 135.712 172.21 135.011 172.333 134.097C172.581 132.27 172.868 129.595 173.014 126.258C173.308 119.578 173.04 110.272 170.792 99.7932L175.949 98.687C178.311 109.698 178.592 119.467 178.283 126.49C178.129 130.003 177.826 132.837 177.56 134.805C177.426 135.789 177.302 136.557 177.21 137.086C177.163 137.351 177.125 137.556 177.098 137.698C177.089 137.742 177.081 137.781 177.075 137.813C176.699 140.823 175.834 143.147 174.581 144.889C173.295 146.677 171.698 147.716 170.131 148.264C168.601 148.8 167.165 148.847 166.144 148.776C165.626 148.74 165.194 148.671 164.878 148.609C164.745 148.582 164.631 148.557 164.539 148.534C161.629 148.127 159.705 146.231 158.513 144.129C157.323 142.032 156.706 139.497 156.371 137.225C156.031 134.914 155.953 132.663 155.957 131.011C155.959 130.179 155.982 129.486 156.004 128.996C156.015 128.751 156.027 128.556 156.035 128.42C156.04 128.351 156.044 128.297 156.046 128.259L156.047 128.252C156.581 114.195 155.604 104.536 154.518 98.4454C153.974 95.397 153.403 93.2422 152.981 91.8769C152.77 91.1943 152.596 90.7087 152.481 90.4073C152.423 90.2566 152.381 90.1518 152.355 90.0915C152.343 90.0613 152.334 90.0422 152.331 90.034C152.329 90.0299 152.328 90.0285 152.329 90.0298L152.331 90.034L152.332 90.0373L152.333 90.0394Z" fill="black"/>
<path fill-rule="evenodd" clip-rule="evenodd" d="M119.494 147.128C119.494 147.128 119.494 147.128 122.13 147.06L124.766 146.992L124.77 147.139C124.773 147.238 124.777 147.384 124.783 147.571C124.795 147.947 124.812 148.49 124.837 149.156C124.886 150.49 124.964 152.313 125.074 154.277C125.301 158.306 125.655 162.603 126.136 164.632L126.646 166.783L124.64 167.65C124.632 167.654 124.618 167.661 124.599 167.671C124.544 167.699 124.449 167.751 124.328 167.827C124.081 167.982 123.764 168.217 123.47 168.527C122.925 169.105 122.468 169.913 122.666 171.198L122.708 171.471L122.698 171.651C122.7 171.666 122.703 171.684 122.708 171.707C122.728 171.81 122.777 171.969 122.894 172.139C123.049 172.366 123.683 173.153 126.054 173.341L126.47 173.333C126.814 173.327 127.31 173.318 127.915 173.306C129.126 173.282 130.774 173.247 132.524 173.206C136.057 173.123 139.91 173.014 141.484 172.909L141.836 178.171C140.121 178.286 136.133 178.397 132.648 178.479C130.89 178.52 129.235 178.555 128.02 178.579C127.412 178.591 126.914 178.6 126.568 178.607L126.028 178.617C126.027 178.617 126.027 178.617 125.98 175.98L126.028 178.617L125.911 178.619L125.796 178.611C122.118 178.353 119.809 176.97 118.541 175.118C117.946 174.247 117.666 173.391 117.536 172.74C117.471 172.414 117.442 172.133 117.43 171.915C117.427 171.873 117.426 171.834 117.424 171.796C117.007 168.647 118.28 166.343 119.635 164.907C119.978 164.544 120.326 164.235 120.653 163.975C120.248 161.314 119.983 157.667 119.808 154.573C119.695 152.567 119.617 150.708 119.567 149.351C119.541 148.673 119.523 148.119 119.511 147.733C119.506 147.541 119.501 147.39 119.498 147.288L119.494 147.128Z" fill="black"/>
<path d="M113.37 26.77C116.259 26.77 118.6 24.4285 118.6 21.54C118.6 18.6516 116.259 16.3101 113.37 16.3101C110.482 16.3101 108.14 18.6516 108.14 21.54C108.14 24.4285 110.482 26.77 113.37 26.77Z" fill="black"/>
<path d="M132.72 24.46C135.609 24.46 137.95 22.1184 137.95 19.23C137.95 16.3415 135.609 14 132.72 14C129.832 14 127.49 16.3415 127.49 19.23C127.49 22.1184 129.832 24.46 132.72 24.46Z" fill="black"/>
</svg>
