<svg width="200" height="200" viewBox="0 0 200 200" fill="none" xmlns="http://www.w3.org/2000/svg">
<path fill-rule="evenodd" clip-rule="evenodd" d="M151.947 95.8503C151.982 95.4314 152 95.01 152 94.5863C152 79.2783 128.719 66.8687 100 66.8687C71.2812 66.8687 48 79.2783 48 94.5863C48 95.01 48.0178 95.4314 48.0531 95.8503C48.0178 96.2693 48 96.6907 48 97.1143C48 97.538 48.0178 97.9594 48.0531 98.3783C48.0178 98.7973 48 99.2187 48 99.6423C48 100.066 48.0178 100.487 48.0531 100.906C48.0178 101.325 48 101.747 48 102.17C48 102.594 48.0178 103.015 48.0531 103.434C48.0178 103.853 48 104.275 48 104.698C48 105.122 48.0178 105.543 48.0531 105.962C48.0178 106.381 48 106.803 48 107.226C48 107.65 48.0178 108.071 48.0531 108.49C48.0178 108.909 48 109.331 48 109.754C48 110.178 48.0178 110.599 48.0531 111.018C48.0178 111.437 48 111.859 48 112.282C48 127.59 71.2812 140 100 140C128.719 140 152 127.59 152 112.282C152 111.859 151.982 111.437 151.947 111.018C151.982 110.599 152 110.178 152 109.754C152 109.331 151.982 108.909 151.947 108.49C151.982 108.071 152 107.65 152 107.226C152 106.803 151.982 106.381 151.947 105.962C151.982 105.543 152 105.122 152 104.698C152 104.275 151.982 103.853 151.947 103.434C151.982 103.015 152 102.594 152 102.17C152 101.747 151.982 101.325 151.947 100.906C151.982 100.487 152 100.066 152 99.6423C152 99.2187 151.982 98.7973 151.947 98.3783C151.982 97.9594 152 97.538 152 97.1143C152 96.6907 151.982 96.2693 151.947 95.8503Z" fill="#111827"/>
<path d="M150.951 94.6128C150.951 101.698 145.551 108.357 136.276 113.305C127.046 118.23 114.222 121.308 100 121.308C85.778 121.308 72.9544 118.23 63.7243 113.305C54.4492 108.357 49.0492 101.698 49.0492 94.6128C49.0492 87.5273 54.4492 80.869 63.7243 75.9204C72.9544 70.9957 85.778 67.9178 100 67.9178C114.222 67.9178 127.046 70.9957 136.276 75.9204C145.551 80.869 150.951 87.5273 150.951 94.6128Z" fill="white" stroke="#111827" stroke-width="2.09836"/>
<path fill-rule="evenodd" clip-rule="evenodd" d="M138.723 81.6162C138.749 81.3037 138.762 80.9894 138.762 80.6734C138.762 69.2558 121.407 60 99.9987 60C78.5902 60 61.2351 69.2558 61.2351 80.6734C61.2351 80.9894 61.2484 81.3037 61.2747 81.6162C61.2484 81.9287 61.2351 82.243 61.2351 82.5589C61.2351 82.8749 61.2484 83.1892 61.2747 83.5017C61.2484 83.8142 61.2351 84.1285 61.2351 84.4445C61.2351 84.7604 61.2484 85.0747 61.2747 85.3872C61.2484 85.6997 61.2351 86.014 61.2351 86.33C61.2351 86.6459 61.2484 86.9602 61.2747 87.2727C61.2484 87.5852 61.2351 87.8995 61.2351 88.2155C61.2351 88.5315 61.2484 88.8458 61.2747 89.1583C61.2484 89.4708 61.2351 89.7851 61.2351 90.101C61.2351 90.417 61.2484 90.7313 61.2747 91.0438C61.2484 91.3563 61.2351 91.6706 61.2351 91.9866C61.2351 92.3025 61.2484 92.6168 61.2747 92.9293C61.2484 93.2418 61.2351 93.5561 61.2351 93.8721C61.2351 105.29 78.5902 114.545 99.9987 114.545C121.407 114.545 138.762 105.29 138.762 93.8721C138.762 93.5561 138.749 93.2418 138.723 92.9293C138.749 92.6168 138.762 92.3025 138.762 91.9866C138.762 91.6706 138.749 91.3563 138.723 91.0438C138.749 90.7313 138.762 90.417 138.762 90.101C138.762 89.7851 138.749 89.4708 138.723 89.1583C138.749 88.8458 138.762 88.5315 138.762 88.2155C138.762 87.8995 138.749 87.5852 138.723 87.2727C138.749 86.9602 138.762 86.6459 138.762 86.33C138.762 86.014 138.749 85.6997 138.723 85.3872C138.749 85.0747 138.762 84.7604 138.762 84.4445C138.762 84.1285 138.749 83.8142 138.723 83.5017C138.749 83.1892 138.762 82.8749 138.762 82.5589C138.762 82.243 138.749 81.9287 138.723 81.6162Z" fill="#111827"/>
<path d="M137.713 80.6734C137.713 85.8061 133.795 90.6968 126.915 94.366C120.08 98.0111 110.566 100.298 99.9987 100.298C89.4318 100.298 79.9173 98.0111 73.0824 94.366C66.2025 90.6968 62.2843 85.8061 62.2843 80.6734C62.2843 75.5407 66.2025 70.6501 73.0824 66.9809C79.9173 63.3357 89.4318 61.0492 99.9987 61.0492C110.566 61.0492 120.08 63.3357 126.915 66.9809C133.795 70.6501 137.713 75.5407 137.713 80.6734Z" fill="white" stroke="#111827" stroke-width="2.09836"/>
</svg>
