<?xml version="1.0"?>
<svg xmlns="http://www.w3.org/2000/svg" viewBox="0 0 200.7050934 46.7963982" width="512" height="119">
<path fill="#BF9836" d="M184.2050934,32.9995003c-9.097702,0-16.5-7.4022999-16.5-16.4995003V0h33v16.5 C200.7050934,25.5972004,193.3027039,32.9995003,184.2050934,32.9995003z M170.7050934,3v13.5 c0,7.4433994,6.0547028,13.4995003,13.5,13.4995003c7.4432983,0,13.5-6.0561008,13.5-13.4995003V3H170.7050934z "/>
<polygon fill="#BF9836" points="191.7050934,10 176.7050934,10 176.7050934,13 178.7558899,13 177.7167969,21.3125 180.7401886,21.3125 181.7792969,13 186.6308899,13 187.6698914,21.3125 190.6933899,21.3125 189.6542969,13 191.7050934,13 "/>
<path fill="#2D2E30" d="M17.9990005,4.1992002c9,0,13.799799,4.1992002,13.799799,10.1991997 c0,4.8007994-3.5995998,8.4003992-8.3993988,9.7202997v0.1191006c7.4989986,1.8593998,10.1991978,6.2402,10.1991978,10.8593979 c0,6.5996017-4.799799,11.0996017-13.7987976,11.0996017H0v-1.1991997c3.5996001,0,3.5996001,0,3.5996001-3.9004021V9.2988005 c0-3.9004006,0-3.9004006-3.5996001-3.9004006V4.1992002H17.9990005z M14.3993998,23.9981003 c5.4004011,0,7.500001-3.5997009,7.500001-9.2989006c0-5.0995998-2.0995998-9.3008003-5.700201-9.3008003h-3v18.5997009 H14.3993998z M13.1991997,25.1987v19.7989006h4.200201c4.799799,0,6.299799-4.8008003,6.299799-10.1992989 c0-5.400301-2.7001991-9.5996017-8.0995998-9.5996017H13.1991997z"/>
<path fill="#2D2E30" d="M36.3594017,31.4976006c0-10.198801,8.3993988-15.8980007,15.899395-15.8980007 c6.8993988,0,13.1387024,3,11.3389015,13.1987H45.8389015c0,8.099699,4.6200981,11.099699,9.1190948,11.099699 c5.4004021,0,7.7998009-3,9-5.0996971h0.5995979c-1.1991959,6-5.3993988,11.9980965-12.899395,11.9980965 C41.7588005,46.7963982,36.3594017,39.5971985,36.3594017,31.4976006z M45.8389015,27.5972004h8.819294 c1.020504-4.0776997,1.8604012-10.7984009-2.7001991-10.7984009 C48.5391006,16.7987995,46.0791016,19.9785004,45.8389015,27.5972004z"/>
<path fill="#2D2E30" d="M89.1581955,23.9981003c0-2.6993008-1.7997971-3.5997009-3.5996017-3.5997009 c-1.8603973,0-3.9003983,0.9004002-6,2.7012005v17.9975986c0,3.9004021,0,3.9004021,3.5996017,3.9004021v1.1991997H66.3593979 v-1.1991997c3.5996017,0,3.5996017,0,3.5996017-3.9004021V22.1991997c0-3,0-3-3-3v-0.9004002l12.2997971-2.6991997h0.4794998 l-0.1797028,6.2987995h0.1201096c2.2792969-3.9002991,6.5995941-6.2987995,10.9794922-6.2987995 c4.0195007,0,8.0996017,2.3985004,8.0996017,8.9976006v16.4999981c0,3.9004021,0,3.9004021,3.5996017,3.9004021v1.1991997 H86.7587967v-1.1991997c2.3993988,0,2.3993988,0,2.3993988-3.9004021V23.9981003z"/>
<path fill="#2D2E30" d="M121.1377029,39.8979988c5.4003906,0,7.7997971-3,8.9999924-5.0996971h0.5995941 c-1.1991882,6-5.3993912,11.9980965-12.8993912,11.9980965c-9.8993988,0-15.2988052-7.1991997-15.2988052-15.2987976 c0-10.198801,8.3994064-15.8980007,15.8994064-15.8980007c7.4989929,0,11.458992,3.6602001,11.458992,7.5 c0,2.0991001-0.9599915,4.1987-4.5595932,4.1987c-3,0-3.660202-1.8593006-3.5996017-3.1210003 c0.2997971-4.3785,0-7.3785-3.6005936-7.3785c-4.1992035,0-6.1191101,5.580101-6.1191101,12.5386009 C112.0185928,37.1968002,116.6387024,39.8979988,121.1377029,39.8979988z"/>
<path fill="#2D2E30" d="M154.0175934,23.9981003c0-2.6993008-1.7998047-3.5997009-3.5995941-3.5997009 c-1.8603973,0-3.9004059,0.9004002-6,2.7012005v17.9975986c0,3.9004021,0,3.9004021,3.5995941,3.9004021v1.1991997h-16.7988892 v-1.1991997c3.5996857,0,3.5996857,0,3.5996857-3.9004021V6.5995998c0-2.9999998,0-2.9999998-3-2.9999998V2.6991999 L143.9384918,0h0.4795074v21.8983994h0.1201019c2.2792969-3.9002991,6.5995941-6.2987995,10.9794922-6.2987995 c4.0195007,0,8.0995941,2.3985004,8.0995941,8.9976006v16.4999981c0,3.9004021,0,3.9004021,3.5996094,3.9004021v1.1991997 h-15.5986023v-1.1991997c2.3993988,0,2.3993988,0,2.3993988-3.9004021V23.9981003z"/>
</svg>