<?xml version="1.0" encoding="utf-8"?>
<!-- Generator: Adobe Illustrator 27.0.1, SVG Export Plug-In . SVG Version: 6.00 Build 0)  -->
<svg version="1.1" id="Layer_1" xmlns="http://www.w3.org/2000/svg" xmlns:xlink="http://www.w3.org/1999/xlink" x="0px" y="0px"
	 viewBox="0 0 303 303" style="enable-background:new 0 0 303 303;" xml:space="preserve">
<style type="text/css">
	.st0{fill:#22BA50;}
</style>
<path class="st0" d="M74.7,84.1c1.1-0.1,2.1,0.7,2.1,1.8v31.7c0,33.8,1.7,91,60.4,91c36.2,0,60.5-29,60.5-63s-29.2-59.2-65.7-59.2
	c-4.5,0-8.1,3.6-8.1,8.1v22c0,0,8.7,0,10.6,0c24.8,0,33.2,18.6,33.2,29.1c0,19.7-13,32.6-29.2,32.6c-20.2,0-31.9-16.1-31.9-32.8
	V75.1c0-9.3,7.6-16.9,16.9-16.9c103.7,0,129.3,39.6,129.3,66.1c0,67.3-77.7,120.4-128.3,120.4c-61.5,0-74.5-57.6-74.5-99.3
	C50.2,98,64.3,85.5,74.7,84.1z"/>
</svg>
