<svg width="16" height="16" viewBox="0 0 16 16" fill="none" xmlns="http://www.w3.org/2000/svg">
<rect width="16" height="16" rx="4" fill="#EB7100"/>
<path d="M10.7944 5.43905C10.3179 5.12373 9.76487 4.94342 9.19407 4.9173C8.62327 4.89118 8.05606 5.02022 7.55274 5.2907C7.04942 5.56118 6.6288 5.963 6.33559 6.45343C6.04238 6.94386 5.88755 7.50458 5.88755 8.07597C5.88755 8.64737 6.04238 9.20809 6.33559 9.69852C6.6288 10.1889 7.04942 10.5908 7.55274 10.8612C8.05606 11.1317 8.62327 11.2608 9.19407 11.2346C9.76487 11.2085 10.3179 11.0282 10.7944 10.7129L11.1496 10.4795L12.0672 12.0552L11.7591 12.267C11.103 12.7151 10.3508 13.0028 9.56307 13.1071C8.77539 13.2114 7.97423 13.1293 7.22408 12.8674C6.47392 12.6055 5.79574 12.1711 5.24411 11.5993C4.69247 11.0274 4.2828 10.334 4.04807 9.57493C3.81334 8.81584 3.76011 8.01224 3.89265 7.22882C4.0252 6.4454 4.33982 5.70404 4.8112 5.06442C5.28258 4.42479 5.89754 3.90477 6.60659 3.54621C7.31563 3.18765 8.09896 3.00056 8.89352 3.00001C9.91607 2.99839 10.915 3.30765 11.7577 3.88676L12.0672 4.09959L11.1496 5.67241L10.7944 5.43905Z" fill="white"/>
</svg>
