<?xml version="1.0" encoding="utf-8"?>
<svg viewBox="0 0 45 45" xmlns="http://www.w3.org/2000/svg">
  <g transform="translate(7.136 -.188)">
    <clipPath id="a">
      <path transform="matrix(1 0 0 -1 0 45)" d="M25.773 12.567c-7.338 5.595-6.523 10.45-6.616 12.447h4.474c.523.971.788 1.871.788 2.993l-5.072 3.341a7.011 7.011 0 0 1 2.912 5.691 7.029 7.029 0 0 1-4.393 6.517c-.814.33-6.56-18.542-6.56-18.542a41.217 41.217 0 0 1-.023-1.679c0-1.874 4.607-1.59 4.362-3.247-.368-2.476-.445-4.356-2.577-10.306-1.44-4.015-11.035 0-11.72-1.97C.87 6.44.616 4.901.616 3.245c0-.177.386-2.833 14.617-2.833 14.23 0 14.614 2.656 14.614 2.833 0 4.036-1.507 7.363-4.075 9.321" fill-rule="evenodd"/>
    </clipPath>
    <g clip-path="url(#a)">
      <path d="M -4.383 -3.56 L 34.847 -3.56 L 34.847 49.587 L -4.383 49.587 L -4.383 -3.56 Z" fill="#5D9948"/>
    </g>
    <clipPath id="c">
      <path transform="matrix(1 0 0 -1 0 45)" d="M14.974 10.057c.79 3.6 1.493 7.437 1.92 9.734.532 2.868-3.821 3.38-5.608 3.644-.082-2.448-.765-6.424-6.593-10.867-1.572-1.2-2.743-2.91-3.418-4.982C2.848 6.819 4.949 6.36 8.184 6.36c2.077 0 5.923-.25 6.79 3.696" fill-rule="evenodd"/>
    </clipPath>
    <g clip-path="url(#c)">
      <path d="M -3.725 16.565 L 21.938 16.565 L 21.938 43.643 L -3.725 43.643 L -3.725 16.565 Z" fill="#81B64C"/>
    </g>
    <clipPath id="e">
      <path transform="matrix(1 0 0 -1 0 45)" d="M18.03 25.014c.688 1.79.6 2.993.6 2.993l-2.873 3.341c3.054 1.304 4.893 3.755 4.893 6.61a7.013 7.013 0 0 1-2.766 5.59 7.027 7.027 0 0 1-9.679-6.508 7.014 7.014 0 0 1 2.912-5.692l-5.072-3.34c0-1.122.265-2.022.79-2.994H18.03Z" fill-rule="evenodd"/>
    </clipPath>
    <g clip-path="url(#e)">
      <path d="M 1.045 -4.066 L 25.65 -4.066 L 25.65 24.986 L 1.045 24.986 L 1.045 -4.066 Z" fill="#81B64C"/>
    </g>
    <clipPath id="g">
      <path transform="matrix(1 0 0 -1 0 45)" d="M14.828 42.633c4.053-.629-1.863-5.33-3.73-5.108-1.777.21-.069 5.7 3.73 5.108" fill-rule="evenodd"/>
    </clipPath>
    <g clip-path="url(#g)">
      <path d="M 5.393 -2.678 L 21.218 -2.678 L 21.218 12.482 L 5.393 12.482 L 5.393 -2.678 Z" fill="#B2E068"/>
    </g>
  </g>
</svg>
