<svg version="1.1" id="Layer_1" xmlns:x="ns_extend;" xmlns:i="ns_ai;" xmlns:graph="ns_graphs;" xmlns="http://www.w3.org/2000/svg" xmlns:xlink="http://www.w3.org/1999/xlink" x="0px" y="0px" viewBox="0 0 73 51.4" style="enable-background:new 0 0 73 51.4;" xml:space="preserve">
 <style type="text/css">
  .st0{fill:#393C4B;}
	.st1{fill:#FFE400;}
 </style>
 <metadata>
  <sfw xmlns="ns_sfw;">
   <slices>
   </slices>
   <sliceSourceBounds bottomLeftOrigin="true" height="51.4" width="73" x="264.5" y="273.3">
   </sliceSourceBounds>
  </sfw>
 </metadata>
 <g>
  <path class="st0" d="M25,51.4c-13.8,0-25-11.5-25-25.7S11.2,0,25,0c5.2,0,10.2,1.6,14.4,4.7c0.3,0.2,0.5,0.5,0.5,0.9
		c0,0.4,0,0.7-0.3,1c-1.5,1.9-3,3.8-4.4,5.5c-0.2,0.3-0.6,0.5-1,0.5c-0.3,0-0.6-0.1-0.8-0.3c-2.5-2-5.4-3-8.4-3
		c-8.1,0-14.7,7.5-14.7,16.8S16.9,42.8,25,42.8c3.1,0,6.2-1.1,8.7-3.2c0.2-0.2,0.5-0.3,0.8-0.3c0.4,0,0.8,0.2,1.1,0.5
		c1.3,1.6,2.7,3.4,4.1,5.1c0.2,0.3,0.3,0.6,0.3,1c0,0.4-0.2,0.7-0.5,0.9C35.2,49.8,30.2,51.4,25,51.4">
  </path>
  <path class="st1" d="M71.4,35.6H54.1c-0.7,0-1.3,0.4-1.6,1.1l-2.5,6.6c-0.2,0.5-0.1,1.1,0.2,1.5c0.3,0.4,0.8,0.7,1.4,0.7h19.7
		c0.2,0,0.3,0,0.5-0.1c0.6-0.2,1.1-0.8,1.1-1.5v-6.8C73,36.3,72.3,35.6,71.4,35.6z">
  </path>
 </g>
</svg>