<svg id="f9cfc39e-2142-4885-8f8c-8e180656b41e" data-name="Logos" xmlns="http://www.w3.org/2000/svg"
     xmlns:xlink="http://www.w3.org/1999/xlink" viewBox="0 0 300 300">
    <defs>
        <style>
            .f962d629-d580-4d43-b514-40681696cac8{fill:url(#ba0da7d0-59e9-43b8-9968-8aa919b58d00);}.e7fdc75d-d620-422d-b244-57a281e93591{fill:url(#f217685d-438d-4215-a881-b2b158d7f15d);}.b5cdf8e9-e874-41cd-b213-c549edb362c4{fill:#2680ff;}.b19f0c36-967a-458b-945a-bd20983f7d0d{mask:url(#ff76650a-4686-4334-baf0-75125ace818b);}.eed396d4-d795-47f8-ad77-e2d366ec4fb9{fill:#0052c6;}
        </style>
        <linearGradient id="ba0da7d0-59e9-43b8-9968-8aa919b58d00" x1="225.67" y1="400.98" x2="120.5" y2="461.41"
                        gradientTransform="matrix(1, 0, 0, -1, 0, 642)" gradientUnits="userSpaceOnUse">
            <stop offset="0.18" stop-color="#fff"/>
            <stop offset="1"/>
        </linearGradient>
        <linearGradient id="f217685d-438d-4215-a881-b2b158d7f15d" x1="3038.53" y1="2207.82" x2="2933.33" y2="2268.28"
                        gradientTransform="matrix(-1, 0, 0, 1, 3112.83, -2148.71)"
                        xlink:href="#ba0da7d0-59e9-43b8-9968-8aa919b58d00"/>
        <mask id="ff76650a-4686-4334-baf0-75125ace818b" x="65.97" y="69.25" width="168.07" height="161.49"
              maskUnits="userSpaceOnUse">
            <path class="f962d629-d580-4d43-b514-40681696cac8"
                  d="M72.06,192.54c-1.74,2.83-3.69,6.12-5.35,8.74a5.35,5.35,0,0,0,1.79,7.27L103.27,230a5.35,5.35,0,0,0,7.36-1.74l.05-.08c1.39-2.33,3.18-5.35,5.13-8.58,13.77-22.73,27.62-20,52.6-8l34.47,16.4a5.36,5.36,0,0,0,7.13-2.53,1,1,0,0,1,.07-.15l16.55-37.44a5.34,5.34,0,0,0-2.68-7c-7.27-3.43-21.74-10.25-34.76-16.53C142.34,141.51,102.52,143,72.06,192.54Z"/>
            <path class="e7fdc75d-d620-422d-b244-57a281e93591"
                  d="M227.94,107.58c1.74-2.84,3.69-6.13,5.35-8.75a5.36,5.36,0,0,0-1.79-7.27L196.73,70.17a5.34,5.34,0,0,0-7.42,1.44c-.07.11-.14.21-.2.32-1.39,2.33-3.18,5.35-5.13,8.59-13.78,22.73-27.63,19.94-52.61,8L97,72.23a5.35,5.35,0,0,0-7.13,2.53l-.06.14L73.26,112.34a5.35,5.35,0,0,0,2.68,7c7.27,3.43,21.74,10.25,34.76,16.53C157.66,158.6,197.48,157.08,227.94,107.58Z"/>
        </mask>
    </defs>
    <title>techservicelogo_</title>
    <g id="a95756e7-bc59-415d-b736-749aada46d3e" data-name="Confluence">
        <path id="b00afa81-3d78-45dc-a19a-7aebabef9ed4" data-name="colorgroup3"
              class="b5cdf8e9-e874-41cd-b213-c549edb362c4"
              d="M189.19,164.27c13,6.28,27.49,13.1,34.76,16.53a5.34,5.34,0,0,1,2.68,7l-16.55,37.44a1,1,0,0,0-.07.15,5.36,5.36,0,0,1-7.13,2.53l-34.47-16.4c-25-11.92-38.83-14.7-52.6,8-2,3.23-3.74,6.25-5.13,8.58l-.05.08a5.35,5.35,0,0,1-7.36,1.74L68.5,208.55a5.35,5.35,0,0,1-1.79-7.27c1.66-2.62,3.61-5.91,5.35-8.74C102.52,143,142.34,141.51,189.19,164.27Zm38.75-56.69c1.74-2.84,3.69-6.13,5.35-8.75a5.36,5.36,0,0,0-1.79-7.27L196.73,70.17a5.34,5.34,0,0,0-7.42,1.44c-.07.11-.14.21-.2.32-1.39,2.33-3.18,5.35-5.13,8.59-13.78,22.73-27.63,19.94-52.61,8L97,72.23a5.35,5.35,0,0,0-7.13,2.53l-.06.14L73.26,112.34a5.35,5.35,0,0,0,2.68,7c7.27,3.43,21.74,10.25,34.76,16.53C157.66,158.6,197.48,157.08,227.94,107.58Z"/>
        <g class="b19f0c36-967a-458b-945a-bd20983f7d0d">
            <path id="e71ad23c-7599-45aa-9c53-071aedf9e74f" data-name="colorgroup1"
                  class="eed396d4-d795-47f8-ad77-e2d366ec4fb9"
                  d="M189.19,164.27c13,6.28,27.49,13.1,34.76,16.53a5.34,5.34,0,0,1,2.68,7l-16.55,37.44a1,1,0,0,0-.07.15,5.36,5.36,0,0,1-7.13,2.53l-34.47-16.4c-25-11.92-38.83-14.7-52.6,8-2,3.23-3.74,6.25-5.13,8.58l-.05.08a5.35,5.35,0,0,1-7.36,1.74L68.5,208.55a5.35,5.35,0,0,1-1.79-7.27c1.66-2.62,3.61-5.91,5.35-8.74C102.52,143,142.34,141.51,189.19,164.27Zm38.75-56.69c1.74-2.84,3.69-6.13,5.35-8.75a5.36,5.36,0,0,0-1.79-7.27L196.73,70.17a5.34,5.34,0,0,0-7.42,1.44c-.07.11-.14.21-.2.32-1.39,2.33-3.18,5.35-5.13,8.59-13.78,22.73-27.63,19.94-52.61,8L97,72.23a5.35,5.35,0,0,0-7.13,2.53l-.06.14L73.26,112.34a5.35,5.35,0,0,0,2.68,7c7.27,3.43,21.74,10.25,34.76,16.53C157.66,158.6,197.48,157.08,227.94,107.58Z"/>
        </g>
    </g>
</svg>