<svg fill="none" xmlns="http://www.w3.org/2000/svg" viewBox="0 0 256 256"><path d="M0 94.8c0-32.4715 0-48.7073 6.1184-61.1964A59.9997 59.9997 0 0133.6035 6.1183C46.0927 0 62.3285 0 94.8 0h66.4c32.472 0 48.707 0 61.196 6.1184a60.0002 60.0002 0 0127.486 27.4852C256 46.0927 256 62.3285 256 94.8v66.4c0 32.472 0 48.707-6.118 61.196a60.0006 60.0006 0 01-27.486 27.486C209.907 256 193.672 256 161.2 256H94.8c-32.4715 0-48.7073 0-61.1964-6.118a60.0002 60.0002 0 01-27.4853-27.486C0 209.907 0 193.672 0 161.2V94.8z" fill="#EC272D"/><path d="M98.4064 48.3535v53.6015c-6.8183-8.723-18.515-13.3455-29.3713-13.3455-10.5421-.0011-20.8477 3.1074-29.6137 8.9325-8.7659 5.825-15.5985 14.105-19.6335 23.793-4.035 9.687-5.0914 20.348-3.0354 30.633s7.1319 19.732 14.5859 27.147c7.4539 7.416 16.9511 12.466 27.2906 14.512 10.3394 2.046 21.0566.997 30.7963-3.016s18.0647-10.808 23.9217-19.527c5.857-8.719 8.983-18.97 8.983-29.456V48.3535H98.4064zM69.0351 171.427c-5.9249-.001-11.7164-1.75-16.6422-5.025-4.9258-3.275-8.7647-7.929-11.0313-13.374a29.6545 29.6545 0 01-1.7024-17.217c1.1565-5.78 4.0102-11.09 8.2001-15.256 4.1899-4.167 9.5279-7.005 15.339-8.154a30.1055 30.1055 0 0117.3081 1.696c5.4737 2.256 10.1522 6.075 13.4438 10.976 3.2915 4.9 5.0484 10.661 5.0484 16.555 0 3.914-.7751 7.789-2.281 11.405a29.7817 29.7817 0 01-6.4955 9.668 29.9671 29.9671 0 01-9.7209 6.459 30.0768 30.0768 0 01-11.4661 2.267zM216.953 151.758c-2.19 7.904-8.288 13.662-18.151 17.738-13.02 5.381-26.175 2.541-34.689-9.597l74.718-30.882a53.2975 53.2975 0 00-22.513-32.1678 53.3061 53.3061 0 00-71.94 12.4528 53.3023 53.3023 0 00-10.389 37.864c1.482 13.484 8.048 25.895 18.363 34.705a53.3029 53.3029 0 0037.149 12.715 53.312 53.312 0 0035.778-16.176c9.433-9.748 14.795-22.726 14.992-36.289l-23.318 9.637zm-41.525-38.808c12.093-5.002 24.672-3.015 33.311 7.802l-51.345 21.222c-1.49-13.549 5.567-23.864 18.034-29.024z" fill="#fff"/></svg>