<svg version="1.0" xmlns="http://www.w3.org/2000/svg"
     width="1950.000000pt" height="2048.000000pt" viewBox="0 0 1950.000000 2048.000000"
     preserveAspectRatio="xMidYMid meet">

    <g transform="translate(0.000000,2048.000000) scale(0.100000,-0.100000)"
       fill="#1478D8" stroke="none">
        <path d="M9035 20012 c-94 -5 -358 -43 -544 -78 -383 -71 -779 -183 -1096
-309 -269 -106 -662 -311 -965 -503 -374 -236 -490 -308 -636 -392 -509 -295
-956 -486 -1562 -671 -849 -257 -2141 -430 -3478 -465 l-262 -7 -7 -621 c-10
-863 1 -4922 14 -5116 5 -85 20 -257 32 -382 l23 -228 4323 0 4323 0 0 4384 0
4384 -57 4 c-32 1 -80 2 -108 0z"/>
        <path d="M10416 20004 c-15 -14 -16 -426 -16 -4390 l0 -4374 663 0 c1184 -1
7080 20 7535 26 l442 6 15 52 c68 244 79 828 72 3844 -3 1328 -7 2415 -9 2417
-2 1 -138 8 -303 14 -2112 80 -3386 345 -4613 960 -320 160 -517 274 -990 570
-386 242 -507 306 -822 438 -505 211 -1029 350 -1613 428 -221 30 -338 33
-361 9z"/>
        <path d="M18715 10060 c-38 -4 -356 -13 -705 -20 -482 -10 -1434 -11 -3940 -6
-1818 3 -3386 9 -3484 13 l-179 6 6 -1849 c4 -1017 10 -3205 14 -4862 l6
-3012 21 6 c64 19 432 225 651 364 253 161 1022 676 1283 859 1095 768 1887
1432 2752 2307 1174 1189 1953 2210 2642 3464 510 928 979 2154 1015 2649 3
52 2 90 -3 89 -5 0 -40 -4 -79 -8z"/>
        <path d="M2960 10040 l-2135 -5 -3 -32 c-4 -45 31 -249 72 -411 181 -717 632
-1759 1129 -2607 448 -766 919 -1413 1552 -2135 956 -1089 2233 -2257 3405
-3112 894 -652 2018 -1368 2149 -1368 l21 0 0 433 c0 237 11 2246 25 4462 14
2217 25 4200 25 4408 l0 377 -2052 -2 c-1129 -2 -3014 -5 -4188 -8z"/>
    </g>
</svg>