<svg xmlns="http://www.w3.org/2000/svg" xmlns:xlink="http://www.w3.org/1999/xlink" width="992px"
  height="200px" viewBox="0 0 992 200" version="1.1" nighteye="disabled">
  <!-- Generator: Sketch 53.2 (72643) - https://sketchapp.com -->
  <title>wordmark v2 - white</title>
  <desc>Created with Sketch.</desc>
  <g id="wordmark-v2---white" stroke="none" stroke-width="1" fill="none" fill-rule="evenodd">
    <g id="Group" transform="translate(-0.000000, 0.000000)">
      <g id="wordmark-white">
        <g id="dochub-brands">
          <path
            d="M116.785018,74.3811936 L116.785018,124.742764 C116.785018,150.620863 102.777149,163.521173 73.3030554,163.521173 L36.9593493,163.521173 L36.9593493,32.8522681 L73.3030554,32.8522681 C77.9083825,32.8522681 82.16831,33.1621854 86.0060824,33.8207598 L86.0060824,1.27943741 C81.8229104,0.427164683 77.409472,0.00102831878 72.7273896,0.00102831878 L0.116732744,0.00102831878 L0.116732744,198.348136 L72.7273896,198.348136 C126.648094,198.348136 153.627635,173.322309 153.627635,123.231917 L153.627635,74.3811936 L116.785018,74.3811936 Z"
            id="Shape" fill="#000000" fill-rule="nonzero" />
          <polygon id="Shape-path" fill="#32A4FA"
            points="152.523875 61.86361 98.1720945 61.86361 98.1720945 7.57919458" />
        </g>
        <g id="Page-1" transform="translate(181.357471, 0.000000)" fill="#000000"
          fill-rule="nonzero">
          <g id="DocHub-WordMark">
            <path
              d="M0.0595330652,126.31329 C0.0595330652,115.216111 1.71484269,105.127767 5.13581589,96.0482569 C8.44643515,86.9687469 13.1916561,79.2343497 19.3714786,72.8450649 C25.5513011,66.567873 33.0553714,61.6357937 41.6629815,58.0488268 C50.2705915,54.5739526 59.9817414,52.892562 70.7964308,52.892562 C81.6111204,52.892562 91.3222701,54.5739526 100.040234,58.0488268 C108.758198,61.6357937 116.262268,66.567873 122.442091,72.8450649 C128.621914,79.2343497 133.367135,86.9687469 136.788108,96.0482569 C140.098727,105.127767 141.754037,115.216111 141.754037,126.31329 C141.754037,137.410468 140.098727,147.498813 136.788108,156.46623 C133.367135,165.433647 128.621914,173.055951 122.442091,179.445236 C116.262268,185.834521 108.758198,190.654507 100.040234,194.129382 C91.3222701,197.492163 81.6111204,199.173554 70.7964308,199.173554 C59.9817414,199.173554 50.2705915,197.492163 41.6629815,194.129382 C33.0553714,190.654507 25.5513011,185.834521 19.3714786,179.445236 C13.1916561,173.055951 8.44643515,165.433647 5.13581589,156.46623 C1.71484269,147.498813 0.0595330652,137.410468 0.0595330652,126.31329 Z M37.6902385,127.376278 C37.6902385,132.868821 38.2420084,138.361364 39.2351942,143.629722 C40.3387338,148.898079 42.1043974,153.718066 44.7528929,157.865497 C47.2910342,162.12502 50.7120075,165.487801 54.9054585,167.953841 C59.0989095,170.531973 64.3959003,171.764993 70.7964308,171.764993 C77.1969615,171.764993 82.4939521,170.531973 86.7977571,167.953841 C91.1015622,165.487801 94.6328894,162.12502 97.1710309,157.865497 C99.7091721,153.718066 101.474836,148.898079 102.578376,143.629722 C103.681915,138.361364 104.123331,132.868821 104.123331,127.376278 C104.123331,121.771643 103.681915,116.2791 102.578376,110.898649 C101.474836,105.518199 99.7091721,100.810305 97.1710309,96.6628747 C94.6328894,92.5154443 91.1015622,89.1526629 86.7977571,86.5745305 C82.4939521,83.9963981 77.1969615,82.6512854 70.7964308,82.6512854 C64.3959003,82.6512854 59.0989095,83.9963981 54.9054585,86.5745305 C50.7120075,89.1526629 47.2910342,92.5154443 44.7528929,96.6628747 C42.1043974,100.810305 40.3387338,105.518199 39.2351942,110.898649 C38.2420084,116.2791 37.6902385,121.771643 37.6902385,127.376278 Z"
              id="Combined-Shape" />
            <path
              d="M259.391374,105.576138 L296.139247,105.576138 C295.69783,96.6087204 293.490751,88.8743232 289.849071,82.260853 C286.097035,75.7594756 281.351814,70.2669325 275.392701,65.8953167 C269.433585,61.5237008 262.812348,58.2730123 255.308277,56.0311579 C247.804207,53.9013964 239.969075,52.892562 231.80288,52.892562 C220.65713,52.892562 210.835624,54.6860454 202.117661,58.4971975 C193.510051,62.3083498 186.226688,67.4646147 180.15722,74.1901777 C174.198105,80.9157405 169.673592,88.9864158 166.583681,98.1780184 C163.49377,107.369621 161.948814,117.457965 161.948814,128.218866 C161.948814,138.531395 163.604124,148.171369 166.914743,156.802508 C170.335716,165.545739 174.970583,173.055951 180.929698,179.333143 C186.999166,185.610335 194.282529,190.430322 202.779785,193.905196 C211.387394,197.492163 220.767482,199.173554 231.030401,199.173554 C249.238808,199.173554 264.136594,194.353567 275.834115,184.713594 C287.421284,174.961528 294.483938,160.949938 297.022079,142.45464 L260.71562,142.45464 C259.501728,151.085779 256.411816,157.923435 251.556241,162.967607 C246.700666,168.123872 239.748366,170.702004 230.809693,170.702004 C224.960934,170.702004 219.995005,169.356892 215.911907,166.666667 C211.82881,163.976442 208.628545,160.501567 206.311112,156.242044 C203.883324,152.094614 202.117661,147.38672 201.124475,142.118362 C200.020935,136.962097 199.469165,131.805833 199.469165,126.873753 C199.469165,121.605396 200.020935,116.337038 201.124475,111.06868 C202.117661,105.800323 203.993678,100.980336 206.53182,96.6087204 C209.069961,92.1250117 212.380581,88.5380449 216.463677,85.8478199 C220.546775,83.045502 225.512704,81.5882966 231.582172,81.5882966 C247.583499,81.5882966 256.853232,89.6589722 259.391374,105.576138 L259.391374,105.576138 Z"
              id="ocHub-path" />
            <polygon id="ocHub-path"
              points="328.182395 0 328.182395 198.347107 367.787237 198.347107 367.787237 112.828722 440.887662 112.828722 440.887662 198.347107 480.597837 198.347107 480.597837 0 440.887662 0 440.887662 76.1449223 367.787237 76.1449223 367.787237 0" />
            <g id="Group-2" transform="translate(508.419798, 52.892562)">
              <path
                d="M128.452027,142.715968 L128.452027,0 L90.821322,0 L90.821322,74.8655076 C90.821322,89.3556058 88.5038886,99.8206768 83.9793761,106.14572 C79.3445094,112.470763 71.9507932,115.690784 61.6878733,115.690784 C52.7492002,115.690784 46.4590246,112.815765 42.9276966,106.950725 C39.3963706,101.200686 37.6307055,92.345626 37.6307055,80.6155466 L37.6307055,0 L5.68434189e-14,0 L5.68434189e-14,87.7455949 C5.68434189e-14,96.600655 0.772478469,104.650709 2.20708134,111.895759 C3.75203619,119.255809 6.40053171,125.35085 10.0422117,130.410884 C13.7942479,135.470918 18.8705308,139.380945 25.2710605,142.140964 C31.7819462,144.900982 39.9481388,146.280992 50.1007047,146.280992 C58.0461912,146.280992 65.7709696,144.440979 73.385394,140.760954 C80.9998184,137.080929 87.1796419,131.100889 91.9248626,122.820833 L92.697339,122.820833 L92.697339,142.715968 L128.452027,142.715968 Z"
                id="ocHub-path" />
              <rect id="Rectangle" x="92.0409131" y="0" width="36.3636364" height="145.454545" />
            </g>
            <path
              d="M709.090909,70.9275617 L709.635591,70.9275617 C714.160104,63.6529399 720.450279,58.4243056 728.285412,55.0143267 C736.120544,51.6043478 744.286739,50.0130243 752.783994,50.0130243 C759.625942,50.0130243 766.467888,51.3770158 773.199479,54.3323308 C779.931073,57.287646 785.890187,61.7206186 791.297532,67.7449147 C796.704877,73.6555447 801.119035,81.3848303 804.429655,90.7054394 C807.740273,100.139714 809.505938,111.278979 809.505938,124.123233 C809.505938,137.081153 807.740273,148.220417 804.429655,157.541026 C801.119035,166.975301 796.704877,174.590921 791.297532,180.615217 C785.890187,186.639513 779.931073,191.072486 773.199479,194.027801 C766.467888,196.86945 759.625942,198.347107 752.783994,198.347107 C742.741782,198.347107 733.692757,196.755784 725.74727,193.459471 C718.625991,190.505094 713.100355,185.724571 709.090909,179.199737 L709.090909,198.347107 L671.07438,198.347107 L671.07438,0 L709.090909,0 L709.090909,70.9275617 Z M709.090909,137.661749 C709.298132,138.716154 709.528341,139.763015 709.780682,140.801527 C711.088456,146.183702 713.228452,150.893105 716.081782,155.041864 C718.935111,159.190623 722.501772,162.442354 726.900654,164.797055 C731.299537,167.263885 736.411751,168.4973 742.237298,168.4973 C748.419509,168.4973 753.531723,167.263885 757.811718,164.797055 C762.09171,162.442354 765.658372,159.190623 768.511701,155.041864 C771.36503,150.893105 773.505027,146.183702 774.812801,140.801527 C776.120578,135.419353 776.833911,129.812921 776.833911,124.094361 C776.833911,118.151543 776.120578,112.545112 774.812801,107.162937 C773.505027,101.780763 771.36503,96.9592317 768.511701,92.8104722 C765.658372,88.7738414 762.09171,85.4099824 757.811718,83.0552811 C753.531723,80.588451 748.419509,79.355036 742.237298,79.355036 C736.411751,79.355036 731.299537,80.588451 726.900654,83.0552811 C722.501772,85.4099824 718.935111,88.7738414 716.081782,92.8104722 C713.228452,96.9592317 711.088456,101.780763 709.780682,107.162937 C709.528341,108.201449 709.298132,109.248311 709.090909,110.304327 L709.090909,137.661751 Z"
              id="Combined-Shape" />
          </g>
        </g>
      </g>
    </g>
  </g>
</svg>