<svg xmlns="http://www.w3.org/2000/svg" viewBox="0 0 180.01 55">
  <g data-name="Layer 2">
    <g data-name="Layer 1">
      <path class="letter"
        d="M87.66,42.37H82.81a.87.87,0,0,1-.87-.87V39.87h-.08c-.58,1-2.25,3.25-6.93,3.25-7,0-11.6-5.42-11.6-12.39,0-7.84,5.59-12.31,11.47-12.31a8.88,8.88,0,0,1,6.8,2.75V12.37a.87.87,0,0,1,.87-.87h5.19a.87.87,0,0,1,.87.87V41.5A.87.87,0,0,1,87.66,42.37Zm-11.6-5.72a5.77,5.77,0,0,0,5.92-6,5.86,5.86,0,0,0-11.72,0A5.68,5.68,0,0,0,76.06,36.66Z"
        style="fill:#fff"></path>
      <path class="letter"
        d="M103.29,18.47a12.09,12.09,0,0,1,12.47,12.31,12.48,12.48,0,0,1-24.95,0A12.09,12.09,0,0,1,103.29,18.47Zm0,18.15a5.64,5.64,0,0,0,5.55-5.84,5.56,5.56,0,1,0-11.1,0A5.64,5.64,0,0,0,103.29,36.62Z"
        style="fill:#fff"></path>
      <path class="letter"
        d="M118.92,19.22h4.73a.87.87,0,0,1,.87.87v1.59h.08c.71-1.13,2.17-3.25,6.3-3.25a10,10,0,0,1,5.92,2c1.25,1.08,2.67,2.92,2.67,7.47V41.5a.87.87,0,0,1-.87.87h-5.19a.87.87,0,0,1-.87-.87V29.73c0-1.63,0-4.8-3.63-4.8-4,0-4,3.42-4,4.84V41.5a.87.87,0,0,1-.87.87h-5.19a.87.87,0,0,1-.87-.87V20.09A.87.87,0,0,1,118.92,19.22Z"
        style="fill:#fff"></path>
      <path class="letter"
        d="M162.82,42.37H158a.87.87,0,0,1-.87-.87V39.91h-.08c-1.42,3-4.26,3.21-6,3.21-1.42,0-4.76-.33-6.8-2.92-1.84-2.29-2.09-4-2.09-7.13v-13a.87.87,0,0,1,.87-.87h5.19a.87.87,0,0,1,.87.87V32c0,1.59,0,4.63,3.71,4.63,2,0,4-1,4-4.71V20.09a.87.87,0,0,1,.87-.87h5.19a.87.87,0,0,1,.87.87V41.5A.87.87,0,0,1,162.82,42.37Z"
        style="fill:#fff"></path>
      <path class="letter"
        d="M177.27,36.66c-3.69,0-3.71-3-3.71-4.61V26.51h5.58a.87.87,0,0,0,.87-.87V20.09a.87.87,0,0,0-.87-.87h-5.58V12.37a.87.87,0,0,0-.87-.87h-5.19a.87.87,0,0,0-.87.87v6.85h0V33.07c0,3.17.25,4.84,2.09,7.13,2,2.59,5.38,2.92,6.8,2.92a8.46,8.46,0,0,0,3.21-.53.86.86,0,0,0,.52-.8V37.42a.87.87,0,0,0-1-.85A4.92,4.92,0,0,1,177.27,36.66Z"
        style="fill:#fff"></path>
      <circle cx="27.5" cy="27.5" r="27.5" style="fill:#380089"></circle>
      <circle cx="27.5" cy="27.68" r="22.01" style="fill:#ff90ff"></circle>
      <path
        d="M41.68,30.24a2.78,2.78,0,0,1-2.78-2.78V19.59a2.78,2.78,0,1,1,5.57,0v7.87A2.78,2.78,0,0,1,41.68,30.24Z"
        style="fill:#380089"></path>
      <path
        d="M13.32,30.24a2.78,2.78,0,0,1-2.78-2.78V19.59a2.78,2.78,0,1,1,5.57,0v7.87A2.78,2.78,0,0,1,13.32,30.24Z"
        style="fill:#380089"></path>
      <path d="M36.88,27.35a9.38,9.38,0,0,1-18.76,0V24.07H36.88Z" style="fill:#380089"></path>
      <path d="M33.28,27.55a5.78,5.78,0,0,1-11.55,0C21.81,27.53,33.32,27.53,33.28,27.55Z"
        style="fill:#fff"></path>
    </g>
  </g>
</svg>