<?xml version="1.0" encoding="utf-8"?>
<svg xmlns="http://www.w3.org/2000/svg" xmlns:xlink="http://www.w3.org/1999/xlink" width="512" height="512" viewBox="0 0 512 512">
	<style>
		path {
			fill: #000;
		}
		@media ( prefers-color-scheme: dark ) {
			path {
				fill: #fff;
			}
		}
	</style>
	<path d="M244.3,308.6c6.9,0,13.6-1.4,19.9-4.1c3-1.3,6-2.9,8.7-4.8c2.7-1.9,5.3-4,7.6-6.4c4.7-4.8,8.4-10.5,11-16.7 c1.3-3.2,2.3-6.5,3-9.8c1.4-7,1.4-14.1,0-21.1c-1.3-6.7-3.9-13-7.7-18.7c-1.8-2.8-3.9-5.4-6.2-7.8c-2.3-2.4-4.8-4.5-7.6-6.4 c-2.7-1.9-5.6-3.5-8.7-4.8c-6.3-2.7-13.1-4.1-19.9-4.1V60.7c13.3,0,26.5,1.3,39.5,4c25.1,5.1,48.9,15.1,70.1,29.4 C444,154.7,467.6,276.4,406.7,366c-21.3,31.2-51.1,55.7-86,70.5c-11.9,5-24.2,8.8-36.8,11.4c-13,2.7-26.2,4-39.5,4L244.3,308.6z M92.7,451.8V60.2h125.5V148h-0.1V364h0.1v87.9H92.7z"/>
</svg>
