<svg id="Capa_1" data-name="Capa 1" xmlns="http://www.w3.org/2000/svg" xmlns:xlink="http://www.w3.org/1999/xlink" viewBox="0 0 429.81 380.28"><defs><style>.cls-1{fill:url(#Degradado_sin_nombre_3);}.cls-2{fill:url(#Degradado_sin_nombre_3-2);}.cls-3{fill:url(#Degradado_sin_nombre_3-3);}.cls-4{fill:#5c9ed6;}.cls-5{fill:url(#Degradado_sin_nombre_3-4);}.cls-6{fill:url(#Degradado_sin_nombre_3-5);}.cls-7{fill:url(#Degradado_sin_nombre_3-6);}</style><linearGradient id="Degradado_sin_nombre_3" x1="126.78" y1="434.55" x2="440.09" y2="-124.19" gradientUnits="userSpaceOnUse"><stop offset="0.06" stop-color="#397cbd"/><stop offset="0.12" stop-color="#2d76b9"/><stop offset="0.21" stop-color="#2170b4"/><stop offset="0.3" stop-color="#1d6eb3"/><stop offset="0.44" stop-color="#1165ab"/><stop offset="0.58" stop-color="#0c61a8"/><stop offset="0.93" stop-color="#153a61"/></linearGradient><linearGradient id="Degradado_sin_nombre_3-2" x1="204.22" y1="477.97" x2="517.53" y2="-80.77" xlink:href="#Degradado_sin_nombre_3"/><linearGradient id="Degradado_sin_nombre_3-3" x1="121.64" y1="259.93" x2="321.61" y2="-96.68" xlink:href="#Degradado_sin_nombre_3"/><linearGradient id="Degradado_sin_nombre_3-4" x1="360.25" y1="16.01" x2="-4.63" y2="360" xlink:href="#Degradado_sin_nombre_3"/><linearGradient id="Degradado_sin_nombre_3-5" x1="282.21" y1="-66.77" x2="-82.67" y2="277.22" xlink:href="#Degradado_sin_nombre_3"/><linearGradient id="Degradado_sin_nombre_3-6" x1="317.47" y1="191.19" x2="101.78" y2="394.54" xlink:href="#Degradado_sin_nombre_3"/></defs><path class="cls-1" d="M290.08,48,192.62,91.74l9.93,22.14L306.4,67.31l25.8,57.52L242.85,164.9l9.71,21.64,89.34-40.07,24.54,54.73-100.28,45,9.93,22.14L370,226.2A162.3,162.3,0,0,0,290.08,48Z"/><path class="cls-2" d="M302.5,324.5a162.23,162.23,0,0,0,22.41-18.21l-6.74-15,30.1-13.5A160.73,160.73,0,0,0,365,243.7l-82.16,36.84Z"/><path class="cls-3" d="M313.81,110.73,184.63,168.66,172.07,141l-41-91.38a160,160,0,0,1,25.28-11.8L164.53,56l61.15-27.42A161.9,161.9,0,0,1,263,36.18l.61,1.39L174.23,77.64l25.8,57.5,4.88-2.19v0l99-44.38Z"/><circle class="cls-4" cx="211.4" cy="189.49" r="20.09"/><path class="cls-5" d="M221.4,266.24,117.55,312.81l-25.8-57.52,89.34-40.07-9.7-21.63L82.05,233.65,57.51,178.93l100.28-45-9.93-22.15L54,153.92a162.3,162.3,0,0,0,79.91,178.17l97.46-43.71Z"/><path class="cls-6" d="M123,54.58a162.19,162.19,0,0,0-22.54,17.89l6.34,14.13L77.35,99.81A161.48,161.48,0,0,0,59.76,134.3l82.43-37Z"/><path class="cls-7" d="M292.7,330.61a160,160,0,0,1-25.29,11.78l-7.75-17.29-59.34,26.61a161.3,161.3,0,0,1-39.56-7.85l-.15-.33L250,303.47l-25.8-57.53L120.31,292.51l-9.93-22.14,127.53-57.2,1.64-.75,11.63,25.63,0,0Z"/></svg>