<svg width="2048" height="2048" viewBox="0 0 2048 2048" fill="none" xmlns="http://www.w3.org/2000/svg">
<rect width="2048" height="2048" rx="205" fill="#281C59"/>
<path fill-rule="evenodd" clip-rule="evenodd" d="M204.8 0C91.6921 0 0 91.6921 0 204.8V1416.99C168.318 991.138 475.761 538.389 819.197 409.6C895.321 377.739 1132.66 348.395 1299.69 472.615C1290.35 484.548 1309.16 460.338 1299.69 472.615C1259.73 530.887 1077.62 642.735 1024 708.923C918.625 838.992 870.4 956.134 870.4 1024C870.4 1105.36 1037.65 1242.57 1204.63 1379.56C1247.8 1414.97 1290.96 1450.38 1331.2 1484.8C1210.95 1603.81 748.308 1851.08 675.239 2048H1843.2C1956.31 2048 2048 1956.31 2048 1843.2V204.8C2048 91.6921 1956.31 0 1843.2 0H204.8ZM1702.14 102.4C1820.64 102.4 1866.08 271.291 1820.64 448C1788.02 574.837 1749.42 707.493 1714.72 826.748C1686.38 924.109 1660.64 1012.56 1642.89 1081.6C1761.39 1254.4 1986.54 1611.52 1939.14 1657.6C1654.74 1703.68 1536 1587.2 1075.2 1024C1053.05 873.524 1583.64 102.4 1702.14 102.4Z" fill="white"/>
<path d="M716.801 972.796C716.801 1057.63 648.032 1126.4 563.201 1126.4C478.37 1126.4 409.601 1057.63 409.601 972.796C409.601 887.965 478.37 819.196 563.201 819.196C648.032 819.196 716.801 887.965 716.801 972.796Z" fill="white"/>
</svg>
