<?xml version="1.0" encoding="utf-8"?>
<!-- Generator: Adobe Illustrator 19.2.1, SVG Export Plug-In . SVG Version: 6.00 Build 0)  -->
<svg version="1.1" id="layer" xmlns="http://www.w3.org/2000/svg" xmlns:xlink="http://www.w3.org/1999/xlink" x="0px" y="0px"
	 viewBox="0 0 652 652" style="enable-background:new 0 0 652 652;" xml:space="preserve">
<path d="M67.7,306.4c-2-0.5-6.9-1-12.4,0.5c-2,0.5-6,1.5-9.9,3.5v-36.2c0-5.5-4.5-9.4-9.4-9.4s-9.4,4.5-9.4,9.4v103.2
	c0,5.5,4.5,9.4,9.4,9.4c5.5,0,9.4-4.5,9.4-9.4v-37.2l0,0c1-3.5,2-6,4-8.4c1-1.5,4.5-5,9.9-5.5c7.9-1,13.4,3.5,14.4,4.5
	c6,5.5,6,12.4,6,13.4v35.2c0,4.5,4,8.4,8.9,8.4l0,0c5,0,8.9-4,8.9-8.4v-37.2c0-7.4-2.5-12.9-4-15.4C89,315.4,78.6,307.9,67.7,306.4z
	 M414.3,305.4c-1.5,0-4-0.5-6.4,0c-13.9,1-23.8,9.9-25.8,11.9c-11.4,11.4-11.9,25.8-11.9,28.3c0,4.5,0.5,16.4,9.4,26.8
	c6.4,7.4,16.4,12.4,28.3,13.4c1.5,0,3,0.5,5.5,0.5l0,0l0,0l0,0c16.9-0.5,28.3-12.9,28.8-13.4c1.5-1.5,9.4-11.9,9.4-26.8
	C452,324.8,435.6,306.9,414.3,305.4z M431.7,346.6c-0.5,11.4-10.4,20.3-21.8,19.8c-11.4-0.5-20.8-9.9-20.3-21.3
	c0.5-11.4,10.4-20.3,21.8-19.8C423.2,325.3,432.2,335.2,431.7,346.6z M323.1,306.4c-7.4,0-14.4,2-20.3,6c-1.5-4-5-6.4-9.4-6.4
	c-5.5,0-9.9,4.5-9.9,9.9v60.5c0,5.5,4.5,9.9,9.9,9.9c0.5,0,0.5,0,1,0c0.5,0,0.5,0,1,0c4.5,0,8.4-3.5,8.4-8.4v-34.2
	c0-0.5,0.5-1.5,1-3c0-0.5,1-3.5,1.5-5c2-4.5,5.5-6.9,6.4-7.4c4-2.5,7.4-3,8.4-3c3,0,5,0.5,6.4,0.5c1,0.5,5,1.5,7.9,4.5
	c5,5,6,11.4,6,12.9c0,11.4,0,22.8,0,34.2c0,1,0.5,3.5,3,5.5c3,2.5,6,2.5,6.4,2.5l0,0c4.5,0,8.4-3.5,8.4-8.4v-36.2
	c-0.5-4-1.5-10.4-5.5-16.9C352.8,322.8,342.4,306.9,323.1,306.4z M612.7,314.4c-9.4-7.4-20.3-7.9-21.8-7.9s-6.9,0-13.9,2
	c-8.4,3-13.9,7.4-15.4,8.9c-11.9,10.9-12.4,25.8-12.9,28.3c0,3.5-0.5,15.9,8.4,27.3c9.4,11.4,21.8,13.4,25.3,13.9
	c5.5,1,10.9,0.5,12.4,0c2.5-0.5,6.4-1,11.9-3c6.9-3,11.4-6.9,14.4-10.4c1.5-4,1.5-7.9-1-10.4c-2-2-4.5-3-5-3c-4.5-1-8.4,1.5-8.9,2
	c-1,1-2.5,2.5-4.5,3.5c-4,2.5-7.9,2.5-10.4,2.5c-2,0-8.9,0.5-14.9-4.5c-5.5-4-7.4-8.9-8.4-10.9h58
	C628,337.7,623.1,322.8,612.7,314.4z M576,329.7c5.5-3.5,10.4-4,12.9-4c2,0,6.9,0,11.9,3.5c3,2,4.5,4.5,6,6.4h-36.2
	C571.5,333.7,573.5,331.7,576,329.7z M215.9,343.1c5-5,9.4-9.9,14.4-14.9c-6-6-11.9-11.9-18.3-17.9c-4-4-10.4-4-14.4,0
	c-4,4-4,10.4,0,14.4C203.5,330.7,209.5,336.7,215.9,343.1z M270,308.4c-4-4-10.4-3.5-13.9,0.5l-58.5,61c-4,4-3.5,10.4,0.5,13.9
	c4,4,10.4,3.5,13.9-0.5l21.3-22.3l21.8,21.8c4,4,10.4,4,14.4,0c4-4,4-10.4,0-14.4l-21.8-22.3l22.8-23.8
	C274.5,318.3,274,312.4,270,308.4z M530.8,263.3c-5.5,0-9.9,4.5-9.9,9.9v39.7c-5.5-4-12.4-6.4-19.3-6.9l0,0c-1.5,0-4-0.5-6.4,0
	c-13.9,1-23.3,9.9-25.3,11.9c-11.9,10.9-11.9,25.3-11.9,27.8c0,4.5,0.5,16.4,9.4,26.8c6.4,7.4,15.9,12.4,27.8,13.4
	c1.5,0,3,0.5,5.5,0.5l0,0l0,0l0,0c8.9-0.5,15.9-4,20.8-7.4c1,4,5,6.9,9.4,6.9c5.5,0,9.9-4.5,9.9-9.9V272.7
	C540.3,267.7,535.8,263.3,530.8,263.3z M519.4,346.6c-0.5,11.9-10.4,21.3-22.3,20.8c-11.9-0.5-20.8-10.4-20.3-22.3
	c0.5-11.9,10.4-21.3,22.3-20.8S519.9,334.7,519.4,346.6z M171.8,314.9c-9.4-7.4-20.3-7.9-21.8-7.9s-6.9,0-13.9,2
	c-8.4,3-13.9,7.4-15.4,8.9c-11.9,10.9-12.4,25.8-12.9,28.3c0,3.5-0.5,15.9,8.4,27.3c9.4,11.4,21.8,13.4,25.3,13.9
	c5.5,1,10.9,0.5,12.4,0c2.5-0.5,6.4-1,11.9-3c6.9-3,11.4-6.9,14.4-10.4c1.5-4,1.5-7.9-1-10.4c-2-2-4.5-3-5-3c-4.5-1-8.4,1.5-8.9,2
	c-1,1-2.5,2.5-4.5,3.5c-4,2.5-7.9,2.5-10.4,2.5c-2,0-8.9,0.5-14.9-4.5c-5.5-4-7.4-8.9-8.4-10.9h58
	C187.2,337.7,182.2,323.3,171.8,314.9z M135.1,330.2c5.5-3.5,10.4-4,12.9-4c2,0,6.9,0,11.9,3.5c3,2,4.5,4.5,6,6.4h-36.2
	C130.6,334.2,132.6,331.7,135.1,330.2z"/>
</svg>
