<svg version="1.0" xmlns="http://www.w3.org/2000/svg"
     width="239.000000pt" height="191.000000pt" viewBox="0 0 239.000000 191.000000"
     preserveAspectRatio="xMidYMid meet">

    <g transform="translate(0.000000,191.000000) scale(0.100000,-0.100000)"
       fill="#1972C6" stroke="none">
        <path d="M52 1890 c-18 -11 -37 -32 -42 -46 -15 -37 -13 -1079 1 -1107 29 -57
24 -57 403 -57 l349 0 -5 -82 c-9 -173 -84 -237 -293 -254 l-85 -7 0 -43 0
-44 545 0 545 0 0 45 0 45 -42 0 c-78 1 -183 25 -230 53 -62 36 -95 102 -104
210 l-7 77 361 0 361 0 3 -70 3 -70 130 83 c72 45 144 91 162 102 l32 20 -162
127 -162 128 -3 -70 -3 -70 -809 0 -810 0 0 430 0 430 740 0 740 0 0 -140 0
-140 90 0 90 0 0 200 c0 222 -4 239 -62 259 -21 8 -297 11 -867 11 -818 0
-837 -1 -869 -20z"/>
        <path d="M829 1447 c-50 -27 -96 -92 -106 -150 -14 -91 58 -203 148 -227 86
-23 194 20 234 93 l20 37 557 0 558 0 0 -500 0 -500 -265 0 -265 0 -2 186 -3
186 -65 0 -65 0 0 -256 c0 -253 0 -256 23 -278 l23 -23 354 0 354 0 23 23 23
23 3 597 c1 328 0 607 -3 620 -3 12 -14 31 -25 42 -19 19 -36 20 -625 20
l-604 0 -15 28 c-49 94 -178 131 -277 79z m1216 -1317 c0 -24 -3 -25 -68 -28
-70 -3 -87 7 -73 43 5 13 20 15 73 13 65 -3 68 -4 68 -28z"/>
    </g>
</svg>
