<svg xmlns="http://www.w3.org/2000/svg" xmlns:xlink="http://www.w3.org/1999/xlink" viewBox="0 0 65 65" fill="#fff" fill-rule="evenodd" stroke="#000" stroke-linecap="round" stroke-linejoin="round"><use xlink:href="#A" x=".5" y=".5"/><symbol id="A" overflow="visible"><path d="M3.5.01A3.52 3.52 0 0 0 0 3.51v24.268c0 1.92 1.58 3.386 3.386 3.386h12.2c5.53 0 13.206-1.13 15.35-11.062L34.322 4.3c.452-2.145-1.242-4.3-3.5-4.3zm46.73 11.514c-8.24 0-13.093 3.5-15.35 10.95l-5.757 17.72c-2.145 5.87-5.53 8.24-11.626 8.24H3.273C1.467 48.434 0 49.901 0 51.707v9.03c0 1.693 1.354 3.16 3.16 3.16h57.566c1.806 0 3.273-1.467 3.273-3.273v-45.94c0-1.693-1.354-3.16-3.16-3.16z" stroke="none" fill="#778eb1" fill-rule="nonzero"/></symbol></svg>