
<svg version="1.1" id="Layer_1" xmlns="http://www.w3.org/2000/svg" xmlns:xlink="http://www.w3.org/1999/xlink" x="0px" y="0px"
	 width="100%" viewBox="0 0 355 173" enable-background="new 0 0 355 173" xml:space="preserve">
<path fill="#B3E9E7" opacity="1.000000" stroke="none"
	  d="
M63.000000,174.000000 
	C57.311958,174.000000 51.623920,174.000000 45.201164,173.717682 
	C22.968351,170.309509 8.840381,158.600632 2.769742,137.560822 
	C2.053118,135.077118 1.583904,132.522003 1.000000,130.000000 
	C1.000000,127.299988 1.000000,124.599968 1.283527,121.177917 
	C3.250065,105.399055 10.099918,93.418259 22.875950,85.080215 
	C34.907696,77.227913 47.905945,74.938866 61.844772,78.815987 
	C65.133286,79.730690 67.051300,79.365349 69.297859,75.883179 
	C77.552208,63.088955 88.807381,54.357101 104.662743,52.943989 
	C109.896881,52.477489 114.533997,51.926453 116.093742,44.956665 
	C118.556801,33.950344 125.350731,25.216421 133.725845,17.789280 
	C150.259659,3.126940 169.456909,-0.958169 190.720764,3.829340 
	C206.181213,7.310223 218.008865,16.338526 227.196228,28.938303 
	C228.862198,31.223087 230.246002,31.345535 232.849701,31.187555 
	C239.898087,30.759897 247.131821,30.130606 254.037064,31.210957 
	C274.739563,34.449936 291.905762,53.175709 293.938690,74.005074 
	C294.315460,77.865219 296.286957,78.400597 299.316925,77.741890 
	C308.807343,75.678658 317.834625,77.615814 326.484955,81.293983 
	C344.452057,88.933731 358.184174,110.188950 354.129395,133.022110 
	C350.691467,152.381851 339.780212,164.939224 321.417786,171.270599 
	C318.033783,172.437378 314.477020,173.103058 311.000000,174.000000 
	C305.311951,174.000000 299.623932,174.000000 293.540405,173.788605 
	C293.144958,173.577209 293.124359,173.130722 293.181458,172.709763 
	C290.904785,167.065903 289.364166,161.262695 286.061401,156.748795 
	C280.335693,148.923477 271.845581,144.359863 262.907867,140.807266 
	C259.900330,139.611847 256.866089,138.483627 253.790207,137.304047 
	C268.761505,111.870796 267.776001,91.412834 251.148804,77.082878 
	C235.176483,63.317310 213.191055,62.724873 197.051147,75.746368 
	C189.242111,82.046616 184.341782,90.235794 182.535370,100.104759 
	C179.981110,114.059425 183.891571,126.342812 193.243500,137.084488 
	C188.104248,139.181412 183.357468,140.746338 178.971588,143.010376 
	C174.412720,145.363693 170.235245,148.447464 165.812363,151.079712 
	C164.941635,151.597931 163.531494,151.971176 162.679001,151.632874 
	C157.784851,149.690735 152.983795,147.514023 148.136414,145.410477 
	C161.022400,124.561508 160.137756,107.014656 145.621719,94.100311 
	C132.633377,82.545090 113.401184,82.039757 99.730286,92.948730 
	C93.241684,98.126442 89.063240,104.864227 87.339890,112.934731 
	C84.733978,125.138237 88.210976,135.898849 95.832184,144.889084 
	C88.901329,148.467331 81.963264,151.400711 75.744347,155.441025 
	C69.430428,159.543045 64.145966,164.966522 62.911392,173.294525 
	C62.883720,173.533371 63.000000,174.000000 63.000000,174.000000 
z"/>
	<path opacity="0.000000" stroke="none"
		  d="
M311.468658,174.000000
	C314.477020,173.103058 318.033783,172.437378 321.417786,171.270599
	C339.780212,164.939224 350.691467,152.381851 354.129395,133.022110
	C358.184174,110.188950 344.452057,88.933731 326.484955,81.293983
	C317.834625,77.615814 308.807343,75.678658 299.316925,77.741890
	C296.286957,78.400597 294.315460,77.865219 293.938690,74.005074
	C291.905762,53.175709 274.739563,34.449936 254.037064,31.210957
	C247.131821,30.130606 239.898087,30.759897 232.849701,31.187555
	C230.246002,31.345535 228.862198,31.223087 227.196228,28.938303
	C218.008865,16.338526 206.181213,7.310223 190.720764,3.829340
	C169.456909,-0.958169 150.259659,3.126940 133.725845,17.789280
	C125.350731,25.216421 118.556801,33.950344 116.093742,44.956665
	C114.533997,51.926453 109.896881,52.477489 104.662743,52.943989
	C88.807381,54.357101 77.552208,63.088955 69.297859,75.883179
	C67.051300,79.365349 65.133286,79.730690 61.844772,78.815987
	C47.905945,74.938866 34.907696,77.227913 22.875950,85.080215
	C10.099918,93.418259 3.250065,105.399055 1.283527,120.727936
	C1.000000,81.025269 1.000000,41.050541 1.000000,1.037905
	C119.233299,1.037905 237.466614,1.037905 355.849976,1.037905
	C355.849976,58.666389 355.849976,116.333138 355.849976,174.000000
	C341.252228,174.000000 326.594788,174.000000 311.468658,174.000000
z"/>
	<path opacity="0.000000" stroke="none"
		  d="
M1.000000,130.468658 
	C1.583904,132.522003 2.053118,135.077118 2.769742,137.560822 
	C8.840381,158.600632 22.968351,170.309509 44.733223,173.717682 
	C30.406635,174.000000 15.813272,174.000000 1.000000,174.000000 
	C1.000000,159.646515 1.000000,145.291916 1.000000,130.468658 
z"/>
	<path fill="#59C0BC" opacity="1.000000" stroke="none"
		  d="
M63.468658,174.000000 
	C63.000000,174.000000 62.883720,173.533371 63.385063,173.277771 
	C120.655838,173.016083 177.425278,172.998825 234.194717,173.010025 
	C253.837936,173.013901 273.481140,173.088455 293.124359,173.130722 
	C293.124359,173.130722 293.144958,173.577209 293.072479,173.788605 
	C216.645767,174.000000 140.291550,174.000000 63.468658,174.000000 
z"/>
	<path fill="#15A19C" opacity="1.000000" stroke="none"
		  d="
M293.181458,172.709763 
	C273.481140,173.088455 253.837936,173.013901 234.194717,173.010025 
	C177.425278,172.998825 120.655838,173.016083 63.412735,173.038925 
	C64.145966,164.966522 69.430428,159.543045 75.744347,155.441025 
	C81.963264,151.400711 88.901329,148.467331 95.832184,144.889084 
	C88.210976,135.898849 84.733978,125.138237 87.339890,112.934731 
	C89.063240,104.864227 93.241684,98.126442 99.730286,92.948730 
	C113.401184,82.039757 132.633377,82.545090 145.621719,94.100311 
	C160.137756,107.014656 161.022400,124.561508 148.136414,145.410477 
	C152.983795,147.514023 157.784851,149.690735 162.679001,151.632874 
	C163.531494,151.971176 164.941635,151.597931 165.812363,151.079712 
	C170.235245,148.447464 174.412720,145.363693 178.971588,143.010376 
	C183.357468,140.746338 188.104248,139.181412 193.243500,137.084488 
	C183.891571,126.342812 179.981110,114.059425 182.535370,100.104759 
	C184.341782,90.235794 189.242111,82.046616 197.051147,75.746368 
	C213.191055,62.724873 235.176483,63.317310 251.148804,77.082878 
	C267.776001,91.412834 268.761505,111.870796 253.790207,137.304047 
	C256.866089,138.483627 259.900330,139.611847 262.907867,140.807266 
	C271.845581,144.359863 280.335693,148.923477 286.061401,156.748795 
	C289.364166,161.262695 290.904785,167.065903 293.181458,172.709763 
z"/>
</svg>