<svg version="1.0" xmlns="http://www.w3.org/2000/svg"
 width="200.000000pt" height="200.000000pt" viewBox="0 0 200.000000 200.000000"
 preserveAspectRatio="xMidYMid meet">

<g transform="translate(0.000000,200.000000) scale(0.100000,-0.100000)"
fill="#000000" stroke="none">
<path d="M870 1445 l0 -75 125 0 125 0 0 75 c0 41 -1 75 -3 75 -2 0 -19 -11
-38 -25 l-34 -26 -23 27 -23 27 -27 -26 -27 -26 -30 24 c-17 13 -33 24 -37 25
-5 0 -8 -34 -8 -75z"/>
<path d="M239 1467 c-22 -14 -39 -37 -47 -62 -39 -115 79 -319 233 -406 l56
-32 -40 -18 c-88 -39 -75 -120 25 -166 48 -22 66 -25 128 -21 101 7 172 47
229 131 15 22 27 35 27 29 0 -6 15 -27 33 -46 37 -39 37 -38 -35 -50 -40 -7
-88 -54 -88 -87 0 -18 10 -19 239 -19 l240 0 -10 32 c-5 18 -9 34 -9 36 0 1
-15 11 -32 22 -20 12 -51 20 -78 20 l-46 0 45 48 45 49 26 -38 c54 -80 127
-120 226 -127 62 -4 80 -1 128 21 100 46 113 127 25 166 l-40 18 56 32 c129
73 237 231 239 349 1 69 -18 105 -69 129 -33 16 -39 15 -88 0 -109 -34 -259
-163 -420 -360 l-80 -98 -12 28 c-15 34 -79 93 -103 93 -9 1 6 10 33 20 79 31
98 78 50 125 -22 23 -32 25 -117 25 -116 0 -135 -5 -153 -41 -25 -47 4 -92 69
-110 l41 -11 -37 -19 c-35 -18 -78 -66 -78 -88 0 -24 -19 -7 -87 77 -147 180
-298 313 -403 353 -64 24 -80 24 -121 -4z"/>
<path d="M763 613 c3 -10 8 -30 11 -45 l6 -28 215 0 214 0 10 38 c6 20 11 40
11 45 0 4 -106 7 -236 7 -219 0 -235 -1 -231 -17z"/>
<path d="M820 451 c0 -18 84 -103 121 -121 49 -26 60 -25 118 5 48 24 111 88
111 112 0 10 -40 13 -175 13 -96 0 -175 -4 -175 -9z"/>
</g>
</svg>
