<svg xmlns="http://www.w3.org/2000/svg" width="72" height="72" viewBox="0 0 72 72">
    <path fill="#7450F6" fill-rule="evenodd" d="M34.083 1.308A4.47 4.47 0 0 1 38.398.152l18.295 4.903a4.47 4.47 0 0 1 3.158 3.158l11.997 44.771a4.471 4.471 0 0 1-1.156 4.316L57.299 70.691a4.468 4.468 0 0 1-4.315 1.157L8.212 59.85a4.463 4.463 0 0 1-3.156-3.157L.152 38.398a4.465 4.465 0 0 1 1.157-4.314L34.083 1.308zM37.498 43.5l9 15h12l-11.25-18L58.498 24h-12l-7.5 12h-3V24h-16.5v3l6 3v28.5h10.5v-12l-4.5-3h6z"/>
</svg>
