<svg width="155" height="155" viewBox="0 0 155 155" fill="none" xmlns="http://www.w3.org/2000/svg">
<path d="M154.342 68.589H109.21L148.296 46.022L139.713 31.151L100.626 53.717L123.188 14.634L108.316 6.045L85.755 45.128V0H68.587V45.133L46.017 6.045L31.15 14.63L53.716 53.713L14.629 31.15L6.045 46.018L45.131 68.584H0V85.754H45.127L6.045 108.318L14.629 123.19L53.711 100.628L31.146 139.711L46.016 148.295L68.582 109.208V154.341H85.751V109.212L108.312 148.295L123.182 139.711L100.617 100.624L139.704 123.19L148.288 108.318L109.206 85.756H154.333V68.59H154.342V68.589ZM77.17 100.52C64.225 100.52 53.732 90.028 53.732 77.082C53.732 64.137 64.225 53.644 77.17 53.644C90.115 53.644 100.607 64.137 100.607 77.082C100.607 90.028 90.115 100.52 77.17 100.52Z" fill="#625DF5"/>
</svg>
