<svg width="196" height="196" viewBox="0 0 196 196" fill="none" xmlns="http://www.w3.org/2000/svg">
<circle cx="98" cy="98" r="98" fill="#06AA00"/>
<path fill-rule="evenodd" clip-rule="evenodd" d="M86.5754 96.6159C86.4367 97.2134 86.4845 97.839 86.7123 98.4085L101.544 135.489C102.135 136.986 102.628 137.873 103.022 138.149C103.416 138.385 104.421 138.503 106.037 138.503H107.869C109.485 138.503 110.47 138.385 110.825 138.149C111.219 137.873 111.731 137.006 112.362 135.548L130.628 92.0405L136.066 134.779C136.303 136.513 136.638 137.577 137.071 137.971C137.505 138.326 138.589 138.503 140.323 138.503H153.15C154.687 138.503 155.731 138.346 156.283 138.031C156.874 137.676 157.17 137.065 157.17 136.198C157.17 135.883 157.091 135.193 156.933 134.129L145.938 61.479C145.662 59.7844 145.308 58.7598 144.874 58.4051C144.441 58.011 143.377 57.814 141.682 57.814H127.791C126.175 57.814 125.17 57.9519 124.776 58.2278C124.421 58.4642 123.928 59.3312 123.298 60.8287L107.219 100.848L97.2915 74.735C96.2385 71.9654 92.235 72.2365 91.565 75.1227L86.5754 96.6159Z" fill="white"/>
<path d="M71.855 55.2198C72.0457 54.377 72.7945 53.7786 73.6585 53.7786H87.0177C88.2035 53.7786 89.0828 54.879 88.8212 56.0356L70.4892 137.082C70.2986 137.925 69.5498 138.523 68.6857 138.523H55.3266C54.1408 138.523 53.2615 137.423 53.5231 136.266L71.855 55.2198Z" fill="white"/>
<path d="M48.6512 55.2198C48.8418 54.377 49.5906 53.7786 50.4547 53.7786H63.8138C64.9996 53.7786 65.8789 54.879 65.6173 56.0356L47.2854 137.082C47.0948 137.925 46.3459 138.523 45.4819 138.523H32.1227C30.9369 138.523 30.0576 137.423 30.3192 136.266L48.6512 55.2198Z" fill="white"/>
</svg>
