<svg width="240" height="239" viewBox="0 0 240 239" fill="none" xmlns="http://www.w3.org/2000/svg">
<g clip-path="url(#clip0_317_39301)">
<path fill-rule="evenodd" clip-rule="evenodd" d="M239.859 119.5C239.859 53.5028 186.356 0 120.359 0C54.3617 0 0.858887 53.5028 0.858887 119.5C0.858887 185.501 54.3617 239 120.359 239C186.356 239 239.859 185.501 239.859 119.5ZM98.6085 53.111C97.669 54.9549 97.669 57.3686 97.669 62.1961V89.5564C97.669 90.7623 97.669 91.3652 97.8212 91.9227C97.9561 92.4165 98.1778 92.8824 98.4761 93.2985C98.8128 93.7682 99.2808 94.1483 100.217 94.9086L107.138 100.531C108.266 101.447 108.83 101.905 109.035 102.457C109.214 102.941 109.214 103.473 109.035 103.957C108.83 104.509 108.266 104.967 107.138 105.883L100.217 111.505C99.2808 112.266 98.8128 112.646 98.4761 113.115C98.1778 113.531 97.9561 113.997 97.8212 114.491C97.669 115.049 97.669 115.652 97.669 116.858V176.803C97.669 181.63 97.669 184.044 98.6085 185.888C99.4349 187.51 100.754 188.829 102.375 189.655C104.219 190.594 106.633 190.594 111.46 190.594H129.257C134.085 190.594 136.498 190.594 138.342 189.655C139.964 188.829 141.283 187.51 142.109 185.888C143.049 184.044 143.049 181.63 143.049 176.803V149.443C143.049 148.237 143.049 147.634 142.896 147.076C142.762 146.583 142.54 146.117 142.242 145.701C141.905 145.231 141.437 144.851 140.501 144.09L133.58 138.468C132.452 137.552 131.888 137.094 131.683 136.542C131.504 136.058 131.504 135.526 131.683 135.042C131.888 134.491 132.452 134.032 133.58 133.116L140.501 127.494C141.437 126.734 141.905 126.353 142.242 125.884C142.54 125.468 142.762 125.002 142.896 124.508C143.049 123.95 143.049 123.347 143.049 122.142V62.1961C143.049 57.3686 143.049 54.9549 142.109 53.111C141.283 51.4892 139.964 50.1705 138.342 49.3441C136.498 48.4046 134.085 48.4046 129.257 48.4046H111.46C106.633 48.4046 104.219 48.4046 102.375 49.3441C100.754 50.1705 99.4349 51.4892 98.6085 53.111Z" fill="#1A285F"/>
</g>
<defs>
<clipPath id="clip0_317_39301">
<rect width="240" height="239" fill="white"/>
</clipPath>
</defs>
</svg>
