<svg width="700" height="657" viewBox="0 0 700 657" xmlns="http://www.w3.org/2000/svg"><title>Combined Shape</title><defs><linearGradient x1="50%" y1="100%" x2="50%" y2="0%" id="a"><stop stop-color="#443EC2" offset="0%"/><stop stop-color="#5951FF" offset="100%"/></linearGradient></defs><path d="M385.29 91c107.214 0 269.196 32.877 344.594 108.283C749.008 218.407 774 255.83 774 310.668c0 97.517-78.56 247.113-165.311 333.872-44.843 44.843-116.185 103.466-212.152 103.466-93.794 0-165.443-63.73-186.186-84.474C130.905 584.078 74 463.478 74 351.017c0-70.922 20.218-132.978 71.815-184.566C193.61 118.656 275.972 91 385.29 91zm132.706 388.833c36.196-36.205 45.946-80.803 45.946-105.34 0-17.8-4.695-43.896-26.946-66.138-34.147-34.147-71.938-43.783-113.066-43.783-52.096 0-87.093 16.46-110.42 39.788-18.283 18.283-34.095 46.394-34.095 86.322 0 39.911 21.296 78.464 44.492 101.66 21.41 21.402 55.075 37.284 88.985 37.284 33.92 0 68.907-13.587 105.104-49.793z" transform="translate(-74 -91)" fill="url(#a)" fill-rule="evenodd"/></svg>