<?xml version="1.0" encoding="UTF-8" standalone="no"?>
<!-- Created with Inkscape (http://www.inkscape.org/) -->
<svg
   xmlns:svg="http://www.w3.org/2000/svg"
   xmlns="http://www.w3.org/2000/svg"
   version="1.0"
   width="315"
   height="70"
   viewBox="0 0 384.12 73.08"
   id="svg2"
   xml:space="preserve"><defs
   id="defs203" />



































































































<g
   transform="matrix(1.5242857,0,0,1.5242857,-39.829584,-26.595914)"
   id="g2585"><path
     d="M 35.67,15.95 C 38.01,15.95 39.81,17.75 39.81,20.09 L 39.81,62.75 C 39.81,64.91 38.01,66.89 35.67,66.89 C 33.33,66.89 31.53,64.91 31.53,62.75 L 31.53,20.09 C 31.53,17.75 33.33,15.95 35.67,15.95 L 35.67,15.95 z"
     id="path4"
     style="fill:#ff1a24;fill-rule:evenodd;stroke:none;stroke-width:0.28;stroke-linecap:butt;stroke-linejoin:bevel" /><path
     d="M 52.23,15.95 C 54.57,15.95 56.37,17.75 56.37,20.09 L 56.37,62.75 C 56.37,64.91 54.57,66.89 52.23,66.89 C 50.07,66.89 48.09,64.91 48.09,62.75 L 48.09,20.09 C 48.09,17.75 50.07,15.95 52.23,15.95 L 52.23,15.95 z"
     id="path6"
     style="fill:#ff1a24;fill-rule:evenodd;stroke:none;stroke-width:0.28;stroke-linecap:butt;stroke-linejoin:bevel" /><path
     d="M 265.89,31.25 L 265.89,28.01 L 267.51,28.01 L 267.51,27.29 L 263.55,27.29 L 263.55,28.01 L 264.99,28.01 L 264.99,31.25 L 265.89,31.25 L 265.89,31.25 z M 271.29,27.65 L 270.21,30.35 C 270.21,30.53 270.21,30.53 270.03,30.35 L 269.13,27.65 C 269.13,27.65 268.95,27.65 268.95,27.47 C 268.77,27.29 268.41,27.11 268.23,27.29 C 267.87,27.29 267.69,27.47 267.69,27.83 L 267.69,31.25 L 268.41,31.25 L 268.41,28.19 L 268.41,28.19 C 268.41,28.01 268.59,28.19 268.59,28.19 L 268.59,28.19 L 269.49,30.89 C 269.67,31.25 269.85,31.43 270.21,31.43 C 270.57,31.43 270.57,31.07 270.75,30.89 L 271.83,28.19 C 271.83,28.19 271.83,28.01 271.83,28.19 L 271.83,31.25 L 272.73,31.25 L 272.73,27.83 C 272.73,27.47 272.37,27.29 272.01,27.11 C 271.65,27.11 271.47,27.29 271.29,27.65 L 271.29,27.65 z"
     id="path8"
     style="fill:#000000;fill-rule:evenodd;stroke:none;stroke-width:0.28;stroke-linecap:butt;stroke-linejoin:bevel" /><path
     d="M 238.17,59.69 L 256.17,59.69 C 260.85,59.69 263.55,56.81 263.37,52.13 C 263.37,49.61 262.65,47.27 260.31,45.65 C 258.51,44.57 256.53,44.03 254.55,43.49 L 248.79,41.87 C 247.71,41.51 246.63,41.33 245.73,40.61 C 245.19,40.07 245.19,39.71 245.19,39.17 C 245.19,37.91 245.73,37.37 247.17,37.37 L 262.29,37.37 L 262.29,31.43 L 246.27,31.43 C 242.31,31.43 238.89,32.51 237.99,37.01 C 237.63,39.71 237.81,42.59 239.79,44.57 C 241.41,46.19 243.39,46.91 245.55,47.63 L 250.77,48.89 C 252.03,49.25 253.29,49.61 254.55,50.15 C 254.91,50.33 255.45,50.51 255.63,50.87 C 255.81,51.41 255.99,52.49 255.63,53.03 C 255.27,53.57 254.73,53.75 254.01,53.75 L 238.17,53.75 L 238.17,59.69 L 238.17,59.69 z"
     id="path10"
     style="fill:#000000;fill-rule:evenodd;stroke:none;stroke-width:0.28;stroke-linecap:butt;stroke-linejoin:bevel" /><path
     d="M 212.25,37.37 C 214.95,37.37 218.01,37.91 218.19,41.15 C 218.19,41.69 218.37,42.23 217.65,42.23 L 206.13,42.23 C 206.13,40.97 206.31,39.71 207.21,38.81 C 208.29,37.55 210.27,37.37 212.25,37.37 L 212.25,37.37 z M 210.27,53.75 C 208.65,53.57 207.21,53.21 206.49,51.59 C 206.31,50.51 206.13,49.43 206.13,48.35 L 220.89,48.35 C 223.05,48.35 224.67,47.27 225.39,45.29 C 225.93,44.21 225.93,42.95 225.93,41.69 C 225.75,38.63 225.03,35.75 222.69,33.77 C 219.63,31.43 215.85,31.25 212.25,31.25 C 208.29,31.25 204.33,31.61 201.27,34.49 C 198.57,37.55 198.39,41.51 198.39,45.29 C 198.39,47.27 198.39,49.07 198.75,50.87 C 199.11,53.03 199.65,55.01 200.91,56.63 C 202.53,58.43 204.33,59.15 206.49,59.51 C 207.57,59.69 208.47,59.69 209.37,59.69 L 225.03,59.69 L 225.03,53.75 L 211.17,53.75 L 210.27,53.75 L 210.27,53.75 z"
     id="path12"
     style="fill:#000000;fill-rule:evenodd;stroke:none;stroke-width:0.28;stroke-linecap:butt;stroke-linejoin:bevel" /><path
     d="M 121.89,47.63 L 121.89,53.21 C 121.89,53.75 121.35,53.75 120.81,53.75 L 112.53,53.75 C 110.91,53.75 110.55,52.13 110.55,50.69 C 110.55,49.25 110.73,47.81 112.71,47.63 L 121.89,47.63 L 121.89,47.63 z M 104.97,31.43 L 104.97,37.55 L 119.01,37.55 C 119.73,37.55 120.45,37.73 121.17,38.27 C 121.71,38.99 121.89,39.71 121.89,40.43 L 121.89,41.69 L 110.91,41.69 C 109.29,41.69 108.03,41.87 106.59,42.59 C 103.71,44.39 102.99,47.27 102.99,50.51 C 102.99,53.75 103.53,57.35 106.59,59.15 C 108.03,59.69 109.29,59.87 110.91,59.87 L 123.69,59.87 C 127.29,59.87 129.27,58.25 129.27,54.65 L 129.27,40.61 C 129.27,38.63 128.91,36.83 128.01,35.03 C 126.39,32.51 123.87,31.61 120.99,31.43 L 104.97,31.43 L 104.97,31.43 z"
     id="path14"
     style="fill:#000000;fill-rule:evenodd;stroke:none;stroke-width:0.28;stroke-linecap:butt;stroke-linejoin:bevel" /><path
     d="M 77.07,40.43 L 77.07,31.07 C 77.07,30.71 77.07,30.17 77.25,29.99 C 77.61,29.63 77.97,29.63 78.33,29.63 L 89.13,29.63 C 91.65,29.63 93.27,30.35 93.63,32.87 C 93.99,34.49 93.99,36.29 93.63,37.91 C 92.91,40.25 91.11,40.43 89.13,40.43 L 77.07,40.43 L 77.07,40.43 z M 77.07,59.87 L 77.07,47.27 L 92.91,47.27 C 95.25,47.27 97.41,46.73 99.21,45.11 C 101.01,43.31 101.73,40.79 102.09,38.27 C 102.27,36.11 102.27,33.77 102.09,31.61 C 101.91,29.99 101.55,28.37 100.65,26.75 C 98.67,23.69 95.61,22.97 92.19,22.79 L 91.83,22.79 L 74.91,22.79 C 73.11,22.79 71.31,23.33 70.05,24.77 C 68.97,26.03 68.97,27.29 68.97,28.91 L 68.97,59.87 L 77.07,59.87 L 77.07,59.87 z"
     id="path16"
     style="fill:#000000;fill-rule:evenodd;stroke:none;stroke-width:0.28;stroke-linecap:butt;stroke-linejoin:bevel" /><path
     d="M 134.67,34.31 C 132.51,36.65 131.97,39.35 131.97,42.23 L 131.97,59.69 L 139.35,59.69 L 139.35,43.85 C 139.53,42.41 139.53,40.79 140.25,39.53 C 141.51,37.73 143.31,37.37 145.11,37.37 L 149.79,37.37 L 149.79,31.43 L 143.67,31.43 C 140.25,31.43 137.19,31.97 134.67,34.31 L 134.67,34.31 z"
     id="path18"
     style="fill:#000000;fill-rule:evenodd;stroke:none;stroke-width:0.28;stroke-linecap:butt;stroke-linejoin:bevel" /><polygon
     points="235.47,59.69 228.09,59.69 228.09,22.61 235.47,22.61 235.47,59.69 235.47,59.69 "
     id="polygon20"
     style="fill:#000000;fill-rule:evenodd;stroke:none;stroke-width:0.28;stroke-linecap:butt;stroke-linejoin:bevel" /><polygon
     points="196.23,59.69 188.67,59.69 188.67,22.79 196.23,22.79 196.23,59.69 196.23,59.69 "
     id="polygon22"
     style="fill:#000000;fill-rule:evenodd;stroke:none;stroke-width:0.28;stroke-linecap:butt;stroke-linejoin:bevel" /><polygon
     points="185.97,59.69 178.59,59.69 178.59,22.79 185.97,22.79 185.97,59.69 185.97,59.69 "
     id="polygon24"
     style="fill:#000000;fill-rule:evenodd;stroke:none;stroke-width:0.28;stroke-linecap:butt;stroke-linejoin:bevel" /><path
     d="M 168.33,47.63 L 168.33,53.03 C 168.33,53.75 167.97,53.75 167.43,53.75 L 159.15,53.75 C 157.35,53.57 157.17,52.13 157.17,50.69 C 157.17,49.07 157.35,47.63 159.33,47.63 L 168.33,47.63 L 168.33,47.63 z M 151.41,31.43 L 151.41,37.37 L 165.45,37.37 C 166.35,37.37 167.07,37.55 167.61,38.27 C 168.33,38.81 168.33,39.53 168.33,40.43 L 168.33,41.51 L 157.53,41.51 C 155.91,41.51 154.47,41.69 153.21,42.59 C 150.15,44.39 149.61,47.09 149.43,50.33 C 149.61,53.57 149.97,57.17 153.21,58.97 C 154.47,59.69 155.91,59.69 157.53,59.69 L 170.31,59.69 C 173.91,59.69 175.89,58.07 175.89,54.47 L 175.89,40.61 C 175.71,38.63 175.53,36.65 174.45,34.85 C 173.01,32.33 170.31,31.43 167.61,31.43 L 151.41,31.43 L 151.41,31.43 z"
     id="path26"
     style="fill:#000000;fill-rule:evenodd;stroke:none;stroke-width:0.28;stroke-linecap:butt;stroke-linejoin:bevel" /></g></svg>