<svg width="208" height="178" viewBox="0 0 208 178" fill="none"
     xmlns="http://www.w3.org/2000/svg">
    <path fill-rule="evenodd" clip-rule="evenodd"
          d="M95.3794 4.02553L92.9729 5.93653C88.1109 9.7978 85.2463 15.9038 85.2524 22.3895L85.399 156.997C85.4051 163.45 88.2575 169.524 93.0889 173.378C99.9665 178.863 109.409 178.771 116.183 173.143L199.838 103.692C204.504 99.8178 207.235 93.8492 207.235 87.5206V87.285C207.235 80.9237 204.468 74.9224 199.758 71.048L118.364 4.22186C111.602 -1.33444 102.226 -1.41297 95.3794 4.02553ZM2.00612 80.3434L52.443 41.5533C55.3178 39.346 59.3774 41.4852 59.3774 45.2133V56.7209C59.3774 58.1338 58.747 59.473 57.6709 60.3298L26.1095 86.6363V86.954L57.5786 111.836C58.7089 112.693 59.3774 114.061 59.3774 115.513V128.519C59.3774 132.247 55.3124 134.392 52.4376 132.173L2.00069 93.2469C0.892063 92.3901 0.234497 91.0339 0.234497 89.5926V84.0034C0.234497 82.5564 0.892063 81.2002 2.00612 80.3434ZM121.325 41.5533L168.609 80.3434C169.654 81.2002 170.27 82.5564 170.27 84.0034V89.5926C170.27 91.0339 169.654 92.3901 168.614 93.2469L121.33 132.173C118.635 134.392 114.824 132.247 114.824 128.519V115.513C114.824 114.061 115.45 112.693 116.51 111.836L146.243 86.954V86.6363L116.424 60.3298C115.415 59.473 114.824 58.1338 114.824 56.7209V45.2133C114.824 41.4852 118.63 39.346 121.325 41.5533Z"
          fill="#57A41B"/>
</svg>
