<svg xmlns="http://www.w3.org/2000/svg" width="80" height="80" fill="none" viewBox="0 0 80 80">
  <path fill="#fff" d="M40 80c22.091 0 40-17.909 40-40S62.091 0 40 0 0 17.909 0 40s17.909 40 40 40z"/>
  <path fill="#81A2B2" fill-opacity=".25" d="M40 1.9A38.1 38.1 0 111.9 40 38.14 38.14 0 0140 1.9zM40 0a40 40 0 100 80 40 40 0 000-80z"/>
  <path fill="#00A99D" d="M21.63 50.01l4.636 7.06c.18.279.428.508.724.667a2.037 2.037 0 001.93 0c.295-.159.544-.388.723-.667l10.352-16.398-7.698-12.224-10.73 17.48A3.788 3.788 0 0021 47.977c.012.721.23 1.425.63 2.032z"/>
  <path fill="#EF445A" d="M58.431 45.928l-10.728-17.48-7.709 12.245L50.356 57.09c.18.278.428.508.724.666a2.036 2.036 0 001.93 0 1.97 1.97 0 00.723-.666l4.636-7.062a3.817 3.817 0 00.063-4.102z"/>
  <path fill="#01445A" d="M44.756 23.642l-3.062-4.724a1.97 1.97 0 00-.725-.673 2.037 2.037 0 00-1.938 0 1.97 1.97 0 00-.725.672l-3.062 4.735-2.947 4.796 7.698 12.245 7.708-12.194-2.947-4.857z"/>
</svg>
