<?xml version="1.0"?>
<svg version="1.1" xmlns="http://www.w3.org/2000/svg" xmlns:xlink="http://www.w3.org/1999/xlink" width="500" height="500">
    <desc iVinci="yes" version="4.6" gridStep="20" showGrid="no" snapToGrid="no" codePlatform="0"/>
    <g id="Layer1" name="Layer 1" opacity="1">
        <g id="Shape1">
            <desc shapeID="1" type="0" basicInfo-basicType="0" basicInfo-roundedRectRadius="12" basicInfo-polygonSides="6" basicInfo-starPoints="5" bounding="rect(-251,-251,502,502)" text="" font-familyName="" font-pixelSize="20" font-bold="0" font-underline="0" font-alignment="1" strokeStyle="0" markerStart="0" markerEnd="0" shadowEnabled="0" shadowOffsetX="0" shadowOffsetY="2" shadowBlur="4" shadowOpacity="160" blurEnabled="0" blurRadius="4" transform="matrix(1,0,0,1,250,250)" pers-center="0,0" pers-size="0,0" pers-start="0,0" pers-end="0,0" locked="0" mesh="" flag=""/>
            <path id="shapePath1" d="M-1,-1 L501,-1 L501,501 L-1,501 L-1,-1 Z" style="stroke:none;fill-rule:evenodd;fill:#000000;fill-opacity:0;"/>
        </g>
        <g id="Shape2">
            <desc shapeID="2" type="0" basicInfo-basicType="0" basicInfo-roundedRectRadius="12" basicInfo-polygonSides="6" basicInfo-starPoints="5" bounding="rect(-235.975,-241.752,471.95,483.504)" text="" font-familyName="" font-pixelSize="20" font-bold="0" font-underline="0" font-alignment="1" strokeStyle="0" markerStart="0" markerEnd="0" shadowEnabled="0" shadowOffsetX="0" shadowOffsetY="2" shadowBlur="4" shadowOpacity="160" blurEnabled="0" blurRadius="4" transform="matrix(1.05943,0,0,1.03825,250,250)" pers-center="0,0" pers-size="0,0" pers-start="0,0" pers-end="0,0" locked="0" mesh="" flag=""/>
            <path id="shapePath2" d="M249.999,501 C388.07,501 500,388.624 500,250.001 C500,111.377 388.07,-1 249.999,-1 C111.929,-1 0,111.377 0,250.001 C0,388.624 111.929,501 249.999,501 Z" style="stroke:none;fill-rule:nonzero;fill:#3a589b;fill-opacity:1;"/>
        </g>
        <g id="Shape3">
            <desc shapeID="3" type="0" basicInfo-basicType="0" basicInfo-roundedRectRadius="12" basicInfo-polygonSides="6" basicInfo-starPoints="5" bounding="rect(-106.693,-102.286,213.387,204.572)" text="" font-familyName="" font-pixelSize="20" font-bold="0" font-underline="0" font-alignment="1" strokeStyle="0" markerStart="0" markerEnd="0" shadowEnabled="0" shadowOffsetX="0" shadowOffsetY="2" shadowBlur="4" shadowOpacity="160" blurEnabled="0" blurRadius="4" transform="matrix(1,0,0,1,148.475,360.354)" pers-center="0,0" pers-size="0,0" pers-start="0,0" pers-end="0,0" locked="0" mesh="" flag=""/>
            <path id="shapePath3" d="M118.769,462.641 L255.169,278.04 L234.696,258.068 L41.7818,389.732 C60.8865,419.687 87.3646,444.779 118.769,462.641 Z" style="stroke:none;fill-rule:evenodd;fill:#ffba00;fill-opacity:1;"/>
        </g>
        <g id="Shape4">
            <desc shapeID="4" type="0" basicInfo-basicType="0" basicInfo-roundedRectRadius="12" basicInfo-polygonSides="6" basicInfo-starPoints="5" bounding="rect(-191.762,-196.456,383.524,392.913)" text="" font-familyName="" font-pixelSize="20" font-bold="0" font-underline="0" font-alignment="1" strokeStyle="0" markerStart="0" markerEnd="0" shadowEnabled="0" shadowOffsetX="0" shadowOffsetY="2" shadowBlur="4" shadowOpacity="160" blurEnabled="0" blurRadius="4" transform="matrix(1,0,0,1,306.985,198.811)" pers-center="0,0" pers-size="0,0" pers-start="0,0" pers-end="0,0" locked="0" mesh="" flag=""/>
            <path id="shapePath4" d="M498.707,2.39552 C498.512,2.59383 497.932,3.18874 496.576,4.57701 C497.932,3.38704 498.707,2.59383 498.707,2.39552 C494.641,2.19708 490.963,2.79213 490.963,2.79213 C407.53,16.2778 342.681,43.0511 293.705,85.0949 C282.089,95.011 263.699,113.653 254.989,124.759 C251.31,129.519 244.922,138.839 240.276,145.384 C236.211,151.929 230.984,158.87 230.984,158.87 C230.984,158.87 227.887,157.879 222.467,157.284 C210.658,154.903 188.977,157.085 177.556,167.794 C165.941,178.305 118.127,226.299 115.223,229.868 C118.707,230.861 187.041,236.215 194.591,238.595 C197.108,239.785 197.882,240.776 199.237,242.759 C199.43,244.346 198.656,251.089 198.656,250.891 C198.075,254.857 196.527,278.457 193.623,284.605 L224.983,316.733 C230.984,313.56 252.277,310.386 256.343,309.792 C256.15,309.792 262.731,308.999 264.28,309.197 C266.215,310.586 267.183,311.378 268.345,313.956 C270.668,321.691 276.089,391.698 277.057,395.268 C280.541,392.491 327.58,343.308 337.647,331.408 C348.101,319.708 350.036,297.694 347.907,285.398 C347.133,279.845 346.358,276.672 346.358,276.672 C346.358,276.672 353.134,271.516 359.522,267.153 C365.91,262.393 375.009,255.849 379.654,252.081 C390.688,243.157 408.885,224.117 418.37,212.416 C459.41,162.241 485.35,95.8042 498.513,10.3283 C498.319,10.5266 498.9,6.5602 498.707,2.39552 M410.434,141.815 C397.27,155.3 375.977,155.3 362.813,141.815 C349.65,128.329 349.65,106.514 362.813,93.0278 C375.977,79.542 397.27,79.542 410.434,93.0278 C423.597,106.712 423.597,128.527 410.434,141.815 Z" style="stroke:none;fill-rule:nonzero;fill:#ffffff;fill-opacity:1;"/>
        </g>
    </g>
</svg>
