<?xml version="1.0" encoding="UTF-8" standalone="no" ?>
<svg xmlns="http://www.w3.org/2000/svg" xmlns:xlink="http://www.w3.org/1999/xlink" version="1.1" width="1080" height="1080" viewBox="0 0 1080 1080" xml:space="preserve">
    <rect x="0" y="0" width="100%" height="100%" fill="transparent"></rect>
    <g transform="matrix(1 0 0 1 540 540)" id="747e393d-dd7a-48b5-b912-3c696589fd28"  >
<rect style="stroke: none; stroke-width: 1; stroke-dasharray: none; stroke-linecap: butt; stroke-dashoffset: 0; stroke-linejoin: miter; stroke-miterlimit: 4; fill: rgb(255,255,255); fill-rule: nonzero; opacity: 1; visibility: hidden;" vector-effect="non-scaling-stroke"  x="-540" y="-540" rx="0" ry="0" width="1080" height="1080" />
</g>
    <g transform="matrix(1 0 0 1 540 540)" id="6dff6187-b520-4b6d-91f5-2d5903605af8"  >
</g>
    <g transform="matrix(19.52 0 0 19.52 540 513.33)"  >
<path style="stroke: none; stroke-width: 1; stroke-dasharray: none; stroke-linecap: butt; stroke-dashoffset: 0; stroke-linejoin: miter; stroke-miterlimit: 4; fill: rgb(253,87,80); fill-rule: nonzero; opacity: 1;"  transform=" translate(-15.28, -12.03)" d="M 9.9305 5.20104 L 11.7023 0 L 0 0 L 0 5.20104 L 9.9305 5.20104 Z M 30.5561 5.20104 L 30.5561 0 L 17.2874 0 L 15.6031 5.20104 L 30.5561 5.20104 Z M 6.89264 14.3029 L 8.45169 9.10182 L 0 9.10182 L 0 14.3029 L 6.89264 14.3029 Z M 30.5561 14.3029 L 30.5561 9.10182 L 13.9318 9.10182 L 12.3525 14.3029 L 30.5561 14.3029 Z M 3.65698 24.0548 L 5.20104 18.8538 L 0 18.8538 L 0 24.0548 L 3.65698 24.0548 Z M 30.5561 24.0548 L 30.5561 18.8538 L 10.8032 18.8538 L 9.10182 24.0548 L 30.5561 24.0548 Z" stroke-linecap="round" />
</g>
</svg>