<svg width="192" height="34" viewBox="0 0 192 34" fill="none" xmlns="http://www.w3.org/2000/svg">
<path d="M100.351 33.8949V28.7501H101.694C102.032 28.7501 102.294 28.7671 102.48 28.801C102.665 28.8327 102.83 28.887 102.973 28.9639C103.119 29.0386 103.253 29.1427 103.375 29.2761C103.5 29.4096 103.596 29.5657 103.664 29.7445C103.732 29.9209 103.766 30.1212 103.766 30.3451C103.766 30.6845 103.683 30.9798 103.516 31.2309C103.352 31.482 103.14 31.6619 102.882 31.7705C102.625 31.8791 102.229 31.9334 101.694 31.9334H101.341V33.8949H100.351ZM101.341 31.0442H101.658C102.077 31.0442 102.367 30.9865 102.529 30.8712C102.694 30.7535 102.776 30.577 102.776 30.3417C102.776 30.1924 102.736 30.0623 102.656 29.9515C102.576 29.8406 102.464 29.7614 102.321 29.7139C102.18 29.6664 101.971 29.6427 101.694 29.6427H101.341V31.0442Z" fill="#0066F1"/>
<path d="M104.559 31.3361C104.559 30.9786 104.628 30.637 104.767 30.3112C104.905 29.9854 105.096 29.7049 105.338 29.4696C105.58 29.2343 105.848 29.0488 106.142 28.913C106.522 28.7366 106.927 28.6483 107.354 28.6483C107.754 28.6483 108.125 28.723 108.468 28.8723C108.811 29.0194 109.098 29.2071 109.328 29.4356C109.561 29.6619 109.743 29.9085 109.875 30.1755C110.056 30.5374 110.146 30.9221 110.146 31.3293C110.146 31.6325 110.097 31.9187 109.998 32.1879C109.902 32.4571 109.772 32.6958 109.61 32.904C109.45 33.1098 109.258 33.2965 109.032 33.4639C108.809 33.6313 108.55 33.7626 108.257 33.8576C107.963 33.9526 107.662 34.0001 107.354 34.0001C106.936 34.0001 106.556 33.9243 106.216 33.7727C105.875 33.6189 105.588 33.4288 105.356 33.2026C105.125 32.9741 104.947 32.7286 104.82 32.4662C104.646 32.1042 104.559 31.7275 104.559 31.3361ZM105.549 31.3293C105.549 31.5759 105.596 31.8055 105.69 32.0182C105.784 32.2309 105.908 32.4153 106.061 32.5714C106.216 32.7275 106.402 32.8564 106.621 32.9583C106.842 33.0601 107.086 33.111 107.354 33.111C107.664 33.111 107.962 33.0329 108.246 32.8768C108.53 32.7207 108.754 32.5012 108.916 32.2184C109.078 31.9356 109.159 31.6381 109.159 31.3259C109.159 31.0137 109.078 30.7162 108.916 30.4334C108.754 30.1483 108.53 29.9277 108.246 29.7716C107.964 29.6155 107.667 29.5375 107.354 29.5375C107.082 29.5375 106.837 29.5884 106.621 29.6902C106.407 29.7897 106.22 29.9187 106.061 30.077C105.901 30.2354 105.775 30.4255 105.683 30.6472C105.594 30.8666 105.549 31.094 105.549 31.3293Z" fill="#0066F1"/>
<path d="M112.31 33.8949L110.752 28.7501H111.763L112.687 32.344H112.701L113.618 28.7501H114.34L115.236 32.344H115.25L116.18 28.7501H117.192L115.637 33.8949H114.851L113.988 30.4979H113.97L113.092 33.8949H112.31Z" fill="#0066F1"/>
<path d="M118.365 33.8949V28.7501H121.238V29.6427H119.356V30.8983H121.16V31.7874H119.356V33.0058H121.238V33.8949H118.365Z" fill="#0066F1"/>
<path d="M122.866 33.8949V28.7501H124.505C124.912 28.7501 125.245 28.8022 125.506 28.9062C125.685 28.9764 125.844 29.0793 125.985 29.2151C126.126 29.3485 126.238 29.4945 126.32 29.6528C126.436 29.87 126.493 30.1076 126.493 30.3655C126.493 30.594 126.448 30.8089 126.359 31.0103C126.272 31.2117 126.161 31.3791 126.024 31.5126C125.888 31.6438 125.742 31.7456 125.587 31.818C125.432 31.8904 125.246 31.9503 125.03 31.9979L126.483 33.8949H125.284L123.87 31.9266H123.856V33.8949H122.866ZM123.856 29.6427V31.2139H124.491C124.688 31.2139 124.868 31.1777 125.03 31.1053C125.15 31.051 125.249 30.9628 125.326 30.8406C125.404 30.7184 125.443 30.5816 125.443 30.43C125.443 30.2807 125.404 30.1427 125.326 30.016C125.249 29.8893 125.145 29.7954 125.016 29.7343C124.887 29.6732 124.712 29.6427 124.491 29.6427H123.856Z" fill="#0066F1"/>
<path d="M127.754 33.8949V28.7501H130.627V29.6427H128.745V30.8983H130.55V31.7874H128.745V33.0058H130.627V33.8949H127.754Z" fill="#0066F1"/>
<path d="M132.248 33.8949V28.7501H133.461C133.959 28.7501 134.338 28.7773 134.599 28.8316C134.86 28.8836 135.102 28.9696 135.325 29.0895C135.549 29.2094 135.75 29.3678 135.928 29.5646C136.109 29.7592 136.256 30.0046 136.369 30.301C136.482 30.5974 136.538 30.9062 136.538 31.2275C136.538 31.5669 136.479 31.8938 136.362 32.2083C136.247 32.5227 136.09 32.8021 135.893 33.0465C135.696 33.2886 135.477 33.473 135.237 33.5997C135 33.7241 134.711 33.8112 134.37 33.861C134.206 33.8836 133.91 33.8949 133.482 33.8949H132.248ZM133.239 33.0058H133.447C133.769 33.0058 134.015 32.9888 134.187 32.9549C134.436 32.9051 134.629 32.8429 134.765 32.7682C134.904 32.6913 135.026 32.594 135.132 32.4764C135.24 32.3587 135.334 32.2026 135.414 32.008C135.493 31.8135 135.533 31.5872 135.533 31.3293C135.533 30.9764 135.455 30.6687 135.297 30.4062C135.14 30.1415 134.926 29.9481 134.656 29.8259C134.383 29.7037 133.973 29.6427 133.425 29.6427H133.239V33.0058Z" fill="#0066F1"/>
<path d="M140.82 33.8949V28.7501H141.874C142.308 28.7501 142.633 28.7739 142.846 28.8214C143.063 28.8666 143.253 28.9492 143.418 29.0691C143.584 29.189 143.718 29.3372 143.819 29.5137C143.923 29.6879 143.975 29.8881 143.975 30.1144C143.975 30.5442 143.775 30.8689 143.375 31.0884C143.573 31.1607 143.729 31.2433 143.844 31.3361C143.994 31.456 144.106 31.6019 144.179 31.7739C144.254 31.9458 144.292 32.137 144.292 32.3474C144.292 32.5736 144.254 32.7705 144.179 32.9379C144.106 33.1031 144.005 33.2524 143.876 33.3859C143.747 33.5171 143.611 33.6189 143.47 33.6913C143.332 33.7614 143.164 33.8135 142.966 33.8474C142.771 33.8791 142.499 33.8949 142.149 33.8949H140.82ZM141.81 29.6427V30.7524H142.134C142.454 30.7524 142.675 30.7037 142.797 30.6065C142.922 30.5069 142.984 30.37 142.984 30.1958C142.984 30.0239 142.926 29.8893 142.811 29.792C142.696 29.6924 142.499 29.6427 142.219 29.6427H141.81ZM141.81 31.6415V33.0058H142.307C142.669 33.0058 142.925 32.9447 143.076 32.8225C143.228 32.7003 143.305 32.5329 143.305 32.3202C143.305 32.1144 143.23 31.9503 143.079 31.8282C142.931 31.7037 142.681 31.6415 142.328 31.6415H141.81Z" fill="#0066F1"/>
<path d="M146.445 33.8949V31.9979L144.689 28.7501H145.772L146.935 31.1155L148.105 28.7501H149.194L147.432 31.9979V33.8949H146.445Z" fill="#0066F1"/>
<path d="M153.166 33.8949V28.7501H154.509C154.847 28.7501 155.109 28.7671 155.295 28.801C155.48 28.8327 155.645 28.887 155.788 28.9639C155.934 29.0386 156.068 29.1427 156.19 29.2761C156.315 29.4096 156.411 29.5657 156.479 29.7445C156.547 29.9209 156.581 30.1212 156.581 30.3451C156.581 30.6845 156.498 30.9798 156.331 31.2309C156.167 31.482 155.955 31.6619 155.697 31.7705C155.441 31.8791 155.045 31.9334 154.509 31.9334H154.156V33.8949H153.166ZM154.156 31.0442H154.474C154.892 31.0442 155.182 30.9865 155.344 30.8712C155.509 30.7535 155.591 30.577 155.591 30.3417C155.591 30.1924 155.551 30.0623 155.471 29.9515C155.391 29.8406 155.28 29.7614 155.136 29.7139C154.995 29.6664 154.786 29.6427 154.509 29.6427H154.156V31.0442Z" fill="#0066F1"/>
<path d="M157.871 33.8949V28.7501H159.084C159.582 28.7501 159.961 28.7773 160.222 28.8316C160.483 28.8836 160.725 28.9696 160.948 29.0895C161.172 29.2094 161.373 29.3678 161.551 29.5646C161.732 29.7592 161.879 30.0046 161.992 30.301C162.105 30.5974 162.161 30.9062 162.161 31.2275C162.161 31.5669 162.102 31.8938 161.985 32.2083C161.87 32.5227 161.713 32.8021 161.516 33.0465C161.318 33.2886 161.1 33.473 160.86 33.5997C160.623 33.7241 160.334 33.8112 159.993 33.861C159.829 33.8836 159.532 33.8949 159.105 33.8949H157.871ZM158.861 33.0058H159.069C159.391 33.0058 159.638 32.9888 159.81 32.9549C160.059 32.9051 160.252 32.8429 160.388 32.7682C160.526 32.6913 160.649 32.594 160.754 32.4764C160.863 32.3587 160.957 32.2026 161.036 32.008C161.116 31.8135 161.156 31.5872 161.156 31.3293C161.156 30.9764 161.078 30.6687 160.92 30.4062C160.763 30.1415 160.549 29.9481 160.279 29.8259C160.006 29.7037 159.596 29.6427 159.048 29.6427H158.861V33.0058Z" fill="#0066F1"/>
<path d="M169.143 33.111V34.0001C168.922 34.0001 168.745 33.9877 168.611 33.9628C168.477 33.9402 168.35 33.904 168.23 33.8542C168.113 33.8021 167.948 33.7094 167.737 33.5759C167.478 33.723 167.232 33.8293 166.997 33.8949C166.762 33.9628 166.511 33.9967 166.246 33.9967C165.729 33.9967 165.254 33.8779 164.822 33.6404C164.389 33.4028 164.048 33.0782 163.799 32.6664C163.55 32.2546 163.426 31.8078 163.426 31.3259C163.426 30.8576 163.548 30.4119 163.792 29.9888C164.039 29.5657 164.382 29.2365 164.822 29.0013C165.261 28.766 165.724 28.6483 166.211 28.6483C166.737 28.6483 167.217 28.775 167.652 29.0284C168.089 29.2818 168.425 29.6076 168.66 30.0058C168.895 30.404 169.013 30.8485 169.013 31.3395C169.013 31.6517 168.966 31.9322 168.872 32.1811C168.78 32.43 168.632 32.6834 168.428 32.9413C168.59 33.0544 168.776 33.111 168.985 33.111H169.143ZM167.642 32.4085C167.776 32.232 167.873 32.0578 167.934 31.8859C167.995 31.7117 168.026 31.5284 168.026 31.3361C168.026 30.827 167.848 30.4006 167.494 30.0567C167.141 29.7105 166.712 29.5375 166.207 29.5375C165.88 29.5375 165.581 29.6166 165.308 29.775C165.038 29.9334 164.82 30.1574 164.656 30.447C164.494 30.7343 164.413 30.999 164.413 31.2411C164.413 31.3112 164.419 31.3734 164.43 31.4277C164.642 31.3847 164.85 31.3632 165.054 31.3632C165.426 31.3632 165.768 31.4119 166.08 31.5092C166.395 31.6064 166.703 31.7467 167.004 31.93C167.203 32.0521 167.416 32.2117 167.642 32.4085ZM166.947 32.9583C166.576 32.6981 166.252 32.5159 165.974 32.4119C165.697 32.3078 165.423 32.2558 165.153 32.2558C165 32.2558 164.858 32.2761 164.726 32.3169C164.832 32.4662 164.932 32.5816 165.026 32.663C165.176 32.792 165.354 32.8994 165.558 32.9854C165.763 33.0691 165.985 33.111 166.225 33.111C166.497 33.111 166.738 33.0601 166.947 32.9583Z" fill="#0066F1"/>
<path d="M170.331 33.8949V32.9718H171.289V33.8949H170.331Z" fill="#0066F1"/>
<path d="M178.078 30.2196H176.953C176.749 30.0024 176.534 29.835 176.308 29.7173C176.083 29.5974 175.829 29.5375 175.547 29.5375C175.251 29.5375 174.963 29.6155 174.683 29.7716C174.406 29.9277 174.186 30.1472 174.024 30.43C173.864 30.7105 173.784 31.0035 173.784 31.3089C173.784 31.5782 173.838 31.8248 173.947 32.0488C174.055 32.2705 174.187 32.456 174.345 32.6053C174.502 32.7524 174.669 32.8666 174.845 32.9481C175.078 33.0567 175.323 33.111 175.579 33.111C176.091 33.111 176.532 32.8949 176.901 32.4628H178.05C177.923 32.7162 177.792 32.9209 177.658 33.077C177.482 33.2829 177.282 33.4549 177.059 33.5929C176.836 33.7286 176.601 33.8304 176.354 33.8983C176.11 33.9662 175.852 34.0001 175.582 34.0001C174.818 34.0001 174.163 33.7377 173.615 33.2128C173.068 32.6856 172.794 32.0578 172.794 31.3293C172.794 30.9289 172.873 30.5657 173.03 30.2399C173.188 29.9141 173.383 29.6427 173.615 29.4255C173.85 29.206 174.103 29.0329 174.373 28.9062C174.749 28.7343 175.144 28.6483 175.558 28.6483C175.847 28.6483 176.137 28.6936 176.428 28.7841C176.722 28.8746 176.983 29.0035 177.211 29.1709C177.439 29.3361 177.627 29.516 177.775 29.7105C177.873 29.8372 177.975 30.0069 178.078 30.2196Z" fill="#0066F1"/>
<path d="M179.078 31.3361C179.078 30.9786 179.148 30.637 179.286 30.3112C179.425 29.9854 179.615 29.7049 179.857 29.4696C180.099 29.2343 180.367 29.0488 180.661 28.913C181.042 28.7366 181.446 28.6483 181.874 28.6483C182.273 28.6483 182.645 28.723 182.988 28.8723C183.331 29.0194 183.617 29.2071 183.848 29.4356C184.08 29.6619 184.263 29.9085 184.394 30.1755C184.575 30.5374 184.666 30.9221 184.666 31.3293C184.666 31.6325 184.616 31.9187 184.517 32.1879C184.421 32.4571 184.292 32.6958 184.13 32.904C183.97 33.1098 183.777 33.2965 183.552 33.4639C183.328 33.6313 183.07 33.7626 182.776 33.8576C182.482 33.9526 182.182 34.0001 181.874 34.0001C181.455 34.0001 181.076 33.9243 180.735 33.7727C180.394 33.6189 180.108 33.4288 179.875 33.2026C179.645 32.9741 179.466 32.7286 179.339 32.4662C179.165 32.1042 179.078 31.7275 179.078 31.3361ZM180.069 31.3293C180.069 31.5759 180.116 31.8055 180.21 32.0182C180.304 32.2309 180.427 32.4153 180.58 32.5714C180.735 32.7275 180.922 32.8564 181.14 32.9583C181.361 33.0601 181.606 33.111 181.874 33.111C182.184 33.111 182.481 33.0329 182.766 32.8768C183.05 32.7207 183.273 32.5012 183.435 32.2184C183.597 31.9356 183.679 31.6381 183.679 31.3259C183.679 31.0137 183.597 30.7162 183.435 30.4334C183.273 30.1483 183.05 29.9277 182.766 29.7716C182.484 29.6155 182.186 29.5375 181.874 29.5375C181.601 29.5375 181.357 29.5884 181.14 29.6902C180.927 29.7897 180.74 29.9187 180.58 30.077C180.42 30.2354 180.294 30.4255 180.203 30.6472C180.114 30.8666 180.069 31.094 180.069 31.3293Z" fill="#0066F1"/>
<path d="M186.078 33.8949V28.7501H187.45L188.87 32.6426H188.888L190.294 28.7501H191.666V33.8949H190.675V30.0363H190.654L189.29 33.8949H188.454L187.083 30.0363H187.069V33.8949H186.078Z" fill="#0066F1"/>
<path d="M51.7824 19.7844C51.7026 19.7236 51.6376 19.6458 51.5919 19.5565C51.5463 19.4673 51.5213 19.3689 51.5189 19.2687C51.523 19.0911 51.5955 18.9219 51.7213 18.7962C51.8471 18.6706 52.0164 18.5982 52.1942 18.594C52.3543 18.5967 52.5089 18.6527 52.6335 18.7531C53.4441 19.5319 54.4022 20.1412 55.4516 20.5453C56.501 20.9494 57.6206 21.1402 58.7447 21.1064C61.4901 21.1064 63.3295 19.5814 63.3295 17.5078V17.4584C63.3295 15.5439 62.3192 14.4303 58.2011 13.6184C53.8524 12.7243 52.0734 11.2486 52.0734 8.50572V8.45087C52.0734 5.76286 54.5333 3.68925 57.9046 3.68925C59.9876 3.61538 62.0304 4.27559 63.6754 5.5544C63.7621 5.61771 63.8329 5.70016 63.8824 5.79531C63.9319 5.89046 63.9588 5.99575 63.9609 6.10297C63.9581 6.28012 63.8868 6.44931 63.762 6.57509C63.6371 6.70087 63.4683 6.77349 63.291 6.77772C63.129 6.77666 62.9722 6.72056 62.8463 6.61863C61.4314 5.48418 59.6636 4.88056 57.8497 4.91257C55.1812 4.91257 53.4242 6.4376 53.4242 8.33018V8.37955C53.4242 10.2941 54.407 11.4625 58.7063 12.3403C62.9177 13.1686 64.7022 14.6881 64.7022 17.3268V17.3816C64.7022 20.3055 62.1874 22.3188 58.6623 22.3188C56.1344 22.3519 53.6837 21.4491 51.7824 19.7844V19.7844ZM67.5519 4.33657C67.5496 4.23438 67.5681 4.13279 67.6062 4.03793C67.6443 3.94307 67.7013 3.85691 67.7736 3.78463C67.846 3.71235 67.9322 3.65546 68.0272 3.61738C68.1221 3.57931 68.2238 3.56084 68.3261 3.56308C68.4297 3.5609 68.5326 3.57922 68.6291 3.61698C68.7255 3.65474 68.8136 3.71119 68.8881 3.78309C68.9626 3.85499 69.0221 3.94091 69.0633 4.0359C69.1044 4.1309 69.1263 4.23308 69.1277 4.33657V4.78091C69.1263 4.8844 69.1044 4.98659 69.0633 5.08158C69.0221 5.17657 68.9626 5.26249 68.8881 5.33439C68.8136 5.40629 68.7255 5.46275 68.6291 5.5005C68.5326 5.53826 68.4297 5.55658 68.3261 5.5544C68.2238 5.55665 68.1221 5.53818 68.0272 5.5001C67.9322 5.46202 67.846 5.40513 67.7736 5.33286C67.7013 5.26058 67.6443 5.17441 67.6062 5.07955C67.5681 4.98469 67.5496 4.8831 67.5519 4.78091V4.33657ZM67.7056 9.41087C67.6974 9.32271 67.7077 9.2338 67.7358 9.14984C67.764 9.06588 67.8093 8.98871 67.869 8.92326C67.9287 8.85781 68.0014 8.80553 68.0825 8.76976C68.1635 8.73398 68.2512 8.7155 68.3398 8.7155C68.4284 8.7155 68.5161 8.73398 68.5971 8.76976C68.6782 8.80553 68.7509 8.85781 68.8106 8.92326C68.8703 8.98871 68.9157 9.06588 68.9438 9.14984C68.9719 9.2338 68.9822 9.32271 68.974 9.41087V21.5179C68.9802 21.6021 68.9686 21.6868 68.94 21.7663C68.9113 21.8458 68.8663 21.9184 68.8079 21.9794C68.7494 22.0404 68.6787 22.0885 68.6004 22.1205C68.5222 22.1525 68.4381 22.1677 68.3535 22.1652C68.2676 22.1683 68.182 22.1536 68.102 22.1222C68.022 22.0907 67.9494 22.0432 67.8886 21.9824C67.8278 21.9217 67.7802 21.8491 67.7487 21.7692C67.7172 21.6893 67.7026 21.6037 67.7056 21.5179V9.41087ZM72.6748 9.41087C72.6748 9.2421 72.7419 9.08024 72.8613 8.96091C72.9808 8.84157 73.1428 8.77453 73.3117 8.77453C73.4806 8.77453 73.6426 8.84157 73.7621 8.96091C73.8815 9.08024 73.9486 9.2421 73.9486 9.41087V11.2212C74.7997 9.84973 75.9912 8.5551 78.3412 8.5551C79.2869 8.52988 80.2186 8.7874 81.0169 9.29465C81.8152 9.8019 82.4436 10.5358 82.8217 11.4022C83.2692 10.5291 83.9533 9.79917 84.796 9.29576C85.6387 8.79236 86.606 8.53571 87.5877 8.5551C90.7174 8.5551 92.6611 10.7494 92.6611 14.0408V21.5179C92.6673 21.6021 92.6557 21.6868 92.6271 21.7663C92.5985 21.8458 92.5535 21.9184 92.495 21.9794C92.4365 22.0404 92.3658 22.0885 92.2876 22.1205C92.2093 22.1525 92.1252 22.1677 92.0407 22.1652C91.9548 22.1683 91.8691 22.1536 91.7891 22.1222C91.7091 22.0907 91.6365 22.0432 91.5757 21.9824C91.5149 21.9217 91.4673 21.8491 91.4358 21.7692C91.4044 21.6893 91.3897 21.6037 91.3928 21.5179V14.2219C91.3928 11.3748 89.9158 9.71807 87.4834 9.71807C85.2541 9.71807 83.3104 11.4296 83.3104 14.3809V21.5124C83.3166 21.5966 83.305 21.6813 83.2763 21.7608C83.2477 21.8403 83.2027 21.9129 83.1442 21.9739C83.0857 22.0349 83.0151 22.083 82.9368 22.115C82.8586 22.147 82.7744 22.1622 82.6899 22.1597C82.604 22.1628 82.5184 22.1481 82.4384 22.1167C82.3584 22.0852 82.2857 22.0377 82.2249 21.9769C82.1642 21.9162 82.1165 21.8436 82.0851 21.7637C82.0536 21.6838 82.0389 21.5982 82.042 21.5124V14.1451C82.042 11.4022 80.543 9.71807 78.1985 9.71807C75.8539 9.71807 73.9816 11.7917 73.9816 14.4577V21.5179C73.9869 21.6024 73.9746 21.6871 73.9454 21.7667C73.9161 21.8462 73.8706 21.9187 73.8117 21.9796C73.7527 22.0405 73.6818 22.0885 73.6032 22.1205C73.5247 22.1524 73.4404 22.1677 73.3556 22.1652C73.2697 22.1683 73.1841 22.1536 73.1041 22.1222C73.0241 22.0907 72.9514 22.0432 72.8906 21.9824C72.8299 21.9217 72.7822 21.8491 72.7508 21.7692C72.7193 21.6893 72.7046 21.6037 72.7077 21.5179L72.6748 9.41087ZM96.0105 9.41087C96.0067 9.32794 96.0201 9.24513 96.0497 9.16759C96.0794 9.09006 96.1248 9.01948 96.183 8.96027C96.2413 8.90106 96.3111 8.85449 96.3882 8.82347C96.4653 8.79245 96.5479 8.77766 96.631 8.78001C96.7169 8.77694 96.8025 8.79159 96.8825 8.82303C96.9625 8.85448 97.0351 8.90205 97.0959 8.96278C97.1567 9.02351 97.2043 9.0961 97.2358 9.17603C97.2673 9.25595 97.2819 9.34149 97.2789 9.42733V11.8356C98.4155 10.1021 100.101 8.57155 102.715 8.57155C105.899 8.57155 109.139 11.1334 109.139 15.4287V15.4836C109.139 19.7789 105.899 22.3901 102.715 22.3901C100.074 22.3901 98.366 20.887 97.2789 19.2358V25.6596C97.2892 25.746 97.2807 25.8337 97.254 25.9165C97.2272 25.9993 97.1829 26.0754 97.1239 26.1395C97.065 26.2036 96.9929 26.2542 96.9125 26.2878C96.8322 26.3215 96.7455 26.3373 96.6584 26.3343C96.5689 26.3403 96.4792 26.3267 96.3955 26.2947C96.3117 26.2626 96.2359 26.2128 96.1733 26.1487C96.1107 26.0846 96.0627 26.0076 96.0327 25.9232C96.0027 25.8388 95.9914 25.7488 95.9995 25.6596L96.0105 9.41087ZM107.766 15.5165V15.4671C107.766 12.0001 105.356 9.77293 102.588 9.77293C101.121 9.81028 99.7292 10.4282 98.7181 11.4909C97.7069 12.5536 97.1596 13.9739 97.1965 15.4397V15.4891C97.1761 16.2154 97.2995 16.9386 97.5598 17.6171C97.8201 18.2955 98.212 18.9159 98.7131 19.4426C99.2142 19.9692 99.8145 20.3917 100.48 20.6857C101.145 20.9797 101.861 21.1395 102.588 21.1558C105.46 21.1558 107.766 19.0603 107.766 15.5165ZM111.983 3.71668C111.979 3.63254 111.993 3.54851 112.023 3.46974C112.053 3.39097 112.098 3.31909 112.157 3.25852C112.215 3.19794 112.286 3.14993 112.363 3.1174C112.441 3.08488 112.525 3.06854 112.609 3.06937C112.694 3.06862 112.778 3.0849 112.857 3.11723C112.936 3.14957 113.007 3.19731 113.067 3.25764C113.127 3.31797 113.174 3.38967 113.206 3.46851C113.237 3.54735 113.253 3.63173 113.251 3.71668V21.5179C113.258 21.6021 113.246 21.6868 113.217 21.7663C113.189 21.8458 113.144 21.9184 113.085 21.9794C113.027 22.0404 112.956 22.0885 112.878 22.1205C112.8 22.1525 112.716 22.1677 112.631 22.1652C112.545 22.1683 112.459 22.1536 112.38 22.1222C112.3 22.0907 112.227 22.0432 112.166 21.9824C112.105 21.9217 112.058 21.8491 112.026 21.7692C111.995 21.6893 111.98 21.6037 111.983 21.5179V3.71668ZM122.525 22.3682C119.055 22.3682 116.052 19.5979 116.052 15.4836V15.4342C116.052 11.5942 118.742 8.54961 122.317 8.54961C126.023 8.54961 128.357 11.6052 128.357 15.3793C128.345 15.5377 128.275 15.6861 128.16 15.7964C128.046 15.9066 127.895 15.971 127.736 15.9773H117.413C117.644 19.2687 120.005 21.1778 122.591 21.1778C123.39 21.1827 124.181 21.0246 124.917 20.7133C125.652 20.4021 126.316 19.9441 126.869 19.3675C126.921 19.31 126.984 19.2641 127.055 19.2329C127.126 19.2017 127.203 19.1859 127.28 19.1864C127.441 19.1835 127.596 19.2441 127.713 19.3551C127.829 19.466 127.897 19.6184 127.901 19.7789C127.898 19.862 127.879 19.9437 127.844 20.0191C127.809 20.0946 127.76 20.1621 127.698 20.2178C127.042 20.9278 126.24 21.488 125.347 21.8601C124.455 22.2321 123.492 22.4073 122.525 22.3736V22.3682ZM127.006 14.8363C126.825 12.1757 125.298 9.71258 122.267 9.71258C119.648 9.71258 117.628 11.9069 117.397 14.8363H127.006ZM134.764 4.53405C134.764 4.35355 134.835 4.18019 134.961 4.05103C135.087 3.92187 135.259 3.84715 135.44 3.84285H135.571C135.706 3.84835 135.838 3.8867 135.955 3.95458C136.071 4.02246 136.17 4.11781 136.241 4.23234L143.313 14.6552L150.386 4.23234C150.455 4.11578 150.553 4.01882 150.67 3.95066C150.787 3.8825 150.92 3.84539 151.055 3.84285H151.187C151.365 3.84704 151.534 3.91947 151.66 4.04511C151.786 4.17076 151.858 4.33996 151.863 4.5176V21.4795C151.863 21.6584 151.791 21.8301 151.665 21.9566C151.538 22.0831 151.366 22.1542 151.187 22.1542C151.008 22.1542 150.836 22.0831 150.71 21.9566C150.583 21.8301 150.512 21.6584 150.512 21.4795V6.31692L143.857 15.9937C143.802 16.0971 143.721 16.1836 143.621 16.244C143.52 16.3044 143.406 16.3363 143.289 16.3363C143.172 16.3363 143.057 16.3044 142.957 16.244C142.857 16.1836 142.775 16.0971 142.72 15.9937L136.082 6.31692V21.5069C136.082 21.6786 136.014 21.8432 135.892 21.9646C135.771 22.086 135.606 22.1542 135.434 22.1542C135.262 22.1542 135.098 22.086 134.976 21.9646C134.855 21.8432 134.786 21.6786 134.786 21.5069L134.764 4.53405ZM155.948 4.61086C155.952 4.43322 156.024 4.26401 156.15 4.13837C156.276 4.01272 156.445 3.94029 156.623 3.93611H161.982C167.681 3.93611 171.618 7.84195 171.618 12.9437V12.9931C171.618 18.0893 167.681 22.05 161.982 22.05H156.623C156.449 22.0461 156.283 21.9767 156.157 21.8557C156.032 21.7347 155.957 21.571 155.948 21.3972V4.61086ZM161.987 20.8102C167.039 20.8102 170.224 17.3652 170.224 13.0479V12.9931C170.224 8.69772 167.039 5.18137 161.987 5.18137H157.298V20.8102H161.987ZM174.902 4.53405C174.902 4.35355 174.972 4.18019 175.099 4.05103C175.225 3.92187 175.397 3.84715 175.577 3.84285H175.709C175.844 3.84881 175.975 3.88736 176.092 3.9552C176.209 4.02303 176.307 4.11813 176.379 4.23234L183.451 14.6552L190.523 4.23234C190.592 4.11543 190.69 4.01818 190.807 3.94997C190.924 3.88175 191.057 3.84486 191.193 3.84285H191.325C191.502 3.84704 191.672 3.91947 191.798 4.04511C191.923 4.17076 191.996 4.33996 192 4.5176V21.4795C192 21.6584 191.929 21.8301 191.802 21.9566C191.676 22.0831 191.504 22.1542 191.325 22.1542C191.146 22.1542 190.974 22.0831 190.847 21.9566C190.72 21.8301 190.649 21.6584 190.649 21.4795V6.31692L183.994 15.9937C183.941 16.0935 183.862 16.1774 183.765 16.2371C183.669 16.2967 183.559 16.3301 183.445 16.3339C183.332 16.329 183.222 16.2952 183.126 16.2357C183.03 16.1761 182.951 16.0928 182.896 15.9937L176.198 6.31692V21.5069C176.198 21.6786 176.129 21.8432 176.008 21.9646C175.886 22.086 175.722 22.1542 175.55 22.1542C175.378 22.1542 175.213 22.086 175.092 21.9646C174.97 21.8432 174.902 21.6786 174.902 21.5069V4.53405Z" fill="#1B1E21"/>
<path d="M37.748 16.9482C38.1878 15.781 38.3376 14.5246 38.1844 13.2869C38.0312 12.0491 37.5796 10.867 36.8685 9.84199C36.1573 8.81698 35.2078 7.9797 34.1015 7.40201C32.9952 6.82433 31.765 6.5235 30.5167 6.52535C29.9457 6.52565 29.3766 6.59006 28.8201 6.71735C28.0616 4.84255 26.7452 3.24561 25.0489 2.14239C23.3526 1.03917 21.3582 0.482876 19.3353 0.54869C17.3123 0.614505 15.3584 1.29926 13.7375 2.51039C12.1167 3.72153 10.9071 5.40065 10.2723 7.32078C9.8294 7.10459 9.34306 6.99202 8.85016 6.99164C8.06562 6.99262 7.30719 7.27328 6.71131 7.78313C6.11543 8.29299 5.72123 8.99856 5.59963 9.7729C3.86723 10.1793 2.3446 11.2073 1.32103 12.6616C0.297453 14.1159 -0.155746 15.8952 0.0475341 17.6615C0.250814 19.4277 1.09641 21.0578 2.42366 22.2421C3.75092 23.4263 5.46735 24.0822 7.24686 24.0852H15.9607C16.2359 24.8035 16.7543 25.4028 17.4257 25.7791C18.0971 26.1554 18.8793 26.2849 19.6363 26.1451C20.3933 26.0053 21.0774 25.605 21.5699 25.0137C22.0623 24.4225 22.3319 23.6776 22.3319 22.9085C22.3319 22.1393 22.0623 21.3945 21.5699 20.8032C21.0774 20.212 20.3933 19.8117 19.6363 19.6719C18.8793 19.5321 18.0971 19.6615 17.4257 20.0378C16.7543 20.4141 16.2359 21.0135 15.9607 21.7318H7.26333C6.06532 21.7319 4.90872 21.2938 4.01189 20.5002C3.11506 19.7067 2.54007 18.6125 2.39547 17.4243C2.25086 16.2362 2.54666 15.0362 3.22701 14.051C3.90735 13.0659 4.92517 12.3636 6.08831 12.0769C6.47802 12.664 7.04599 13.1107 7.7087 13.3513C8.37141 13.5918 9.0939 13.6137 9.76994 13.4135C10.446 13.2133 11.0399 12.8017 11.4644 12.2392C11.8889 11.6767 12.1215 10.993 12.1281 10.2886V10.2392C12.1616 8.42597 12.8507 6.68609 14.068 5.34089C15.2854 3.9957 16.9489 3.13606 18.7513 2.92075C20.5536 2.70544 22.3731 3.14901 23.8736 4.16952C25.3741 5.19004 26.4544 6.71856 26.9148 8.47278C26.9518 8.62575 27.0192 8.76972 27.113 8.89614C27.2068 9.02255 27.3251 9.12884 27.4608 9.20867C27.5966 9.28851 27.747 9.34026 27.9031 9.36085C28.0593 9.38145 28.218 9.37047 28.3698 9.32856C28.4555 9.30471 28.5384 9.2716 28.6169 9.22982H28.7048C29.6514 8.88773 30.6753 8.81922 31.6591 9.03214C32.6429 9.24505 33.5467 9.73077 34.2667 10.4336C34.9868 11.1363 35.4939 12.0277 35.73 13.0054C35.966 13.983 35.9213 15.0073 35.6012 15.9608H35.398C34.6375 15.959 33.8999 16.2201 33.3101 16.6997C32.7204 17.1794 32.3149 17.8481 32.1625 18.5925C32.0101 19.3368 32.1201 20.1109 32.4738 20.7835C32.8276 21.456 33.4034 21.9855 34.1034 22.2823C34.8035 22.579 35.5848 22.6246 36.3147 22.4114C37.0446 22.1982 37.6781 21.7392 38.1079 21.1125C38.5377 20.4857 38.7372 19.7297 38.6726 18.9726C38.608 18.2156 38.2833 17.5043 37.7535 16.9592L37.748 16.9482ZM19.0355 21.9951C19.2218 21.9941 19.4043 22.0481 19.5599 22.1504C19.7156 22.2527 19.8375 22.3987 19.9102 22.5701C19.983 22.7414 20.0034 22.9305 19.9689 23.1134C19.9344 23.2963 19.8466 23.4649 19.7163 23.5981C19.5861 23.7312 19.4194 23.8229 19.2372 23.8616C19.0549 23.9003 18.8653 23.8842 18.6922 23.8155C18.519 23.7468 18.3701 23.6284 18.2641 23.4753C18.1581 23.3222 18.0999 23.1412 18.0966 22.9551V22.9222C18.0995 22.6753 18.1997 22.4395 18.3755 22.266C18.5512 22.0924 18.7884 21.9951 19.0355 21.9951V21.9951ZM8.85016 11.254C8.66578 11.2537 8.48552 11.1995 8.33163 11.0981C8.17773 10.9966 8.05692 10.8524 7.98411 10.6831C7.91129 10.5139 7.88966 10.3271 7.92187 10.1457C7.95408 9.9643 8.03872 9.79631 8.16537 9.66242C8.29201 9.52854 8.45511 9.43462 8.63455 9.39225C8.81398 9.34989 9.00191 9.36092 9.17514 9.424C9.34837 9.48708 9.49934 9.59944 9.60941 9.74722C9.71948 9.89501 9.78385 10.0717 9.79457 10.2556V10.4257C9.76628 10.6555 9.65443 10.8669 9.48029 11.0196C9.30615 11.1723 9.08188 11.2558 8.85016 11.254ZM35.3925 20.1848C35.2055 20.1859 35.0224 20.1315 34.8663 20.0285C34.7103 19.9255 34.5884 19.7785 34.5161 19.6062C34.4438 19.4339 34.4243 19.244 34.4601 19.0606C34.4959 18.8772 34.5854 18.7086 34.7173 18.576C34.8491 18.4435 35.0174 18.3531 35.2007 18.3163C35.3841 18.2794 35.5743 18.2978 35.7471 18.369C35.92 18.4403 36.0679 18.5612 36.1719 18.7165C36.2759 18.8718 36.3314 19.0544 36.3314 19.2413C36.3314 19.4906 36.2327 19.7297 36.0568 19.9065C35.8808 20.0833 35.642 20.1834 35.3925 20.1848V20.1848Z" fill="#0066F1"/>
</svg>
