<svg width="34" height="34" viewBox="0 0 34 34" fill="none" xmlns="http://www.w3.org/2000/svg">
<rect width="34" height="34" rx="4" fill="#14253F"/>
<path d="M10.8816 13.2469L17.4641 19.8293C19.3118 21.677 19.3118 24.5641 17.4641 26.4118C15.6164 28.2595 12.7294 28.2595 10.8816 26.4118L4.29917 19.8293C2.56694 17.9816 2.56694 14.9791 4.29917 13.2469C6.14688 11.3992 9.03393 11.3992 10.8816 13.2469Z" fill="#00DEFF"/>
<path d="M29.7008 14.1706L17.4597 26.4117C15.612 28.2594 12.7249 28.2594 10.8772 26.4117C9.02953 24.564 9.02953 21.677 10.8772 19.8293L23.1183 7.58818C24.966 5.74046 27.8531 5.74046 29.7008 7.58818C31.433 9.43589 31.433 12.3229 29.7008 14.1706Z" fill="#0094FF"/>
<path fill-rule="evenodd" clip-rule="evenodd" d="M10.7547 26.2847C9.03047 24.4339 9.07132 21.6351 10.8772 19.8292L14.1707 16.5358L17.4642 19.8293C19.2696 21.6347 19.3109 24.4325 17.5881 26.2833L17.4597 26.4117C16.5238 27.3476 15.3212 27.8094 14.1222 27.7972C12.9554 27.7842 11.7923 27.3224 10.8817 26.4117L10.7547 26.2847Z" fill="#5EF7FF"/>
</svg>
