<svg xmlns="http://www.w3.org/2000/svg" width="300" height="390" viewBox="0 0 300 390">
  <polygon fill="#FF46FB" points="192 193 276 193 276 277 192 277"/>
  <path fill="#212121" d="M270,307.468997 C269.651664,307.391319 269.245272,307.313153 268.780825,307.234498 C268.354113,307.156821 267.860637,307.098196 267.300397,307.058625 C266.738706,307.02003 266.129118,307 265.471634,307 C263.381619,307 261.61962,307.293123 260.188541,307.879369 C258.75601,308.465614 257.58473,309.277076 256.676155,310.312289 C255.766127,311.348478 255.108643,312.550282 254.702251,313.9177 C254.29586,315.286095 254.092664,316.75171 254.092664,318.314543 L254.092664,319.838782 L250.26097,319.838782 L250.26097,327.225479 L254.092664,327.225479 L254.092664,348.682074 L264.078291,348.682074 L264.078291,327.225479 L268.954993,327.225479 L268.954993,319.838782 L264.078291,319.838782 L264.078291,318.959414 C264.078291,317.709245 264.416467,316.819617 265.09427,316.291995 C265.770622,315.764374 266.574698,315.500564 267.503593,315.500564 C267.889665,315.500564 268.229293,315.520594 268.519573,315.559188 C268.809853,315.59876 269.071104,315.637843 269.303328,315.676437 C269.535552,315.716009 269.767776,315.755092 270,315.793687 L270,307.468997 L270,307.468997 Z M226.487533,330.655017 C226.855221,329.775648 227.300317,329.062871 227.82282,328.51522 C228.345324,327.968546 228.916208,327.577227 229.535472,327.342728 C230.154251,327.10823 230.734811,326.990981 231.277151,326.990981 C231.935118,326.990981 232.718874,327.10823 233.628418,327.342728 C234.537477,327.577227 235.283013,327.968546 235.863572,328.51522 L235.863572,338.950395 C235.321233,339.771139 234.653589,340.328072 233.860641,340.621195 C233.06721,340.914318 232.283454,341.060879 231.509375,341.060879 C230.812703,341.060879 230.135383,340.934348 229.477416,340.67982 C228.818964,340.426268 228.229212,340.025667 227.706708,339.478016 C227.184205,338.931342 226.757977,338.198534 226.429477,337.279594 C226.100493,336.361631 225.936001,335.237993 225.936001,333.908681 C225.936001,332.61894 226.119361,331.534386 226.487533,330.655017 L226.487533,330.655017 Z M216.763158,340.709132 C217.45983,342.62469 218.397917,344.226607 219.578872,345.516347 C220.759344,346.806088 222.142527,347.773393 223.729874,348.418264 C225.316738,349.063134 227.019229,349.385569 228.8388,349.385569 C230.116031,349.385569 231.489539,349.082187 232.960774,348.476888 C234.431525,347.87159 235.669569,347.060616 236.676356,346.043968 L236.676356,348.682074 L245.733088,348.682074 L245.733088,307.879369 L235.747461,307.879369 L235.747461,321.187148 C234.856785,320.288726 233.889669,319.643856 232.844662,319.252537 C231.799654,318.862195 230.464367,318.666291 228.8388,318.666291 C227.367565,318.666291 225.85811,318.988726 224.310434,319.633596 C222.762275,320.278467 221.34958,321.245772 220.072348,322.535513 C218.795117,323.825254 217.750109,325.428147 216.937326,327.342728 C216.124542,329.258286 215.71815,331.48602 215.71815,334.02593 C215.71815,336.566817 216.066486,338.794551 216.763158,340.709132 L216.763158,340.709132 Z M193.251457,329.101466 C193.908941,328.320293 194.6448,327.77313 195.457584,327.459977 C196.270367,327.147802 197.063315,326.990981 197.837879,326.990981 C198.53455,326.990981 199.202194,327.10823 199.84081,327.342728 C200.479425,327.577227 201.040149,327.958286 201.524433,328.485908 C202.007749,329.013529 202.404465,329.707741 202.71458,330.56708 C203.023728,331.427396 203.179028,332.463097 203.179028,333.674183 C203.179028,335.081172 202.9947,336.253664 202.627496,337.191657 C202.259325,338.129651 201.804553,338.89177 201.263181,339.478016 C200.720841,340.064262 200.12093,340.474634 199.463446,340.709132 C198.804994,340.94363 198.186215,341.060879 197.605655,341.060879 C196.947203,341.060879 196.202152,340.94363 195.3705,340.709132 C194.537881,340.474634 193.832017,340.084292 193.251457,339.53664 L193.251457,329.101466 L193.251457,329.101466 Z M193.367569,346.864713 C194.334685,347.842277 195.389368,348.506201 196.531619,348.857948 C197.672903,349.209696 198.843698,349.385569 200.044006,349.385569 C201.591681,349.385569 203.159192,349.063134 204.746539,348.418264 C206.332919,347.773393 207.76545,346.796806 209.042681,345.487035 C210.319913,344.178241 211.36492,342.526494 212.177704,340.533258 C212.990487,338.540023 213.396879,336.21507 213.396879,333.556933 C213.396879,331.134273 213.067411,328.994476 212.409928,327.137542 C211.751476,325.281586 210.851609,323.728035 209.710325,322.476888 C208.568074,321.226719 207.232786,320.278467 205.704463,319.633596 C204.175172,318.988726 202.559281,318.666291 200.856789,318.666291 C199.385554,318.666291 197.885775,318.969673 196.357451,319.574972 C194.82816,320.181248 193.521901,320.992221 192.438673,322.007892 L192.438673,319.369786 L183.381942,319.369786 L183.381942,359 L193.367569,359 L193.367569,346.864713 L193.367569,346.864713 Z M166.662306,348.682074 L176.647933,348.682074 L176.647933,307.879369 L166.662306,307.879369 L166.662306,348.682074 Z M149.942186,348.682074 L159.927813,348.682074 L159.927813,307.879369 L149.942186,307.879369 L149.942186,348.682074 Z M114.325815,340.709132 C115.002651,342.62469 115.931546,344.226607 117.112502,345.516347 C118.292489,346.806088 119.666964,347.773393 121.234476,348.418264 C122.801987,349.063134 124.494802,349.385569 126.314373,349.385569 C127.591604,349.385569 128.965112,349.092446 130.436347,348.506201 C131.906615,347.919955 133.145142,347.119241 134.151929,346.102593 L134.151929,348.682074 L143.208661,348.682074 L143.208661,319.369786 L134.268041,319.369786 L134.268041,322.183766 C133.145142,320.894025 131.925967,319.985344 130.610515,319.457723 C129.294096,318.930101 127.93994,318.666291 126.546597,318.666291 C125.075362,318.666291 123.556714,318.988726 121.989203,319.633596 C120.421692,320.278467 118.999321,321.245772 117.722089,322.535513 C116.444858,323.825254 115.389691,325.428147 114.558039,327.342728 C113.725419,329.258286 113.309835,331.48602 113.309835,334.02593 C113.309835,336.566817 113.648011,338.794551 114.325815,340.709132 L114.325815,340.709132 Z M124.05019,330.655017 C124.398526,329.775648 124.833946,329.062871 125.35645,328.51522 C125.878953,327.968546 126.439677,327.577227 127.040073,327.342728 C127.639501,327.10823 128.210384,326.990981 128.752724,326.990981 C129.410208,326.990981 130.193963,327.098948 131.103991,327.313416 C132.01305,327.528861 132.758586,327.949004 133.339146,328.573844 L133.339146,338.950395 C132.796806,339.771139 132.129162,340.328072 131.336215,340.621195 C130.542299,340.914318 129.758544,341.060879 128.984948,341.060879 C128.288276,341.060879 127.620632,340.934348 126.982017,340.67982 C126.343401,340.426268 125.762841,340.025667 125.240338,339.478016 C124.717834,338.931342 124.301282,338.198534 123.992134,337.279594 C123.682019,336.361631 123.527686,335.237993 123.527686,333.908681 C123.527686,332.61894 123.701854,331.534386 124.05019,330.655017 L124.05019,330.655017 Z M65.239491,348.682074 L75.2251181,348.682074 L75.2251181,329.453213 C75.6508619,328.711124 76.2023936,328.15419 76.8797133,327.782413 C77.5565491,327.411612 78.2053246,327.225479 78.8245883,327.225479 C79.907816,327.225479 80.7404354,327.518602 81.3209951,328.104848 C81.9015548,328.691094 82.1918347,329.92221 82.1918347,331.798196 L82.1918347,348.682074 L92.1774618,348.682074 L92.1774618,329.453213 C92.6032056,328.711124 93.1547373,328.15419 93.832057,327.782413 C94.5088928,327.411612 95.1576683,327.225479 95.776932,327.225479 C96.8601597,327.225479 97.6927791,327.518602 98.2733388,328.104848 C98.8538985,328.691094 99.1441784,329.92221 99.1441784,331.798196 L99.1441784,348.682074 L109.129805,348.682074 L109.129805,330.156708 C109.129805,326.48339 108.355242,323.64938 106.807567,321.656144 C105.259407,319.662909 102.897981,318.666291 99.7247381,318.666291 C97.7508351,318.666291 96.0285079,319.135287 94.5577566,320.073281 C93.0865215,321.011274 91.9065339,322.106088 91.0163424,323.356257 C89.3907751,320.230101 86.6423087,318.666291 82.7723944,318.666291 C80.7984914,318.666291 79.1148682,319.096693 77.7215249,319.956032 C76.3281815,320.816347 75.1864141,321.812965 74.2962225,322.945885 L74.0639986,322.945885 L73.7156628,319.369786 L65.239491,319.369786 L65.239491,348.682074 L65.239491,348.682074 Z M30,344.636979 C31.0058197,345.536377 32.2249951,346.337091 33.6575262,347.040586 C34.8955698,347.626832 36.4340531,348.164713 38.272976,348.652762 C40.1109313,349.140812 42.2880302,349.385569 44.8042728,349.385569 C47.5130676,349.385569 49.8841703,349.043104 51.9161293,348.359639 C53.9480883,347.676174 55.6317115,346.747463 56.9669988,345.574972 C58.3022862,344.40248 59.2984299,343.035062 59.9568813,341.471251 C60.6143652,339.908418 60.9438329,338.2469 60.9438329,336.488162 C60.9438329,333.205186 60.0241295,330.635964 58.1861742,328.77903 C56.3472513,326.923074 53.8411685,325.525366 50.6679259,324.587373 C48.9262467,324.079782 47.4458195,323.64938 46.2266441,323.297632 C45.0074687,322.945885 44.0205171,322.604397 43.2657895,322.271702 C42.5110619,321.939985 41.9687223,321.588238 41.6402223,321.21646 C41.3107547,320.84566 41.1467465,320.386434 41.1467465,319.838782 C41.1467465,318.823112 41.6111943,317.992108 42.5400899,317.347238 C43.4689854,316.702368 44.7462168,316.379932 46.371784,316.379932 C47.4937156,316.379932 48.6258071,316.595378 49.7680583,317.024803 C50.909342,317.455205 51.9640255,317.924201 52.9321088,318.431793 C54.0540404,319.05761 55.1382357,319.741563 56.1832432,320.483653 L60.595497,311.455468 C59.3182657,310.634724 57.9249223,309.892634 56.4154671,309.227734 C55.1382357,308.68106 53.6379726,308.172492 51.9161293,307.703495 C50.1933183,307.234498 48.345687,307 46.371784,307 C43.8173212,307 41.5821663,307.362007 39.6663193,308.084555 C37.7504722,308.80808 36.153933,309.765614 34.8767016,310.957159 C33.5994702,312.149681 32.6415467,313.517587 32.002931,315.060879 C31.3643153,316.605148 31.0450075,318.197294 31.0450075,319.838782 C31.0450075,322.926832 31.8476313,325.43743 33.4543303,327.372041 C35.0600617,329.306652 37.3339206,330.723901 40.275907,331.622322 C42.24981,332.208568 43.9044052,332.687824 45.2396925,333.058625 C46.5749799,333.430402 47.6490154,333.791432 48.461799,334.143179 C49.2745826,334.494927 49.8551423,334.856933 50.2034781,335.227734 C50.5518139,335.599511 50.7259819,336.07779 50.7259819,336.664036 C50.7259819,337.641601 50.1642903,338.442803 49.0423587,339.067644 C47.9194594,339.693461 46.4100042,340.005637 44.5139929,340.005637 C43.2749817,340.005637 42.0848343,339.771139 40.9435506,339.302142 C39.8012994,338.833145 38.7853199,338.305524 37.8956121,337.719278 C36.8506046,337.055355 35.8438173,336.293236 34.8767016,335.43292 L30,344.636979 L30,344.636979 Z"/>
  <polygon fill="#CA41FC" points="108 193 192 193 192 277 108 277"/>
  <polygon fill="#8B48FE" points="24 193 108 193 108 277 24 277"/>
  <polygon fill="#81E650" points="192 108 276 108 276 193 192 193" transform="matrix(-1 0 0 1 468 0)"/>
  <polygon fill="#00D267" points="108 108 192 108 192 193 108 193" transform="matrix(-1 0 0 1 300 0)"/>
  <polygon fill="#00C0FF" points="24 108 108 108 108 193 24 193" transform="matrix(-1 0 0 1 132 0)"/>
  <polygon fill="#FFD200" points="192 24 276 24 276 108 192 108"/>
  <polygon fill="#FF8E00" points="108 24 192 24 192 108 108 108"/>
  <polygon fill="#FF5400" points="24 24 108 24 108 108 24 108"/>
</svg>
