<?xml version="1.0" encoding="UTF-8"?> <svg xmlns="http://www.w3.org/2000/svg" width="512" height="512" viewBox="0 0 512 512" fill="none"><path d="M201.329 151.761C202.463 152.702 203.45 153.587 204.392 154.381L256.017 124.558L307.064 153.995L310.115 151.375L256.017 120.168L201.329 151.761Z" fill="#576573"></path><path d="M327.948 214.015C326.707 214.633 325.435 215.186 324.136 215.671V242.499L290.105 262.124C291.092 262.385 291.75 262.498 291.75 262.498C290.615 264.018 287.802 265.153 285.511 265.901L287.78 267.921L327.925 244.745L327.948 214.015Z" fill="#576573"></path><path d="M264.627 321.928L276.765 314.918L269.766 310.187L267.928 311.242C267.042 314.867 265.939 318.435 264.627 321.928Z" fill="#576573"></path><path d="M220.273 262.498C220.273 262.498 220.942 262.373 221.929 262.124L187.955 242.499V216.091C186.684 215.649 185.402 215.138 184.154 214.56V244.7L225.207 268.397L227.646 266.128C225.287 265.538 221.566 264.279 220.273 262.498Z" fill="#576573"></path><path d="M187.841 139.43C189.293 140.836 190.745 142.198 192.163 143.525L256.017 106.635L319.213 143.128C320.635 141.804 322.072 140.436 323.524 139.021L256.017 100.056L187.841 139.43Z" fill="#576573"></path><path d="M345.36 198.361C343.6 200.688 341.706 202.911 339.689 205.019V251.461L296.582 276.338C297.955 277.744 299.305 279.185 300.564 280.625L345.36 254.75V198.361Z" fill="#576573"></path><path d="M180.944 132.533L256.822 88.7801L330.977 131.591C332.792 129.674 334.538 127.746 336.195 125.817L256.788 80L175.635 126.85C177.359 128.71 179.129 130.627 180.944 132.533Z" fill="#576573"></path><path d="M229.484 301.872L157.689 260.422V164.25C155.126 161.482 152.539 158.306 150.089 155.096V264.812L229.132 310.448C229.087 307.771 229.234 304.811 229.484 301.872Z" fill="#576573"></path><path d="M355.955 161.244V260.422L284.104 301.906C284.354 304.856 284.49 307.816 284.444 310.494L363.567 264.812V151.511C361.185 154.778 358.587 158.158 355.955 161.244Z" fill="#576573"></path><path d="M231.628 285.64L229.223 284.256L221.078 286.161L230.664 291.697C231.061 289.179 231.378 287.08 231.628 285.64Z" fill="#576573"></path><path d="M216.473 276.882L172.436 251.461V206.143C170.421 204.14 168.527 202.019 166.764 199.79V254.75L212.548 281.193C213.762 279.763 215.1 278.311 216.473 276.882Z" fill="#576573"></path><path d="M248.927 321.883C247.623 318.389 246.528 314.821 245.649 311.197L243.845 310.165L236.846 314.906L248.927 321.883Z" fill="#576573"></path><path d="M283.242 284.006L281.767 284.857C281.994 286.116 282.357 288.26 282.754 290.88L291.398 285.889L283.242 284.006Z" fill="#576573"></path><path d="M253.363 204.963C254.497 207.413 255.756 209.931 256.936 212.495C258.07 209.931 259.329 207.413 260.521 204.963C268.722 187.947 272.863 178.078 262.313 172.622L261.848 172.27C260.135 170.568 258.445 169.706 256.936 169.706C255.029 169.882 253.267 170.803 252.035 172.27L251.559 172.622C241.021 178.078 245.15 187.958 253.363 204.963Z" fill="#00CBC6"></path><path d="M367.753 130.752C343.375 170.637 291.75 189.501 291.75 189.501C382.636 135.686 379.222 81.5768 379.222 81.5768C346.642 142.878 291.954 176.025 271.898 186.62C270.673 192.711 267.361 199.574 263.958 206.619C262.199 210.26 260.384 214.038 258.706 217.963L256.959 222.024L255.212 217.963C253.544 214.083 251.718 210.317 249.96 206.619C246.761 199.983 243.63 193.506 242.257 187.698C224.107 178.407 166.606 145.113 132.813 81.5654C132.813 81.5654 129.41 135.675 220.284 189.49C220.284 189.49 168.682 170.625 144.281 130.741C144.281 130.741 161.671 183.353 214.091 195.264C214.091 195.264 181.012 194.833 162.216 175.356C162.216 175.356 161.138 198.78 211.584 202.308C211.584 202.308 186.786 208.32 174.648 197.294C174.648 197.294 175.25 209.183 212.355 210.317C212.355 210.317 228.713 209.183 239.115 216.443C238.786 229.76 241.894 243.565 245.014 253.877C244.469 254.251 244.31 256.883 225.854 262.714C225.854 262.997 237.686 265.879 243.437 260.445C244.673 261.75 230.04 265.743 216.314 282.917C216.473 282.236 234.271 276.428 246.817 270.836C246.953 270.756 237.549 280.104 235.644 307.964C235.961 307.873 241.452 298.889 250.073 288.906C249.469 301.756 251.748 314.577 256.743 326.432V283.042V326.432C261.541 315.095 263.832 302.856 263.459 290.551C271.274 299.865 276.186 307.873 276.493 307.964C274.587 280.104 265.149 270.756 265.319 270.836C277.797 276.428 295.663 282.18 295.822 282.917C282.108 265.743 267.361 261.75 268.677 260.456C274.428 265.856 286.316 262.975 286.271 262.725C267.599 256.826 267.656 254.206 267.089 253.877C270.219 243.588 273.35 229.783 273.055 216.443C283.469 209.205 299.713 210.385 299.713 210.385C336.819 209.251 337.42 197.362 337.42 197.362C325.282 208.389 300.485 202.376 300.485 202.376C350.93 198.848 349.853 175.424 349.853 175.424C331.022 194.833 297.989 195.264 297.989 195.264C350.363 183.353 367.753 130.752 367.753 130.752Z" fill="#00CBC6"></path><path d="M31.2974 372C34.304 373.25 37.0713 375.011 39.4762 377.206L34.9387 382.209C32.9542 380.573 30.7318 379.25 28.348 378.284C26.1348 377.443 23.7846 377.02 21.417 377.036C18.697 376.924 16.0117 377.678 13.7486 379.192C12.7585 379.901 11.9638 380.849 11.4382 381.948C10.9127 383.046 10.6734 384.26 10.7425 385.476C10.6886 386.991 11.0453 388.492 11.7748 389.821C12.7238 391.237 14.0526 392.358 15.609 393.054C18.241 394.341 20.9818 395.392 23.7992 396.196C27.0093 397.138 30.1237 398.38 33.1011 399.905C35.528 401.192 37.5888 403.073 39.0906 405.373C40.6964 408.028 41.4854 411.098 41.3593 414.198C41.4194 417.425 40.5362 420.598 38.8183 423.33C37.0203 426.055 34.4765 428.205 31.4902 429.524C27.9237 431.111 24.0491 431.886 20.1465 431.792C11.9336 431.792 5.21812 429.236 0 424.124L4.46944 419.133C6.68261 420.961 9.15147 422.455 11.7975 423.568C14.4348 424.579 17.2433 425.068 20.0671 425.009C23.3092 425.124 26.4989 424.167 29.1421 422.286C30.3439 421.371 31.3025 420.174 31.9335 418.802C32.5645 417.429 32.8485 415.922 32.7607 414.414C32.819 412.72 32.4276 411.041 31.6264 409.547C30.6846 408.064 29.3652 406.858 27.8035 406.054C25.3395 404.767 22.7463 403.744 20.0671 403.002C13.9717 401.164 9.52118 398.956 6.7155 396.377C5.29817 395.03 4.18763 393.394 3.45944 391.579C2.73126 389.765 2.40253 387.815 2.49562 385.862C2.45755 383.014 3.28422 380.221 4.86647 377.853C6.5274 375.438 8.82419 373.53 11.5026 372.34C14.5483 370.981 17.8554 370.307 21.1901 370.366C24.6318 370.273 28.0604 370.827 31.2974 372Z" fill="#576573"></path><path d="M92.667 371.353L91.8049 378.329H75.2997V430.692H67.1209V378.329H50.2414V371.353H92.667Z" fill="#576573"></path><path d="M135.41 430.692L130.873 415.786H108.458L103.92 430.692H95.7072L114.742 371.353H125.076L144.02 430.692H135.41ZM110.454 409.139H128.967L119.745 378.137L110.454 409.139Z" fill="#576573"></path><path d="M188.068 371.693C190.781 372.792 193.298 374.325 195.521 376.231L191.04 381.449C187.855 378.685 183.799 377.131 179.583 377.059C177.288 376.993 175.011 377.473 172.938 378.459C170.866 379.445 169.057 380.909 167.66 382.731C164.635 386.512 163.123 392.596 163.123 400.983C163.123 409.143 164.617 415.159 167.604 419.031C168.967 420.889 170.761 422.388 172.832 423.4C174.903 424.411 177.188 424.905 179.492 424.839C181.766 424.886 184.024 424.449 186.117 423.557C188.244 422.555 190.266 421.342 192.152 419.938L196.201 425.1C194.173 427.12 191.773 428.73 189.134 429.841C186.001 431.154 182.628 431.799 179.231 431.736C174.617 431.869 170.072 430.592 166.202 428.075C162.333 425.557 159.323 421.919 157.576 417.647C155.352 412.38 154.28 406.698 154.434 400.983C154.281 395.255 155.397 389.565 157.701 384.319C159.585 380.049 162.666 376.416 166.571 373.86C170.306 371.51 174.638 370.285 179.05 370.332C182.113 370.243 185.167 370.704 188.068 371.693Z" fill="#576573"></path><path d="M219.025 371.353V430.692H210.846V371.353H219.025ZM251.321 371.353L228.849 398.464L252.965 430.681H242.881L219.456 398.986L242.019 371.342L251.321 371.353Z" fill="#576573"></path><path d="M296.628 430.692V405.112H278.705V430.692H264.582V371.001H278.705V394.086H296.628V371.001H310.751V430.692H296.628Z" fill="#00CBC6"></path><path d="M359.404 430.692L356.307 417.851H338.906L335.888 430.692H321.255L339.246 371.001H356.386L374.389 430.692H359.404ZM341.322 407.607H353.891L347.606 381.256L341.322 407.607Z" fill="#00CBC6"></path><path d="M451.288 371.001L441.306 430.692H422.963L415.555 385.136L407.717 430.692H389.805L379.981 371.001H394.104L400.083 420.018L408.352 371.013H423.167L430.915 420.018L437.891 371.013L451.288 371.001Z" fill="#00CBC6"></path><path d="M476.176 371.001V430.692H462.053V371.001H476.176ZM510.457 371.001L491.422 397.795L512 430.692H495.642L476.607 398.827L495.552 371.001H510.457Z" fill="#00CBC6"></path></svg> 