<?xml version="1.0" encoding="UTF-8" standalone="no"?>
<svg viewBox="0 0 31 31"
  xmlns="http://www.w3.org/2000/svg" class="css-1676bx5">
  <g fill="none">
    <rect fill="#E01B2A" width="30.904" height="30.904" rx="15.452"></rect>
    <rect fill="#FFF" x="8.252" y="7.054" width="8.127" height="4.334"></rect>
    <rect fill="#FFF" x="8.252" y="19.516" width="12.19" height="4.334"></rect>
    <path d="M23.6466804,17.6192166 L8.25524408,17.6192166 L8.25524408,13.2834069 L23.6556273,13.2834069 C24.0288247,13.2637895 24.3575423,13.5268228 24.4202439,13.8952378 C24.4526999,14.0468938 24.4651938,14.2021415 24.457408,14.357036 L23.8813647,14.357036 C23.8814736,14.2702129 23.8752631,14.1834971 23.8627826,14.0975756 C23.8442006,13.9268961 23.7492257,13.8319213 23.6170868,13.8319213 C23.4594835,13.8319213 23.3707027,13.969566 23.3707027,14.2235206 C23.3707027,14.4774751 23.3899729,14.5524915 23.7877663,15.1264702 L24.0837025,15.55661 C24.3375523,15.9029025 24.4848842,16.3157186 24.5076483,16.7444842 C24.536688,16.9817284 24.4559019,17.2192593 24.2882385,17.3896032 C24.120575,17.5599471 23.8843552,17.6444901 23.6466804,17.6192166 L23.6466804,17.6192166 Z" fill="#FFF"></path>
  </g>
</svg>