<svg width="32" height="32" viewBox="0 0 32 32" fill="none" xmlns="http://www.w3.org/2000/svg">
<g clip-path="url(#clip0)">
<rect y="0.000244141" width="32" height="32" rx="5.12" fill="#008AA6"/>
<path fill-rule="evenodd" clip-rule="evenodd" d="M0 6.27224L9.86887 8.77216C10.015 8.80917 9.98814 9.02424 9.83744 9.02424H0V6.27224ZM17.6351 10.004L4.66024 11.8427C4.2815 11.8964 4 12.2206 4 12.6031V17.5822C4 17.9647 4.34898 18.2522 4.7244 18.1789L6.7944 17.7752C6.91472 17.7517 7.00151 17.6462 7.00139 17.5236L6.999 15.1577C6.99865 14.8034 7.23144 14.491 7.57111 14.3901L17.8169 11.3453C17.9255 11.313 18 11.2132 18 11.0999V10.3208C18 10.1262 17.8278 9.97665 17.6351 10.004ZM11.008 18.2444C11.008 17.6549 11.3454 17.1174 11.8763 16.8611L23.2474 11.3726C23.5661 11.2188 23.936 11.451 23.936 11.8049V16.7555C23.936 17.3447 23.6122 17.8862 23.0931 18.165L20.4017 19.8552C20.32 19.9065 20.257 19.9828 20.2222 20.0728L18.9758 23.2923C18.9345 23.4121 18.787 23.465 18.707 23.3887L16.8863 21.9298C16.8289 21.8837 16.7501 21.8746 16.6837 21.9063L11.7623 24.2511C11.4212 24.4343 11.008 24.1872 11.008 23.8V18.2444Z" fill="white"/>
</g>
<defs>
<clipPath id="clip0">
<rect width="32" height="32" fill="white" transform="translate(0 0.000244141)"/>
</clipPath>
</defs>
</svg>
