<?xml version="1.0" encoding="utf-8"?>
<!-- Generator: Adobe Illustrator 25.4.1, SVG Export Plug-In . SVG Version: 6.00 Build 0)  -->
<svg version="1.1" id="Layer_1" xmlns="http://www.w3.org/2000/svg" xmlns:xlink="http://www.w3.org/1999/xlink" x="0px" y="0px"
	 viewBox="0 0 342.3 121" style="enable-background:new 0 0 342.3 121;" xml:space="preserve">
<style type="text/css">
	.st0{fill:#131313;}
</style>
<path class="st0" d="M206.9,71.1c-5.1,0-7.7-4.2-7.7-9.4s2.6-9.1,7.7-9.1c5.2,0,7.7,4.2,7.7,9.1C214.6,67,212,71.1,206.9,71.1z
	 M157,52.6c3,0,4.2,1.7,4.2,3.2c0,3.7-3.7,5.2-11.5,5.5C149.8,56.8,152.3,52.6,157,52.6z M123.9,71.1c-4.8,0-6.8-3.9-6.8-9.4
	c0-5.4,2.1-9.1,6.8-9.1c4.9,0,7.2,3.9,7.2,9.1C131.1,67.2,128.7,71.1,123.9,71.1z M83.1,47.2h-7.5l12.5,28.7
	c-2.4,5.3-3.7,6.6-5.3,6.6c-1.7,0-3.4-1.4-4.6-2.6l-3.3,4.4c2.3,2.4,5.3,3.7,8.5,3.7c4,0,7-2.3,8.7-6.4l14.4-34.4h-7.4l-7.5,20.5
	L83.1,47.2z M282.7,52.6c3.7,0,4.4,2.5,4.4,8.4v15.5h6.5V56.9c0-7-4.8-10.1-9.3-10.1c-4,0-7.6,2.5-9.6,7c-1.1-4.4-4.8-7-9.1-7
	c-3.7,0-7.4,2.4-9.5,6.8v-6.4h-6.5v29.2h6.5V63.9c0-6.3,3.3-11.4,7.8-11.4c3.7,0,4.4,2.5,4.4,8.4v15.5h6.5V63.9
	C274.9,57.6,278.2,52.6,282.7,52.6z M230.5,47.2h-3.1v29.2h6.5V65.2c0-7.1,3.1-11.9,7.8-11.9c1.2,0,2.2,0,3.3,0.5l1-6.9
	c-0.8-0.1-1.6-0.2-2.3-0.2c-4.6,0-7.9,3.1-9.8,7.2v-6.8L230.5,47.2L230.5,47.2z M206.9,46.8c-8.6,0-14.5,6.6-14.5,14.9
	c0,8.6,5.9,15.1,14.5,15.1c8.7,0,14.6-6.6,14.6-15.1C221.5,53.3,215.5,46.8,206.9,46.8z M157.4,71.1c-3.4,0-5.9-1.7-7-5.2
	c8.6-0.4,17.1-2.5,17.1-10.1c0-4.4-4.3-8.9-10.5-8.9c-8.4,0-14,6.8-14,14.9c0,8.4,5.6,15.1,13.9,15.1c5.8,0,9.5-2.3,12.4-5.7
	l-3.2-4.3C162.7,70.2,160.6,71.1,157.4,71.1z M125.2,46.8c-3.3,0-6.6,1.9-7.9,4.9v-4.5h-6.5v40.6h6.5V73.3c1.4,2.1,4.5,3.5,7.4,3.5
	c8.7,0,13.3-6.4,13.3-15.1C137.9,53.1,133.4,46.8,125.2,46.8z M79.5,35.6H48.7v6.3h12v34.5h6.8V41.9h11.9L79.5,35.6L79.5,35.6z
	 M176.5,47.2h-3.9V53h3.9v23.3h6.5V53.1h6.3v-5.8H183v-4.6c0-2.9,1.2-3.9,3.9-3.9c1,0,1.9,0.3,3.2,0.7l1.5-5.5c-1.2-0.7-3.6-1-5.1-1
	c-6.2,0-9.9,3.7-9.9,10.2L176.5,47.2L176.5,47.2z"/>
</svg>
