<svg width="472" height="472" viewBox="0 0 472 472" fill="none" xmlns="http://www.w3.org/2000/svg">
<rect width="472" height="472" fill="none"/>
<g clip-path="url(#clip0_103_95)">
<rect width="354" height="472" transform="translate(59)" fill="none"/>
<path d="M59.4219 412.975C137.527 491.079 264.16 491.079 342.265 412.975C420.369 334.87 420.369 208.237 342.265 130.132L306.909 165.487C365.488 224.066 365.488 319.041 306.909 377.619C248.331 436.198 153.356 436.198 94.7769 377.619L59.4219 412.975Z" fill="#00C98D"/>
<path d="M130.133 342.264C169.185 381.316 232.501 381.316 271.554 342.264C310.606 303.212 310.606 239.895 271.554 200.843L236.199 236.198C255.725 255.724 255.725 287.382 236.199 306.909C216.672 326.435 185.014 326.435 165.488 306.909L130.133 342.264Z" fill="#00C98D"/>
<path d="M412.974 59.4209C334.869 -18.6836 208.236 -18.6836 130.131 59.4209C52.0265 137.526 52.0265 264.159 130.131 342.264L165.486 306.909C106.908 248.33 106.908 153.355 165.486 94.7769C224.065 36.1979 319.04 36.1979 377.618 94.7769L412.974 59.4209Z" fill="#00C98D"/>
<path d="M342.264 130.132C303.212 91.08 239.894 91.08 200.842 130.132C161.789 169.185 161.789 232.501 200.842 271.553L236.197 236.198C216.671 216.672 216.671 185.014 236.197 165.487C255.723 145.961 287.381 145.961 306.908 165.487L342.264 130.132Z" fill="#00C98D"/>
<path d="M412.974 59.4209C334.869 -18.6836 208.236 -18.6836 130.131 59.4209C52.0265 137.526 52.0265 264.159 130.131 342.264L165.486 306.909C106.908 248.33 106.908 153.355 165.486 94.7769C224.065 36.1979 319.04 36.1979 377.618 94.7769L412.974 59.4209Z" fill="white" fill-opacity="0.3"/>
<path d="M342.264 130.132C303.212 91.08 239.894 91.08 200.842 130.132C161.789 169.185 161.789 232.501 200.842 271.553L236.197 236.198C216.671 216.672 216.671 185.014 236.197 165.487C255.723 145.961 287.381 145.961 306.908 165.487L342.264 130.132Z" fill="white" fill-opacity="0.3"/>
</g>
<defs>
<clipPath id="clip0_103_95">
<rect width="354" height="472" fill="white" transform="translate(59)"/>
</clipPath>
</defs>
</svg>
