<svg xmlns="http://www.w3.org/2000/svg" xmlns:xlink="http://www.w3.org/1999/xlink" version="1.1" width="1080" height="1080" viewBox="0 0 1080 1080" xml:space="preserve">
    <rect x="0" y="0" width="100%" height="100%" fill="transparent"></rect>
    <g transform="matrix(1 0 0 1 540 540)" id="747e393d-dd7a-48b5-b912-3c696589fd28"  >
<rect style="stroke: none; stroke-width: 1; stroke-dasharray: none; stroke-linecap: butt; stroke-dashoffset: 0; stroke-linejoin: miter; stroke-miterlimit: 4; fill: rgb(255,255,255); fill-rule: nonzero; opacity: 1; visibility: hidden;" vector-effect="non-scaling-stroke"  x="-540" y="-540" rx="0" ry="0" width="1080" height="1080" />
</g>
    <g transform="matrix(1 0 0 1 540 540)" id="6dff6187-b520-4b6d-91f5-2d5903605af8"  >
</g>
    <g transform="matrix(29.05 0 0 29.05 540 518.45)"  >
<path style="stroke: none; stroke-width: 1; stroke-dasharray: none; stroke-linecap: butt; stroke-dashoffset: 0; stroke-linejoin: miter; stroke-miterlimit: 4; fill: rgb(156,36,199); fill-rule: evenodd; opacity: 1;"  transform=" translate(-13.38, -13.5)" d="M 5.94572 2.27516 C 8.14577 0.791762 10.7323 5.1174e-7 13.3783 5.1174e-7 C 15.1353 -0.000487711 16.8752 0.348369 18.4985 1.02663 C 20.1219 1.7049 21.5969 2.69928 22.8393 3.95297 C 24.0817 5.20665 25.0671 6.69508 25.7392 8.3332 C 26.4114 9.97131 26.7571 11.727 26.7566 13.5 C 26.7566 16.17 25.972 18.7801 24.5019 21.0002 C 23.0319 23.2203 20.9425 24.9506 18.4979 25.9724 C 16.0534 26.9941 13.3634 27.2615 10.7683 26.7406 C 8.17318 26.2197 5.78941 24.9339 3.91842 23.0459 C 2.04743 21.1579 0.773271 18.7525 0.257067 16.1337 C -0.259138 13.515 0.00579578 10.8006 1.01837 8.33378 C 2.03094 5.86697 3.74567 3.75856 5.94572 2.27516 Z M 3.75977 11.668 L 7.77363 15.7221 C 7.81348 15.7638 7.86123 15.797 7.91406 15.8196 C 7.96689 15.8423 8.0237 15.854 8.0811 15.854 C 8.1385 15.854 8.19533 15.8423 8.24816 15.8196 C 8.301 15.797 8.34875 15.7638 8.38859 15.7221 L 12.3951 11.668 C 12.4751 11.5872 12.5201 11.4776 12.5201 11.3633 C 12.5201 11.2491 12.4751 11.1395 12.3951 11.0586 L 8.37754 7.00826 C 8.29743 6.92748 8.18884 6.8821 8.0756 6.8821 C 7.96235 6.8821 7.85373 6.92748 7.77363 7.00826 L 3.75977 11.0586 C 3.67971 11.1395 3.63476 11.2491 3.63476 11.3633 C 3.63476 11.4776 3.67971 11.5872 3.75977 11.668 Z M 13.6803 21.0693 L 17.6941 17.019 C 17.7742 16.9382 17.8191 16.8286 17.8191 16.7143 C 17.8191 16.6 17.7742 16.4904 17.6941 16.4096 L 13.6803 12.3555 C 13.6002 12.2747 13.4915 12.2293 13.3783 12.2293 C 13.265 12.2293 13.1564 12.2747 13.0763 12.3555 L 9.0588 16.4096 C 8.97875 16.4904 8.93377 16.6 8.93377 16.7143 C 8.93377 16.8286 8.97875 16.9382 9.0588 17.019 L 13.0763 21.0693 C 13.1564 21.1501 13.265 21.1955 13.3783 21.1955 C 13.4915 21.1955 13.6002 21.1501 13.6803 21.0693 Z M 18.9793 15.7221 L 22.9931 11.668 C 23.0332 11.6283 23.0651 11.5808 23.0868 11.5285 C 23.1085 11.4762 23.1197 11.4201 23.1197 11.3633 C 23.1197 11.3066 23.1085 11.2504 23.0868 11.1981 C 23.0651 11.1458 23.0332 11.0984 22.9931 11.0586 L 18.9793 7.00826 C 18.8992 6.92748 18.7906 6.8821 18.6773 6.8821 C 18.5641 6.8821 18.4555 6.92748 18.3754 7.00826 L 14.3578 11.0586 C 14.2778 11.1395 14.2328 11.2491 14.2328 11.3633 C 14.2328 11.4776 14.2778 11.5872 14.3578 11.668 L 18.3754 15.7221 C 18.4555 15.8029 18.5641 15.8483 18.6773 15.8483 C 18.7906 15.8483 18.8992 15.8029 18.9793 15.7221 Z" stroke-linecap="round" />
</g>
</svg>