<svg id="Layer_1" data-name="Layer 1" xmlns="http://www.w3.org/2000/svg" viewBox="0 0 135.19 145.55"><defs><style>.cls-1{fill:#475066;}.cls-2{fill:#46db83;}.cls-3{fill:#fff;}</style></defs><title>Full</title><path class="cls-1" d="M67.59,32.19A45.65,45.65,0,0,1,78.5,33.51a1.91,1.91,0,0,0,2.21-1.17h0a1.91,1.91,0,0,0-1.33-2.54A49.34,49.34,0,0,0,56,29.74a1.91,1.91,0,0,0-1.33,2.55h0a1.89,1.89,0,0,0,2.2,1.17A45.66,45.66,0,0,1,67.59,32.19Z"/><path class="cls-1" d="M91.14,37.35h0A1.93,1.93,0,0,0,92,39.26a45.77,45.77,0,1,1-48.69-.11,1.92,1.92,0,0,0,.89-1.92h0a1.91,1.91,0,0,0-2.88-1.33A49.6,49.6,0,1,0,94,36,1.91,1.91,0,0,0,91.14,37.35Z"/><path class="cls-2" d="M77.86,50.35a52.39,52.39,0,0,0-7.32-1c-1,0-2-.08-3-.08a52,52,0,0,0-8.89.75A53.06,53.06,0,0,0,41.18,56.5a52.45,52.45,0,0,0-9.77,7.38,3.26,3.26,0,0,0-1,2.76l4.75,37.87a41.87,41.87,0,0,0,64.85,0l.72-5.73a14,14,0,0,0,7.2-12.57,14.47,14.47,0,0,0-4.31-10.5l1.14-9.07a3.2,3.2,0,0,0-.93-2.7,52.17,52.17,0,0,0-26-13.59Z"/><path class="cls-2" d="M63,96.36a10.37,10.37,0,0,1-4.77,1.15c-6,0-10.53-4.85-10.53-11.3s4.53-11.3,10.53-11.3a10.13,10.13,0,0,1,6.83,2.57,11.56,11.56,0,0,1,3.69,8.73A11.15,11.15,0,0,1,63,96.36Z"/><path class="cls-2" d="M99.43,96.36a10.37,10.37,0,0,1-4.77,1.15c-6,0-10.52-4.85-10.52-11.3s4.52-11.3,10.52-11.3a10.13,10.13,0,0,1,6.83,2.57,11.53,11.53,0,0,1,3.69,8.73A11.15,11.15,0,0,1,99.43,96.36Z"/><path class="cls-1" d="M50.44,52.22,47.09,30.79A6.4,6.4,0,0,1,45.3,18.17,6.48,6.48,0,0,1,53,22.8a6.41,6.41,0,0,1-3.27,7.29l7.8,20.21h0a51.84,51.84,0,0,0-7.08,1.92Z"/><path class="cls-1" d="M77.86,50.34l7.81-20.25a6.4,6.4,0,0,1,4.76-11.82,6.4,6.4,0,0,1-2.14,12.52c-1,6.23-2.19,14-3.37,21.49v0a53.86,53.86,0,0,0-7.06-1.95Z"/><path class="cls-3" d="M63,96.36a10.37,10.37,0,0,1-4.77,1.15c-6,0-10.53-4.85-10.53-11.3s4.53-11.3,10.53-11.3a10.13,10.13,0,0,1,6.83,2.57,11.56,11.56,0,0,1,3.69,8.73A11.15,11.15,0,0,1,63,96.36Z"/><path class="cls-3" d="M99.43,96.36a10.37,10.37,0,0,1-4.77,1.15c-6,0-10.52-4.85-10.52-11.3s4.52-11.3,10.52-11.3a10.13,10.13,0,0,1,6.83,2.57,11.53,11.53,0,0,1,3.69,8.73A11.15,11.15,0,0,1,99.43,96.36Z"/><path class="cls-1" d="M95.49,82.05a3.26,3.26,0,0,0-2.75-1.59A3.22,3.22,0,0,0,90,81.92l0,0a7.18,7.18,0,0,0-1.17,3.86,6.72,6.72,0,0,0,1.07,4,3.12,3.12,0,0,0,5.47,0A6.12,6.12,0,0,0,96.55,86,6.6,6.6,0,0,0,95.49,82.05Z"/><circle class="cls-3" cx="93.43" cy="84.14" r="1.32"/><path class="cls-1" d="M59.08,82.05a3.26,3.26,0,0,0-2.75-1.59,3.22,3.22,0,0,0-2.72,1.46l0,0a7.18,7.18,0,0,0-1.17,3.86,6.72,6.72,0,0,0,1.07,4,3.12,3.12,0,0,0,5.47,0A6.12,6.12,0,0,0,60.14,86,6.6,6.6,0,0,0,59.08,82.05Z"/><circle class="cls-3" cx="57.01" cy="84.14" r="1.32"/><path class="cls-1" d="M110.22,119.79a1.42,1.42,0,0,0,.84-1.35c0-1.06-.76-1.55-1.9-1.55h-1.52a.64.64,0,0,0-.64.64v3.34a.64.64,0,0,0,.64.64.65.65,0,0,0,.64-.64v-.81h.59l1,1.21a.62.62,0,0,0,.49.24.63.63,0,0,0,.64-.61.65.65,0,0,0-.17-.45Zm-1.13-.74h-.81V118h.81c.44,0,.69.2.69.54S109.53,119.05,109.09,119.05Z"/><path class="cls-1" d="M108.88,123.88a4.69,4.69,0,1,1,4.61-4.69A4.65,4.65,0,0,1,108.88,123.88Zm0-8.55a3.86,3.86,0,1,0,3.8,3.86A3.83,3.83,0,0,0,108.88,115.33Z"/><path class="cls-1" d="M110.22,119.79a1.42,1.42,0,0,0,.84-1.35c0-1.06-.76-1.55-1.9-1.55h-1.52a.64.64,0,0,0-.64.64v3.34a.64.64,0,0,0,.64.64.65.65,0,0,0,.64-.64v-.81h.59l1,1.21a.62.62,0,0,0,.49.24.63.63,0,0,0,.64-.61.65.65,0,0,0-.17-.45Zm-1.13-.74h-.81V118h.81c.44,0,.69.2.69.54S109.53,119.05,109.09,119.05Z"/><path class="cls-1" d="M108.88,123.88a4.69,4.69,0,1,1,4.61-4.69A4.65,4.65,0,0,1,108.88,123.88Zm0-8.55a3.86,3.86,0,1,0,3.8,3.86A3.83,3.83,0,0,0,108.88,115.33Z"/></svg>