<?xml version="1.0" encoding="iso-8859-1"?>
<!-- Uploaded to: SVG Repo, www.svgrepo.com, Generator: SVG Repo Mixer Tools -->
<svg height="800px" width="800px" version="1.1" id="Layer_1" xmlns="http://www.w3.org/2000/svg" xmlns:xlink="http://www.w3.org/1999/xlink" 
	 viewBox="0 0 512 512" xml:space="preserve">
<path style="fill:#2CABE2;" d="M426.667,34.133c-69.036,0-121.735,61.071-136.273,118.533c-1.59,6.288,4.463,12.115,10.69,10.276
	c13.693-4.045,31.867-6.925,40.686,2.331c9.465,9.934,8.803,33.955-1.767,64.257c-15.401,44.146-45.632,84.343-59.578,86.284
	c-4.809,0.671-8.572-0.22-11.849-2.797c-14.681-11.546-18.96-54.354-23.099-95.753c-6.606-66.082-14.094-140.98-62.461-165.164
	C109.427,15.304,6.227,142.823,1.87,148.27c-2.079,2.599-2.458,6.17-0.969,9.147l17.067,34.133
	c2.549,5.099,9.565,6.265,13.628,2.256c14.128-13.933,39.399-31.429,48.778-24.729c23.297,16.641,38.427,77.207,53.059,135.779
	c21.249,85.057,43.22,173.01,97.679,173.01c57.819,0,130.474-60.703,179.189-117.511c29.339-34.213,54.224-71.316,71.965-107.298
	C501.996,213.039,512,176.705,512,145.067C512,68.435,469.141,34.133,426.667,34.133z"/>
<path style="fill:#0099D4;" d="M256.711,460.8c-54.458,0-76.429-87.953-97.678-173.01c-14.634-58.572-29.763-119.139-53.06-135.779
	c-8.021-5.73-27.662,6.238-42.019,18.539c6.803-3.029,12.798-4.059,16.419-1.472c23.297,16.641,38.427,77.207,53.059,135.779
	c21.249,85.057,43.22,173.01,97.679,173.01c30.55,0,65.242-16.95,98.356-41.316C304.493,451.404,279.454,460.8,256.711,460.8z"/>
</svg>