<?xml version="1.0" encoding="utf-8"?>
<!-- Generator: Adobe Illustrator 22.1.0, SVG Export Plug-In . SVG Version: 6.00 Build 0)  -->
<svg version="1.1" id="Layer_1" xmlns="http://www.w3.org/2000/svg" xmlns:xlink="http://www.w3.org/1999/xlink" x="0px" y="0px"
	viewBox="0 0 400 400" style="enable-background:new 0 0 400 400;" xml:space="preserve">
	<style type="text/css">
	.st0webflow{fill:#4353FF;}
	.st1webflow{fill:#FFFFFF;}
</style>
	<g>
		<path class="st0webflow" d="M400,0v400H0V0H400z" />
	</g>
	<path class="st1webflow" d="M270.9,167.6c0,0-20.3,63.6-21.8,69c-0.6-5.3-15.4-119.6-15.4-119.6c-34.6,0-53,24.6-62.8,50.6
	c0,0-24.7,63.8-26.7,69.1c-0.1-5-3.8-68.5-3.8-68.5c-2.1-31.9-31.2-51.2-54.8-51.2L114,290.1c36.2-0.1,55.7-24.6,65.9-50.7
	c0,0,21.7-56.3,22.6-58.8c0.2,2.4,15.6,109.5,15.6,109.5c36.3,0,55.9-22.9,66.4-48L335.4,117C299.5,117,280.6,141.5,270.9,167.6z" />
</svg>