<svg fill="none" height="20" viewBox="0 0 40 20" width="40" xmlns="http://www.w3.org/2000/svg"><path clip-rule="evenodd" d="m12.2299 14.2402c-.3832-.6055-.6968-.926-1.2543-.926s-.8711.3205-1.25436.926l-1.67247 2.6713c-.62718 1.0329-1.14983 1.7453-2.36934 1.7453s-1.777-.4987-2.36933-1.8878c-.73171-1.7096-1.49826-3.7754-2.19512-6.5536-.766549-3.09925-1.11498-5.02259-1.11498-6.58976s.487804-2.49322 2.16027-2.813777c2.29965-.427409 5.40069-.676731 8.81533-.676731 3.4146 0 6.5157.249322 8.8153.676731 1.6725.320557 2.1603 1.246607 2.1603 2.813777s-.3484 3.49051-1.115 6.58976c-.6969 2.7782-1.4634 4.844-2.1951 6.5536-.5924 1.3891-1.1498 1.8878-2.3694 1.8878-1.2195 0-1.7421-.7124-2.3693-1.7453zm26.5158 2.4999c-1.1847 1.2822-3.4147 2.2083-6.3415 2.2083-5.8885 0-9.3728-4.096-9.3728-9.47424 0-5.77003 4.0069-9.189301 9.1986-9.189301 4.6342 0 7.7004 2.457601 7.7004 5.770031 0 3.13433-2.6133 5.16451-5.575 5.16451-1.6028 0-2.7874-.3205-3.5888-.9617-.3136-.2493-.4878-.2137-.4878.0713 0 1.1754.4181 2.1726 1.1846 2.9562.6272.6411 1.8119 1.0686 2.9269 1.0686 1.1498 0 2.1603-.2494 3.0662-.7124s1.6725-.3206 2.1254.4274c.5227.8548-.209 1.959-.8362 2.6713z" fill="#000" fill-rule="evenodd"/></svg>