<svg xmlns:xlink="http://www.w3.org/1999/xlink" xmlns="http://www.w3.org/2000/svg" id="Wizer_Logo" data-name="Wizer Logo" width="106" height="32" viewBox="0 0 106 32">
  <path id="Path_5244" data-name="Path 5244" d="M2.155,0A2.16,2.16,0,0,1,4.309,2.166V16.4A2.155,2.155,0,1,1,0,16.4V2.166A2.16,2.16,0,0,1,2.155,0Z" transform="translate(39.205 13.438)" fill="#153743"/>
  <path id="Path_5245" data-name="Path 5245" d="M-3425.655-1776.218a2.155,2.155,0,0,1-2.02-1.249l-4.75-10.239-4.749,10.239a2.153,2.153,0,0,1-2.022,1.249,2.15,2.15,0,0,1-2.021-1.249l-10.277-22.15a2.169,2.169,0,0,1,1.041-2.878,2.151,2.151,0,0,1,2.863,1.047l8.393,18.09,4.75-10.239a2.158,2.158,0,0,1,2.021-1.25,2.153,2.153,0,0,1,2.022,1.25l4.751,10.239,4.75-10.239a2.149,2.149,0,0,1,2.863-1.047,2.171,2.171,0,0,1,1.043,2.878l-6.635,14.3a2.156,2.156,0,0,1-1.956,1.251C-3425.609-1776.216-3425.633-1776.216-3425.655-1776.218Z" transform="translate(3451.698 1808.092)" fill="#153743"/>
  <path id="Path_5243" data-name="Path 5243" d="M-3449.119-1783.252a2.159,2.159,0,0,1-2.155-2.165,2.073,2.073,0,0,1,.054-.482,2.152,2.152,0,0,1,.6-1.459l9.728-10.126h-8.232a2.16,2.16,0,0,1-2.155-2.166,2.16,2.16,0,0,1,2.155-2.165h13.235a2.16,2.16,0,0,1,2.155,2.165,2.154,2.154,0,0,1-.408,1.267,2.138,2.138,0,0,1-.335.457l-9.937,10.34h8.526a2.16,2.16,0,0,1,2.155,2.167,2.159,2.159,0,0,1-2.155,2.165Z" transform="translate(3499.097 1815.251)" fill="#153743"/>
  <path id="Path_5242" data-name="Path 5242" d="M-3451.846-1785.437A2.159,2.159,0,0,1-3454-1787.6v-14.231a2.16,2.16,0,0,1,2.154-2.166h12.005a2.16,2.16,0,0,1,2.154,2.166v7.116a2.159,2.159,0,0,1-2.154,2.166h-9.849v2.785h9.849a2.159,2.159,0,0,1,2.154,2.165,2.159,2.159,0,0,1-2.154,2.166Zm9.851-11.447v-2.784h-7.695v2.784Z" transform="translate(3523.679 1817.437)" fill="#153743"/>
  <path id="Path_5241" data-name="Path 5241" d="M-3454-1787.6v-14.231a2.16,2.16,0,0,1,2.154-2.166h11.39a2.16,2.16,0,0,1,2.155,2.166,2.161,2.161,0,0,1-2.155,2.167h-9.233v12.065a2.162,2.162,0,0,1-2.156,2.166A2.159,2.159,0,0,1-3454-1787.6Z" transform="translate(3544.302 1817.437)" fill="#153743"/>
  <path id="Path_6277" data-name="Path 6277" d="M5342.656,11273.6h0a2.057,2.057,0,0,1-1.4-.577,2,2,0,0,1-.617-1.455v-6.618a2.013,2.013,0,0,1,.617-1.457,2.051,2.051,0,0,1,1.4-.571,1.948,1.948,0,0,1,1,.273l5.741,3.311a1.989,1.989,0,0,1,1.015,1.752,2.011,2.011,0,0,1-1.015,1.759l-5.741,3.3A1.913,1.913,0,0,1,5342.656,11273.6Z" transform="translate(-5306.803 -11262.924)" fill="#05a9df"/>
</svg>