<?xml version="1.0" encoding="utf-8"?>
<!-- Generator: Adobe Illustrator 27.2.0, SVG Export Plug-In . SVG Version: 6.00 Build 0)  -->
<svg version="1.1" id="Yugabyte-Logomark-Dark_BG-RGB"
	 xmlns="http://www.w3.org/2000/svg" xmlns:xlink="http://www.w3.org/1999/xlink" x="0px" y="0px" viewBox="0 0 1100 1000"
	 style="enable-background:new 0 0 1100 1000;" xml:space="preserve">
<style type="text/css">
	.st0{fill:#FF6947;}
</style>
<g id="Yugabyte-Logomark-Dark_BG-RGB_00000155839954005313482920000001779830491584662152_">
	<path class="st0" d="M298,6.1c24.8,0,37.2,0,46.7,4.8c8.3,4.2,15.1,11,19.4,19.4c4.8,9.5,4.8,21.9,4.8,46.7v311.7
		c0,37,0,55.5-7.8,66.8c-6.8,9.9-17.3,16.6-29.2,18.6c-13.6,2.3-30.3-5.5-63.9-21.2l-87.3-40.7c-63-29.4-94.6-44.1-117.6-66.8
		c-20.4-20.1-36-44.5-45.5-71.5C6.8,243.5,6.8,208.7,6.8,139.1V76.9c0-24.8,0-37.2,4.8-46.7c4.2-8.3,11-15.1,19.4-19.4
		c9.5-4.8,21.9-4.8,46.7-4.8H298z"/>
	<path class="st0" d="M1022.3,6.1c24.8,0,37.2,0,46.7,4.8c8.3,4.2,15.1,11,19.4,19.4c4.8,9.5,4.8,21.9,4.8,46.7v62.2
		c0,69.6,0,104.3-10.8,134.8c-9.6,27-25.1,51.4-45.5,71.5c-23.1,22.7-54.6,37.4-117.6,66.8L731.1,500v-423c0-24.8,0-37.2,4.8-46.7
		c4.2-8.3,11-15.1,19.4-19.4c9.5-4.8,21.9-4.8,46.7-4.8H1022.3z"/>
	<path class="st0" d="M731.1,500v423.1c0,24.8,0,37.2-4.8,46.7c-4.2,8.3-11,15.1-19.4,19.4c-9.5,4.8-21.9,4.8-46.7,4.8H439.9
		c-24.8,0-37.2,0-46.7-4.8c-8.3-4.2-15.1-11-19.4-19.4c-4.8-9.5-4.8-21.9-4.8-46.7v-62.3c0-69.6,0-104.3,10.8-134.8
		c9.5-27,25.1-51.4,45.5-71.5c23.1-22.7,54.6-37.4,117.6-66.8L731.1,500z"/>
</g>
</svg>
